<ttFont>
          <CharString index="0">
            -106 callsubr
            rrcurveto
            return
          </CharString>
          <CharString index="1">
            hlineto
            14 9 8 15 4 14 return
          </CharString>
          <CharString index="2">
            -106 callgsubr
            54 26 28 rlinecurve
            return
          </CharString>
          <CharString index="3">
            -9 -9 -79 callsubr
            -53 callgsubr
            return
          </CharString>
          <CharString index="4">
            13 -102 callgsubr
          </CharString>
          <CharString index="5">
            431 64 -104 callgsubr
          </CharString>
          <CharString index="6">
            -15 callsubr
            rrcurveto
            -69 -33 -82 -93 -70 vvcurveto
            -79 62 -108 100 -69 vhcurveto
            45 8 27 34 -2 30 -85 52 -36 64 -6 61 1 58 38 57 51 24 31 -10 16 -22 5 -24 -1 -25 -13 -29 -18 -26 return
          </CharString>
          <CharString index="7">
            -12 42 -103 callsubr
          </CharString>
          <CharString index="8">
            -14 -9 -8 -15 -5 379 callsubr
            return
          </CharString>
          <CharString index="9">
            4 15 -101 callsubr
            return
          </CharString>
          <CharString index="10">
            -88 callsubr
            -7 -30 rcurveline
            return
          </CharString>
          <CharString index="11">
            30 -28 47 -100 callsubr
          </CharString>
          <CharString index="12">
            -23 callgsubr
            -93 callsubr
          </CharString>
          <CharString index="13">
            -98 callgsubr
            139 528 callgsubr
            35 -9 rrcurveto
            33 30 45 21 35 hhcurveto
            24 22 525 callsubr
            -17 18 rcurveline
            -46 -2 -29 -39 -10 -47 124 callgsubr
            return
          </CharString>
          <CharString index="14">
            rlinecurve
            57 -97 callgsubr
          </CharString>
          <CharString index="15">
            -4 callgsubr
            -372 -89 callgsubr
            104 -75 callgsubr
            return
          </CharString>
          <CharString index="16">
            rmoveto
            -55 -51 -59 -54 -62 495 callsubr
            124 62 113 110 47 vhcurveto
            42 -28 22 -27 21 -43 rrcurveto
            19 63 rmoveto
            -24 43 -35 40 -38 20 -158 -2 -135 -190 2 -165 1 -99 58 -72 124 -4 44 50 51 53 42 47 12 -11 rcurveline
            -45 -117 33 -32 60 -11 43 15 rlinecurve
            6 398 callgsubr
            13 102 80 153 rcurveline
            -19 33 -35 9 -69 -6 -10 -21 -6 -33 -1 -49 rrcurveto
            return
          </CharString>
          <CharString index="17">
            -14 -104 callsubr
            return
          </CharString>
          <CharString index="18">
            rmoveto
            -42 -48 -63 204 callgsubr
            -21 10 -14 -49 callsubr
            return
          </CharString>
          <CharString index="19">
            hlineto
            -80 callsubr
            return
          </CharString>
          <CharString index="20">
            rmoveto
            155 27 44 147 41 211 18 112 4 83 12 85 -21 5 -22 0 -22 -7 rrcurveto
            -16 -7 -56 -13 -22 hvcurveto
            -4 -32 -6 -189 -12 -22 -62 -144 -19 -97 -69 -43 -91 -26 -73 90 10 94 -5 140 34 160 35 140 -21 5 -22 0 -22 -7 -20 -38 -20 -35 -29 -50 -10 -185 2 -128 8 -165 rrcurveto
            49 -48 73 -55 110 41 rrcurveto
            return
          </CharString>
          <CharString index="21">
            rmoveto
            135 311 10 2 11 -307 rlineto
            -1 hlineto
            90 17 rmoveto
            -16 205 17 171 -38 15 -72 6 -68 -36 rlinecurve
            -100 -256 -69 -131 -107 -4 -23 -28 -2 -26 19 -24 rlinecurve
            74 10 -116 -220 16 -28 52 -9 50 13 rlinecurve
            112 259 47 6 133 8 -9 -250 28 -26 55 -11 45 14 rlinecurve
            -22 279 93 5 23 34 1 30 -18 14 rlinecurve
            return
          </CharString>
          <CharString index="22">
            -49 callgsubr
            -29 -126 -23 callgsubr
            rlinecurve
            return
          </CharString>
          <CharString index="23">
            -9 -7 -8 -7 -7 -8 -5 -72 callgsubr
            return
          </CharString>
          <CharString index="24">
            -77 callgsubr
            123 hlineto
            return
          </CharString>
          <CharString index="25">
            -19 26 -32 7 -65 -34 callgsubr
            -112 -74 callsubr
            117 313 callgsubr
            -23 callgsubr
            rlinecurve
            57 431 63 49 callgsubr
            return
          </CharString>
          <CharString index="26">
            hlineto
            13 -30 callsubr
            endchar
          </CharString>
          <CharString index="27">
            -13 callgsubr
            -61 -3 return
          </CharString>
          <CharString index="28">
            -15 -5 -13 return
          </CharString>
          <CharString index="29">
            rlinecurve
            57 431 141 callgsubr
            116 -81 callsubr
          </CharString>
          <CharString index="30">
            402 rmoveto
            -56 -92 -126 -71 callsubr
            return
          </CharString>
          <CharString index="31">
            rmoveto
            -126 1 116 520 callgsubr
            hhcurveto
            129 204 229 147 -2 hvcurveto
            176 -3 -115 190 -96 hhcurveto
            -174 -184 -220 -219 2 hvcurveto
            469 60 rmoveto
            -41 -125 -65 -99 -126 -75 rrcurveto
            -84 51 -44 105 99 vvcurveto
            146 98 141 142 73 vhcurveto
            77 -82 28 -107 15 -127 rrcurveto
            return
          </CharString>
          <CharString index="32">
            rmoveto
            -113 -69 callsubr
            return
          </CharString>
          <CharString index="33">
            -97 callsubr
            -104 -89 callgsubr
            106 hlineto
            -28 -123 -74 -41 -77 -40 -74 -37 rlinecurve
            -27 16 -34 13 -41 5 -2 5 rcurveline
            95 33 68 56 20 92 -11 47 -29 36 -59 13 -78 3 -73 -25 -68 -55 -9 -26 26 -32 39 -11 51 49 61 25 54 -8 4 -5 rcurveline
            -11 -73 -49 -45 -77 -33 -18 -4 -18 -4 -19 -4 -16 -29 11 -42 33 -20 15 2 14 1 14 1 14 -2 13 -3 12 -4 7 -3 6 -3 5 -3 rrcurveto
            -163 -73 -127 -48 -51 vvcurveto
            -37 68 -52 66 -5 vhcurveto
            101 -1 197 103 112 vvcurveto
            17 -8 19 -15 18 vhcurveto
            62 32 64 35 60 33 7 -10 rcurveline
            -35 -42 -72 -311 170 callsubr
            return
          </CharString>
          <CharString index="34">
            56 230 -66 callgsubr
            return
          </CharString>
          <CharString index="35">
            -102 -434 30 -28 47 -51 callgsubr
            return
          </CharString>
          <CharString index="36">
            -95 -58 -82 callgsubr
            return
          </CharString>
          <CharString index="37">
            -83 callgsubr
            -356 hlineto
            return
          </CharString>
          <CharString index="38">
            hlineto
            -20 -74 callgsubr
            return
          </CharString>
          <CharString index="39">
            rmoveto
            -110 hlineto
            -19 26 -32 7 -65 -34 callgsubr
            -114 -89 callgsubr
            117 313 callgsubr
            -23 callgsubr
            rlinecurve
            57 431 63 55 callsubr
          </CharString>
          <CharString index="40">
            rmoveto
            57 -54 36 -77 10 -73 -22 -106 -54 -71 -110 -51 -54 47 -28 58 -3 81 17 98 49 85 102 63 rrcurveto
            -267 -258 rmoveto
            -128 108 -106 72 121 165 171 128 -3 vhcurveto
            95 -2 -104 163 -77 hhcurveto
            -131 -149 -193 -130 hvcurveto
            return
          </CharString>
          <CharString index="41">
            rmoveto
            -24 -153 -25 -98 -25 -111 -56 102 rcurveline
            -60 163 -47 152 -45 167 rrcurveto
            8 -16 -13 4 -17 hhcurveto
            -27 -29 -8 -21 -38 hvcurveto
            -13 -204 -32 -186 -25 -102 -51 -182 rlinecurve
            19 -34 65 -10 46 15 16 152 21 144 10 110 45 191 rcurveline
            54 -194 62 -186 97 -196 31 -26 53 -9 45 14 16 155 22 146 11 106 81 314 rcurveline
            7 -15 -16 291 callgsubr
          </CharString>
          <CharString index="42">
            9 -62 -34 callgsubr
            return
          </CharString>
          <CharString index="43">
            25 -86 56 -64 80 -67 34 9 18 26 callgsubr
            -17 64 return
          </CharString>
          <CharString index="44">
            -59 6 -73 89 -41 50 4 8 rcurveline
            127 6 168 113 108 vvcurveto
            21 -13 27 -20 23 vhcurveto
            return
          </CharString>
          <CharString index="45">
            -119 -8 callgsubr
            -130 51 callsubr
            return
          </CharString>
          <CharString index="46">
            -25 22 -22 35 -39 callgsubr
            return
          </CharString>
          <CharString index="47">
            -17 -76 callgsubr
            return
          </CharString>
          <CharString index="48">
            rmoveto
            29 49 10 59 1 22 -6 22 rlinecurve
            -44 7 -39 -7 -40 -36 24 -147 rcurveline
            -22 -102 -32 -118 -36 -114 19 -29 54 -10 50 15 17 101 15 96 12 105 62 71 58 49 60 28 20 -10 16 -15 5 -30 -25 -122 -23 -116 -18 -132 29 -29 50 -11 46 15 rrcurveto
            2 122 8 115 6 69 39 103 rcurveline
            -13 53 -46 68 -89 8 -75 -36 -63 -56 -53 -65 rrcurveto
            return
          </CharString>
          <CharString index="49">
            -51 callsubr
            4 -17 return
          </CharString>
          <CharString index="50">
            rmoveto
            97 -3 170 -16 85 -30 65 44 35 44 14 50 -14 37 -32 14 -67 -14 -7 -32 -5 -18 -16 -32 -79 11 -126 -1 -94 1 -4 9 rcurveline
            143 127 296 305 48 154 -12 37 -28 11 -61 1 -21 -50 rcurveline
            -84 3 -151 17 -83 23 -69 -28 -32 -63 -16 -59 15 -33 33 -12 63 10 4 37 11 35 24 32 rrcurveto
            -13 62 120 -3 79 hhcurveto
            6 -8 -116 -234 -366 -255 -1 -85 rlinecurve
            -1 -24 4 -18 16 -19 53 -5 26 7 19 20 -8 22 rcurveline
            return
          </CharString>
          <CharString index="51">
            rmoveto
            -27 9 305 callsubr
            36 21 37 21 35 21 -9 -38 -13 -36 -13 -32 rrcurveto
            return
          </CharString>
          <CharString index="52">
            50 45 rlinecurve
            39 -10 17 -28 -40 vvcurveto
            -80 -49 -63 -95 -74 vhcurveto
            36 -38 rlineto
            112 246 callsubr
          </CharString>
          <CharString index="53">
            -9 -9 -15 -4 379 callsubr
            return
          </CharString>
          <CharString index="54">
            135 rlineto
            return
          </CharString>
          <CharString index="55">
            232 callgsubr
            -49 -14 callsubr
            return
          </CharString>
          <CharString index="56">
            -7 -5 -6 -5 -5 -5 -8 -61 callsubr
            return
          </CharString>
          <CharString index="57">
            187 callsubr
            216 110 callsubr
            rrcurveto
            -59 -40 -40 -42 -53 20 callgsubr
            66 107 callgsubr
            154 callgsubr
          </CharString>
          <CharString index="58">
            23 41 vvcurveto
            98 65 104 53 6 vhcurveto
            return
          </CharString>
          <CharString index="59">
            44 53 38 43 39 44 11 -8 rcurveline
            return
          </CharString>
          <CharString index="60">
            37 callsubr
            -29 -3 -28 -5 -27 rlinecurve
            -57 -31 -56 -29 -53 -29 -22 299 callgsubr
            69 callgsubr
            16 51 17 72 14 76 return
          </CharString>
          <CharString index="61">
            rlinecurve
            49 -55 callgsubr
            return
          </CharString>
          <CharString index="62">
            -23 21 -42 callsubr
            return
          </CharString>
          <CharString index="63">
            -91 callgsubr
            -52 callsubr
            return
          </CharString>
          <CharString index="64">
            3 3 -9 190 callgsubr
            -22 23 vhcurveto
            return
          </CharString>
          <CharString index="65">
            322 callgsubr
            30 31 43 25 return
          </CharString>
          <CharString index="66">
            rmoveto
            -113 -83 callgsubr
            return
          </CharString>
          <CharString index="67">
            rmoveto
            0 vlineto
            -56 -92 -127 -96 -57 -9 rrcurveto
            -34 -45 39 28 2 21 callgsubr
            -442 120 callsubr
            -501 -63 rmoveto
            127 6 168 113 108 vvcurveto
            21 -13 27 -20 23 vhcurveto
            300 13 callsubr
            -3 -66 -115 -54 -79 -51 rrcurveto
            76 -5 -37 82 -53 314 callsubr
            rrcurveto
            1188 356 3 callgsubr
            -1061 hlineto
            -94 callsubr
            102 18 154 77 83 88 rrcurveto
            -45 30 68 -45 45 hhcurveto
            62 117 82 88 77 hvcurveto
            -16 callgsubr
          </CharString>
          <CharString index="68">
            6 55 5 4 callgsubr
            19 -37 -3 return
          </CharString>
          <CharString index="69">
            -60 147 -302 77 -4 86 -1 46 102 71 79 19 39 -31 31 -35 26 -80 61 -9 34 22 8 40 -38 74 -68 56 -86 26 -118 -10 -131 -79 -48 -113 26 -171 335 -69 1 -80 rrcurveto
            -73 -79 -64 -103 -25 vhcurveto
            -78 55 -27 37 -26 87 -57 18 -28 -22 -29 -47 return
          </CharString>
          <CharString index="70">
            rmoveto
            -29 -128 -55 -51 -59 -54 -62 -57 rlinecurve
            -40 24 -12 33 48 vvcurveto
            124 65 115 111 46 vhcurveto
            41 -26 18 -31 21 -44 rrcurveto
            -35 -225 rmoveto
            -38 -96 -15 -97 -8 -54 -27 -98 rlinecurve
            -9 -9 -15 -6 -16 1 -52 46 -27 51 -6 62 -36 22 -45 -19 -30 -47 13 -67 55 -74 102 -50 69 1 73 23 31 43 23 155 33 249 32 143 87 178 rcurveline
            -20 33 -34 9 -69 -6 -9 -20 -6 -33 -1 -48 -22 45 -31 46 -45 8 -156 -1 -135 -191 1 -165 rrcurveto
            -99 60 -72 123 -4 vhcurveto
            45 51 52 54 41 46 rrcurveto
            endchar
          </CharString>
          <CharString index="71">
            hlineto
            -87 -53 -97 -143 -70 vvcurveto
            -76 78 -110 70 70 125 72 109 30 vhcurveto
            10 58 -17 84 -34 79 rrcurveto
            return
          </CharString>
          <CharString index="72">
            282 callgsubr
            31 25 25 30 32 -25 25 -31 hvcurveto
            return
          </CharString>
          <CharString index="73">
            98 callgsubr
            -372 -99 callgsubr
            103 hlineto
            -36 -116 -29 -105 -31 -117 rrcurveto
            -39 15 59 -23 45 hhcurveto
            66 55 65 56 67 61 7 -7 rcurveline
            -16 -34 -20 -67 313 callsubr
            340 callsubr
            42 12 rlinecurve
            40 return
          </CharString>
          <CharString index="74">
            -55 callgsubr
            -46 -31 -50 -31 -53 -31 8 43 6 43 5 41 rrcurveto
            return
          </CharString>
          <CharString index="75">
            -63 113 -21 7 -22 -7 -10 -18 rlinecurve
            76 -130 23 -15 40 -1 37 12 rlinecurve
            return
          </CharString>
          <CharString index="76">
            -89 callgsubr
            538 114 callsubr
            -6 -45 callsubr
            44 hhcurveto
            26 23 413 callsubr
            -17 2 -17 4 -14 8 -21 -1 -17 -8 -13 -14 -125 23 -182 -19 -81 -55 29 callsubr
            45 -9 41 57 8 58 -2 53 -6 -3 -8 -2 -9 -2 -9 65 422 callsubr
            85 -61 176 callgsubr
            rrcurveto
            67 callgsubr
            return
          </CharString>
          <CharString index="77">
            9 8 15 4 14 rrcurveto
            return
          </CharString>
          <CharString index="78">
            rmoveto
            -37 -55 -44 -36 -50 -39 -53 17 -17 16 -13 30 40 146 15 57 17 126 -37 38 -44 7 -48 -10 5 -59 -1 -116 -6 -71 -49 -140 rcurveline
            14 -56 55 -43 129 -19 49 44 31 30 33 39 13 -11 rcurveline
            -41 -76 -18 -107 -9 -56 -28 -99 rlinecurve
            -8 -9 -20 -4 -18 2 -52 43 -26 52 -8 64 -34 21 -45 -18 -31 -46 11 -65 56 -78 98 -48 76 -3 73 20 34 45 20 146 37 262 30 151 89 170 rcurveline
            -21 32 -34 10 -69 -6 -21 -62 -18 -90 -25 -146 rrcurveto
            endchar
          </CharString>
          <CharString index="79">
            rmoveto
            -82 -45 -100 -34 -89 -14 6 24 0 26 -5 27 -8 58 -49 45 -84 -1 194 callsubr
            514 hlineto
            -888 -322 -41 callgsubr
            1123 377 -75 callsubr
            -510 -88 callgsubr
            305 53 48 55 49 50 45 rlinecurve
            32 -8 26 -24 3 -36 4 -29 -4 -28 -10 -29 -17 -24 -10 -30 -7 -29 214 callsubr
            rrcurveto
            64 17 119 43 83 49 6 -9 rcurveline
            -26 -33 -69 -296 -95 callsubr
          </CharString>
          <CharString index="80">
            rmoveto
            -622 -8 callgsubr
            3 -102 -18 -85 -47 -106 -36 -70 rlinecurve
            5 -40 43 -29 55 -8 155 94 rcurveline
            10 -6 2 -68 -20 -85 -28 -73 -68 -74 rlinecurve
            4 -30 22 -19 51 -4 83 92 45 159 -6 122 -19 37 -41 22 -45 -5 -134 -80 rcurveline
            -10 7 53 103 32 130 22 118 rlinecurve
            157 hlineto
            8 -75 -4 -51 -20 -40 -29 -41 rlinecurve
            4 -22 27 -17 40 -3 55 74 23 101 -1 74 rrcurveto
            124 -107 callgsubr
          </CharString>
          <CharString index="81">
            400 callgsubr
            -14 -23 33 -37 hhcurveto
            -96 -76 -126 -63 -47 31 -35 49 -1 hvcurveto
            4 -5 -48 -28 -124 -47 -50 -3 rlinecurve
            -45 6 -60 61 -41 45 4 8 rcurveline
            127 6 168 113 108 vvcurveto
            21 -13 27 -20 23 vhcurveto
            297 hlineto
            -54 -234 rmoveto
            -39 -20 -40 -27 -31 hhcurveto
            -25 -18 20 27 47 44 75 44 5 hvcurveto
            26 -4 18 -43 8 -38 rrcurveto
            297 261 rmoveto
            -119 -83 callgsubr
            -680 -12 callsubr
            -90 -103 -137 -70 -105 -40 -8 -27 11 -22 42 -22 94 52 115 24 callgsubr
            121 -107 callgsubr
          </CharString>
          <CharString index="82">
            rmoveto
            -13 -60 -41 -90 -29 -60 13 -24 35 -9 33 7 60 175 37 114 -46 81 -79 -12 -96 3 -64 11 -30 -23 7 -42 27 -27 155 27 rcurveline
            4 -5 -45 -91 -69 -78 -69 -59 rlinecurve
            -110 55 -54 50 1 133 1 158 117 149 144 51 rrcurveto
            15 hlineto
            39 -43 8 -44 7 -61 43 -23 49 19 30 37 -12 74 -43 81 -105 33 -154 -26 -112 -92 -63 -92 -35 -57 -38 -92 1 -77 1 -157 73 -102 207 -51 90 64 66 92 37 86 rrcurveto
            return
          </CharString>
          <CharString index="83">
            -4 51 -25 46 -46 22 -26 5 -49 -2 return
          </CharString>
          <CharString index="84">
            -99 callgsubr
            127 hlineto
            -9 -7 -7 296 callsubr
            33 35 42 22 37 hhcurveto
            30 23 -29 -25 2 hvcurveto
            -2 -86 -120 -73 -88 -7 -13 2 -12 5 -11 421 callsubr
            return
          </CharString>
          <CharString index="85">
            rmoveto
            29 49 10 60 1 22 -6 21 rlinecurve
            -45 7 -40 -8 -38 -35 24 -147 rcurveline
            -21 -102 -33 -118 -36 -114 19 -29 54 -10 50 15 19 105 14 99 13 109 48 56 28 31 36 40 12 -8 8 -23 -1 -28 36 -20 39 6 39 32 -1 74 -45 54 -63 11 rrcurveto
            -44 -48 -50 -57 -46 -53 rrcurveto
            endchar
          </CharString>
          <CharString index="86">
            217 callsubr
            -4 -44 44 -41 45 -23 55 8 41 14 33 14 5 -5 rcurveline
            -64 -50 -76 -46 -46 -68 rrcurveto
            -41 44 -40 54 -15 vhcurveto
            return
          </CharString>
          <CharString index="87">
            144 callgsubr
            39 22 36 21 36 21 -10 -39 287 callgsubr
            return
          </CharString>
          <CharString index="88">
            -4 rlinecurve
            -60 callsubr
            return
          </CharString>
          <CharString index="89">
            7 -5 rcurveline
            -25 -67 -55 257 callgsubr
            39 502 callgsubr
            44 106 -26 46 -45 16 -35 -7 -25 -28 -65 -78 -49 -53 -49 15 -44 41 -13 43 42 71 175 467 callgsubr
            13 418 callsubr
            -30 19 rrcurveto
            241 -107 callgsubr
          </CharString>
          <CharString index="90">
            9 callgsubr
            115 -107 callsubr
            endchar
          </CharString>
          <CharString index="91">
            -42 callsubr
            45 hhcurveto
            25 122 callgsubr
            return
          </CharString>
          <CharString index="92">
            -24 callsubr
            -28 -7 return
          </CharString>
          <CharString index="93">
            -6 -95 0 callgsubr
            return
          </CharString>
          <CharString index="94">
            -30 callgsubr
            -20 -47 -49 -34 hhcurveto
            -26 374 callgsubr
            54 5 hvcurveto
            25 -4 19 -43 8 -37 rrcurveto
            297 260 481 callsubr
            -679 hlineto
            -94 callsubr
            100 83 callgsubr
            57 431 539 callsubr
            121 -107 callgsubr
          </CharString>
          <CharString index="95">
            63 callgsubr
            -80 -100 -70 -118 -16 vhcurveto
            -17 18 -46 -2 -29 -39 -10 -47 rlinecurve
            69 -81 79 -76 95 -22 101 18 203 95 61 69 11 -11 rcurveline
            return
          </CharString>
          <CharString index="96">
            -72 -88 211 callgsubr
            -13 8 return
          </CharString>
          <CharString index="97">
            -25 8 -25 16 -17 17 -37 3 -31 -38 -7 -49 18 -6 24 -12 3 -19 -1 -40 -50 -63 -58 -15 rrcurveto
            -44 24 -21 51 55 vvcurveto
            39 23 42 36 32 vhcurveto
            -8 33 -27 20 -37 -4 -57 -39 -26 -66 -1 -48 3 -96 72 -103 81 -7 62 1 126 84 1 94 -13 27 rcurveline
            5 6 24 -9 return
          </CharString>
          <CharString index="98">
            -4 26 -38 20 -43 rrcurveto
            return
          </CharString>
          <CharString index="99">
            34 -83 10 -59 -57 vvcurveto
            -48 -77 -81 -50 -33 -28 69 35 55 55 101 74 68 vhcurveto
            return
          </CharString>
          <CharString index="100">
            hlineto
            1 callgsubr
            return
          </CharString>
          <CharString index="101">
            rmoveto
            518 callgsubr
            -7 -5 rcurveline
            -42 44 -55 61 -42 54 20 40 rcurveline
            249 hlineto
            38 -21 34 -24 19 -27 rrcurveto
            83 -228 155 callgsubr
            -530 -25 108 callgsubr
            40 rcurveline
            41 -47 48 -51 38 -39 -3 -1 rcurveline
            -60 -39 -72 -41 -44 -22 rrcurveto
            745 380 rmoveto
            -863 -90 callgsubr
            29 18 38 26 40 28 rrcurveto
            -1 vlineto
            -86 94 -83 116 230 callsubr
            2 130 -29 50 -81 125 callsubr
            -2 29 -14 23 -23 21 -29 19 rrcurveto
            286 -81 callsubr
          </CharString>
          <CharString index="102">
            240 callgsubr
            15 -17 25 74 45 rcurveline
            7 return
          </CharString>
          <CharString index="103">
            22 callgsubr
            181 37 206 34 179 rrcurveto
            142 10 callsubr
            return
          </CharString>
          <CharString index="104">
            -23 callgsubr
            18 callsubr
          </CharString>
          <CharString index="105">
            rmoveto
            -43 -16 -45 -49 -34 hhcurveto
            -20 -21 463 callgsubr
            54 5 hvcurveto
            30 -3 13 -60 -1 -46 rrcurveto
            return
          </CharString>
          <CharString index="106">
            39 344 69 -87 callsubr
            return
          </CharString>
          <CharString index="107">
            53 -112 20 -11 46 -9 33 30 rlinecurve
            -75 147 -24 16 -35 4 -39 -8 rlinecurve
            return
          </CharString>
          <CharString index="108">
            rmoveto
            -69 -64 -72 -56 -70 -47 -10 5 rcurveline
            15 67 14 56 17 61 236 callgsubr
            144 hlineto
            465 50 rmoveto
            -334 -34 callsubr
            305 53 48 55 49 387 callsubr
            94 73 121 vvcurveto
            75 -56 57 -103 -8 vhcurveto
            453 callsubr
            27 60 141 callgsubr
            336 -107 callgsubr
          </CharString>
          <CharString index="109">
            43 callgsubr
            -378 hmoveto
            161 callgsubr
            21 -22 return
          </CharString>
          <CharString index="110">
            43 50 48 55 44 289 callgsubr
            return
          </CharString>
          <CharString index="111">
            1 -50 46 -58 56 -44 -61 -40 -69 -32 -55 -24 73 callgsubr
            155 30 78 -26 40 -29 17 -45 -5 -23 -38 -34 -57 -27 -28 -50 9 -35 17 -33 22 -14 41 -2 30 27 23 50 25 64 36 58 42 rrcurveto
            -19 34 34 -11 26 hhcurveto
            return
          </CharString>
          <CharString index="112">
            -77 callsubr
            -378 hmoveto
            -58 callsubr
            return
          </CharString>
          <CharString index="113">
            63 -2 139 87 callgsubr
            return
          </CharString>
          <CharString index="114">
            -92 callgsubr
            217 hlineto
            -77 -43 -78 -54 -43 -51 -5 -40 35 -41 41 -16 55 7 39 13 38 13 5 -6 rcurveline
            -61 -48 -75 -44 -46 -68 rrcurveto
            -41 44 -40 return
          </CharString>
          <CharString index="115">
            -61 3 -44 -22 -48 -38 -5 -25 14 -18 39 -18 32 28 36 18 34 6 49 -26 13 -36 -3 -54 -7 -80 -70 -54 -46 -13 return
          </CharString>
          <CharString index="116">
            -4 vhcurveto
            17 callsubr
            return
          </CharString>
          <CharString index="117">
            -106 callsubr
            -12 12 rcurveline
            return
          </CharString>
          <CharString index="118">
            -5 callsubr
            -29 2 -28 -7 -31 rrcurveto
            return
          </CharString>
          <CharString index="119">
            rmoveto
            44 65 82 69 63 496 callgsubr
            -57 -90 -67 -65 -14 rrcurveto
            return
          </CharString>
          <CharString index="120">
            hlineto
            -42 callgsubr
            -9 -25 22 158 callgsubr
            return
          </CharString>
          <CharString index="121">
            rmoveto
            36 -41 9 -49 5 -60 43 -18 50 14 31 32 -8 76 -46 85 -93 35 -162 -26 -102 -96 -69 -77 rrcurveto
            -47 -83 -25 -72 -74 vvcurveto
            -158 78 -117 200 -46 vhcurveto
            91 35 100 62 45 54 2 28 -17 30 -38 -7 -40 -42 -71 -49 -76 -31 rrcurveto
            -113 45 -53 68 133 vvcurveto
            141 111 155 143 51 vhcurveto
            endchar
          </CharString>
          <CharString index="122">
            32 109 698 rmoveto
            59 -124 62 -129 55 -143 -11 -73 -21 -116 -31 -86 32 -29 68 -9 30 18 7 115 11 126 22 82 68 83 68 82 61 78 35 44 14 42 1 55 -34 30 -46 10 -76 -34 38 -137 rcurveline
            -153 -201 -24 -45 rlineto
            -4 hlineto
            -82 215 -28 181 -37 20 -54 -17 -30 -38 rlinecurve
            return
          </CharString>
          <CharString index="123">
            49 61 49 66 31 37 470 callsubr
            -54 257 callgsubr
            38 138 39 97 callgsubr
            176 72 67 58 rrcurveto
            26 23 callgsubr
          </CharString>
          <CharString index="124">
            3 callsubr
            -39 68 callsubr
            return
          </CharString>
          <CharString index="125">
            rlinecurve
            57 431 64 55 callsubr
          </CharString>
          <CharString index="126">
            rmoveto
            -69 -65 -74 -60 -70 -50 -10 5 rcurveline
            15 67 16 64 17 61 236 callgsubr
            144 hlineto
            465 50 rmoveto
            -334 98 callgsubr
            -372 -99 callgsubr
            103 -75 callgsubr
            305 53 48 55 49 -55 callsubr
          </CharString>
          <CharString index="127">
            rmoveto
            -26 9 305 callsubr
            36 21 36 21 36 21 -10 -38 -12 -35 -14 -33 rrcurveto
            540 389 rmoveto
            -111 hlineto
            -20 24 -32 9 -62 -3 -7 -30 rcurveline
            -432 -17 callgsubr
            139 hlineto
            -77 -335 -84 -84 -121 -76 340 callsubr
            42 12 rlinecurve
            57 431 539 callsubr
            113 -107 callgsubr
          </CharString>
          <CharString index="128">
            -31 19 callgsubr
            return
          </CharString>
          <CharString index="129">
            rmoveto
            -10 -204 -31 -158 -30 -129 -53 -142 rlinecurve
            5 -38 36 -24 53 -15 315 34 rcurveline
            20 28 11 52 -38 15 -83 -19 -98 -19 -103 -14 61 310 rcurveline
            83 341 -41 21 -43 -8 -54 -31 rlinecurve
            endchar
          </CharString>
          <CharString index="130">
            rmoveto
            -113 -24 -89 -84 -55 -76 -20 -37 -14 -38 -1 -45 -5 -107 53 -104 151 -32 77 12 104 53 44 46 5 33 -9 19 -33 -1 -40 -37 -74 -36 -59 -18 -87 42 -21 62 5 89 rrcurveto
            3 69 55 94 87 51 21 4 rcurveline
            33 -32 16 -28 1 -61 43 -13 46 11 25 32 -11 75 -48 66 -90 15 rrcurveto
            endchar
          </CharString>
          <CharString index="131">
            65 384 callgsubr
            return
          </CharString>
          <CharString index="132">
            322 callsubr
            -29 19 rrcurveto
            241 -107 callgsubr
          </CharString>
          <CharString index="133">
            rmoveto
            160 callsubr
            -33 -25 -25 -32 502 callsubr
            -188 hmoveto
            32 26 26 31 32 -26 25 -32 -32 -26 -25 -32 -31 26 -26 32 hvcurveto
            return
          </CharString>
          <CharString index="134">
            28 callgsubr
            15 20 5 return
          </CharString>
          <CharString index="135">
            -104 callsubr
            179 hlineto
            14 -98 return
          </CharString>
          <CharString index="136">
            rrcurveto
            -20 -16 -9 -26 -31 352 callgsubr
            -26 59 -8 33 6 36 17 15 21 5 41 -2 return
          </CharString>
          <CharString index="137">
            rlinecurve
            13 -42 35 -22 50 -13 rrcurveto
            107 89 18 26 80 hvcurveto
            146 86 77 132 -2 152 rrcurveto
            186 -2 -114 139 -211 hhcurveto
            -83 -66 -8 -16 -60 hvcurveto
            -15 -20 0 -31 32 -24 rrcurveto
            endchar
          </CharString>
          <CharString index="138">
            rmoveto
            -580 -99 callgsubr
            238 123 callsubr
            -3 -8 rcurveline
            return
          </CharString>
          <CharString index="139">
            -68 -26 -34 -41 -29 -39 -2 -22 28 -16 28 2 56 75 rcurveline
            6 2 26 -36 39 -24 75 -20 rlinecurve
            64 30 39 37 22 36 5 24 -25 16 -31 -6 return
          </CharString>
          <CharString index="140">
            rmoveto
            -8 32 -55 21 -56 -12 -30 -84 rcurveline
            -65 -94 rlineto
            -15 1 18 -9 25 hhcurveto
            return
          </CharString>
          <CharString index="141">
            211 11 callsubr
            return
          </CharString>
          <CharString index="142">
            11 68 15 64 15 63 return
          </CharString>
          <CharString index="143">
            96 222 348 rmoveto
            2 7 rlineto
            182 hlineto
            26 26 -13 34 -25 11 -158 -20 rcurveline
            19 77 20 87 21 87 161 8 77 -114 2 -149 2 -122 -50 -98 -112 -82 -67 -18 -56 -4 -67 -1 rrcurveto
            -17 571 rmoveto
            -2 -159 -6 -32 -6 -29 -6 -28 rlinecurve
            -112 10 -22 -17 0 -34 32 -25 rlinecurve
            89 11 -22 -88 -25 -78 -34 -102 30 callsubr
          </CharString>
          <CharString index="144">
            -7 callsubr
            -2 return
          </CharString>
          <CharString index="145">
            rmoveto
            6 24 11 23 11 16 rrcurveto
            4 9 8 5 9 hhcurveto
            31 3 -31 -41 -11 hvcurveto
            -6 -25 -9 -22 -12 -16 rrcurveto
            -5 -8 -7 -5 -13 hhcurveto
            -31 -4 32 41 13 hvcurveto
            5 -107 rmoveto
            67 61 50 57 21 hvcurveto
            66 23 -42 41 -62 hhcurveto
            -68 -60 -49 -58 -21 hvcurveto
            -64 -20 38 -43 63 hhcurveto
            return
          </CharString>
          <CharString index="146">
            419 callgsubr
            -48 callgsubr
            330 -107 callsubr
            endchar
          </CharString>
          <CharString index="147">
            -83 callgsubr
            -683 -89 callgsubr
            686 515 callgsubr
            rlineto
            40 -26 -30 46 -36 hhcurveto
            -36 -36 -16 -25 -31 hvcurveto
            -124 -83 -181 -87 -120 -66 534 callsubr
            32 -51 56 -26 59 -8 33 6 37 17 15 21 3 48 -1 59 -19 48 52 29 53 30 53 31 rrcurveto
            -20 -41 -12 -44 -42 vvcurveto
            -88 63 -44 90 -4 vhcurveto
            -49 callgsubr
            -30 -9 callgsubr
            43 13 rlinecurve
            40 301 42 45 55 54 25 28 rlinecurve
            return
          </CharString>
          <CharString index="148">
            62 204 -77 rmoveto
            -53 -2 -63 25 64 vvcurveto
            14 3 14 6 13 vhcurveto
            43 -27 58 -33 47 -25 -13 -14 -13 -14 -15 -15 rrcurveto
            110 124 rmoveto
            -14 -16 -13 -16 -12 -15 -51 24 -51 32 -48 33 11 10 15 10 17 9 14 -5 11 -5 10 -6 30 -25 39 -19 42 -11 rrcurveto
            420 574 rmoveto
            -711 -89 callgsubr
            370 hlineto
            44 -26 33 -23 17 -28 -3 357 callsubr
            -16 4 -17 6 -15 vhcurveto
            -101 -34 -53 -68 -67 vvcurveto
            -90 104 -70 130 25 vhcurveto
            53 65 42 56 return
          </CharString>
          <CharString index="149">
            48 callsubr
            28 return
          </CharString>
          <CharString index="150">
            43 349 callsubr
            44 callgsubr
            return
          </CharString>
          <CharString index="151">
            rmoveto
            -277 -438 12 -25 24 -8 42 5 rlinecurve
            503 896 -14 25 -28 8 -45 -7 rlinecurve
            return
          </CharString>
          <CharString index="152">
            23 -91 59 -84 74 -66 38 9 14 19 -1 20 479 callsubr
            -10 70 return
          </CharString>
          <CharString index="153">
            655 268 rmoveto
            -3 -79 -59 -83 -79 -38 -34 17 -37 35 -30 39 79 80 67 85 66 39 22 -31 9 -32 -1 -32 rrcurveto
            -476 -200 rmoveto
            -52 22 -21 38 -5 46 8 60 64 74 71 29 35 -39 34 -47 34 -57 -48 -46 -55 -45 -65 -35 rrcurveto
            454 376 rmoveto
            -76 -71 -106 -108 -103 hvcurveto
            -32 66 -43 62 -46 54 -131 -10 -118 -147 -1 -73 -1 -86 78 -80 98 -16 71 25 61 45 54 50 35 -48 43 -47 51 -25 123 22 111 139 1 114 rrcurveto
            76 2 -63 93 -43 hhcurveto
            return
          </CharString>
          <CharString index="154">
            307 callgsubr
            -54 -119 vvcurveto
            -87 102 -80 120 -17 533 callsubr
            105 callsubr
            39 97 callgsubr
            175 552 callgsubr
            27 23 callgsubr
          </CharString>
          <CharString index="155">
            -101 callsubr
            138 callsubr
            return
          </CharString>
          <CharString index="156">
            230 callgsubr
            12 -10 -41 -70 -46 -194 -23 callgsubr
            rlinecurve
            57 431 141 callgsubr
            return
          </CharString>
          <CharString index="157">
            rmoveto
            -5 -143 -31 -189 -28 -117 -48 -173 rlinecurve
            20 -33 65 -10 45 15 15 141 14 123 12 135 60 257 rcurveline
            207 -16 29 35 1 30 -15 16 rlinecurve
            -231 7 -136 -4 -167 -12 -14 -24 -2 -23 28 -31 rrcurveto
            endchar
          </CharString>
          <CharString index="158">
            -539 30 -29 47 -10 42 12 rlinecurve
            return
          </CharString>
          <CharString index="159">
            -4 56 44 70 65 52 49 9 -9 rcurveline
            -28 -48 -61 -262 -95 callsubr
          </CharString>
          <CharString index="160">
            68 56 47 64 15 hvcurveto
            -13 25 -30 15 -50 -12 -6 -39 -26 -30 -51 -8 -37 10 -23 27 -13 40 -17 1 -15 -5 -8 -8 rrcurveto
            return
          </CharString>
          <CharString index="161">
            hlineto
            245 263 callgsubr
            return
          </CharString>
          <CharString index="162">
            49 callgsubr
            rrcurveto
            endchar
          </CharString>
          <CharString index="163">
            -7 -32 -6 -30 -7 -29 -21 45 -30 44 -44 7 -158 -1 -136 -189 1 -167 rrcurveto
            -100 62 -73 121 -2 vhcurveto
            44 50 51 53 41 45 11 -10 rcurveline
            -49 -120 24 -32 52 -5 48 13 rlinecurve
            23 159 36 246 21 170 return
          </CharString>
          <CharString index="164">
            -48 -62 204 callgsubr
            -22 10 -13 -49 callsubr
            26 -4 26 -38 20 -43 rrcurveto
            return
          </CharString>
          <CharString index="165">
            257 152 177 rmoveto
            -28 9 -19 17 -17 25 25 11 25 10 24 8 6 -22 0 -23 -6 -28 rrcurveto
            767 437 rmoveto
            -902 -89 callgsubr
            562 hlineto
            43 -26 33 -23 17 -28 -3 -8 rcurveline
            -32 -38 -61 -32 -62 -32 rrcurveto
            1 vlineto
            -152 -33 -158 -21 -156 -60 534 callsubr
            31 -50 55 -29 61 -9 33 6 37 18 15 20 4 43 1 42 -11 42 49 13 50 10 54 11 rrcurveto
            -36 -27 -25 -31 -37 vvcurveto
            -87 return
          </CharString>
          <CharString index="166">
            -37 -58 -69 -45 -67 -8 -17 2 -15 5 -15 7 return
          </CharString>
          <CharString index="167">
            -66 callgsubr
            123 hlineto
            return
          </CharString>
          <CharString index="168">
            159 callgsubr
            36 -19 42 -24 21 -31 -1 -5 rcurveline
            -51 -28 -127 -28 -49 -12 -32 -22 -16 -47 6 -36 74 -63 143 0 49 -41 1 -8 rcurveline
            -27 -32 -57 -31 -43 -3 -45 4 -36 26 -22 31 -42 14 -45 -44 -23 -46 62 -72 70 -118 40 -84 43 -2 36 18 1 24 -47 74 -59 94 -47 52 6 6 rcurveline
            30 -27 44 -15 39 -2 61 1 128 64 12 47 6 18 0 19 -6 17 -7 10 -15 13 -15 8 return
          </CharString>
          <CharString index="169">
            -50 -1 -36 8 -68 21 -38 -18 -27 -44 38 -32 rrcurveto
            46 7 29 -20 -29 vvcurveto
            -41 -51 -42 -93 -16 vhcurveto
            -8 9 -10 13 -6 11 rrcurveto
            -33 -35 -31 -43 -6 hvcurveto
            40 -63 93 -82 93 -37 37 12 17 30 -16 26 -75 27 -52 39 -36 43 return
          </CharString>
          <CharString index="170">
            148 callsubr
            rrcurveto
            -20 -15 3 -55 27 -26 rrcurveto
            337 callsubr
            return
          </CharString>
          <CharString index="171">
            24 -32 131 callgsubr
            return
          </CharString>
          <CharString index="172">
            43 55 64 58 62 49 rrcurveto
            45 -30 33 -38 7 vhcurveto
            -44 -14 -38 -12 -44 -6 -7 9 rcurveline
            51 56 89 64 82 47 rrcurveto
            return
          </CharString>
          <CharString index="173">
            rmoveto
            -27 -181 -30 -136 -53 -187 19 -34 68 -10 45 15 23 204 17 173 20 199 61 228 rcurveline
            -41 20 -41 -9 -54 -32 rrcurveto
            endchar
          </CharString>
          <CharString index="174">
            63 117 callsubr
            return
          </CharString>
          <CharString index="175">
            -59 -36 302 callgsubr
            return
          </CharString>
          <CharString index="176">
            113 callsubr
            299 return
          </CharString>
          <CharString index="177">
            336 callgsubr
            24 15 5 16 5 hvcurveto
            -23 57 -18 64 -2 49 12 10 rcurveline
            37 -11 26 452 callsubr
            -31 35 -54 27 -58 7 -31 -3 -30 -21 -19 -25 16 -33 13 -27 13 -36 return
          </CharString>
          <CharString index="178">
            159 callgsubr
            36 -19 40 -24 25 -31 -2 -5 rcurveline
            -46 -26 -125 -28 -52 -15 -37 -24 -18 -53 8 -36 74 -62 158 -3 34 -44 1 -9 rcurveline
            -18 -29 -63 -43 -49 -2 -46 4 -37 25 -21 31 -43 12 -43 -46 -21 -47 64 -71 74 -100 43 -83 rrcurveto
            43 398 callsubr
            -48 72 -61 73 -49 51 6 6 rcurveline
            30 -28 44 -16 39 -2 82 2 107 70 12 57 8 21 0 return
          </CharString>
          <CharString index="179">
            11 callsubr
            271 248 rmoveto
            308 callsubr
            return
          </CharString>
          <CharString index="180">
            210 callsubr
            -45 305 callgsubr
            231 60 callsubr
            return
          </CharString>
          <CharString index="181">
            rmoveto
            -42 13 -53 -12 -16 -45 86 -84 rcurveline
            55 -79 23 -5 19 7 7 15 rlinecurve
            return
          </CharString>
          <CharString index="182">
            -33 -25 2 hvcurveto
            -2 480 callsubr
            return
          </CharString>
          <CharString index="183">
            vvcurveto
            -88 64 -44 89 -4 vhcurveto
            44 53 38 43 39 44 11 -8 rcurveline
            -39 -73 -29 265 callsubr
            28 439 callgsubr
            -67 48 -96 -16 vhcurveto
            -34 -37 -41 -46 -38 -43 -8 451 callsubr
            331 -81 callsubr
          </CharString>
          <CharString index="184">
            342 callsubr
            -53 -224 283 callsubr
            -54 hhcurveto
            -32 -52 -32 -41 -22 hvcurveto
            4 -42 37 -19 58 -9 194 callgsubr
            21 -31 43 421 callgsubr
            61 65 10 -9 rcurveline
            -33 -45 -32 -136 -71 callgsubr
            43 13 rlinecurve
            return
          </CharString>
          <CharString index="185">
            7 callgsubr
            22 -38 -29 vvcurveto
            -25 -11 -24 -18 -22 vhcurveto
            -462 -287 rmoveto
            -30 10 -18 14 -17 25 24 14 25 13 25 14 6 -27 1 -27 -6 -29 rrcurveto
            return
          </CharString>
          <CharString index="186">
            30 90 34 88 31 84 -20 44 -48 29 -34 2 -92 -1 -230 -114 -116 -21 callgsubr
            return
          </CharString>
          <CharString index="187">
            293 callgsubr
            52 48 54 48 51 45 rlinecurve
            38 -10 18 -28 -40 vvcurveto
            -80 -49 -63 -95 -74 vhcurveto
            35 -38 rlineto
            113 246 callsubr
          </CharString>
          <CharString index="188">
            14 31 88 40 65 28 9 28 -15 48 -24 399 callsubr
            return
          </CharString>
          <CharString index="189">
            rmoveto
            -132 -89 1 13 80 317 rlineto
            8 -16 -15 3 -17 hhcurveto
            -27 -29 -9 -19 -35 hvcurveto
            -12 -206 -30 -189 -26 -104 -47 -178 rlinecurve
            18 -34 66 -10 46 15 12 122 14 117 11 95 23 16 rcurveline
            49 -149 92 -142 122 -66 58 18 24 43 -19 40 -150 52 -82 110 -47 118 127 80 158 135 69 73 -4 41 -22 24 -55 7 rrcurveto
            endchar
          </CharString>
          <CharString index="190">
            54 55 27 116 callgsubr
            return
          </CharString>
          <CharString index="191">
            144 callgsubr
            111 63 rcurveline
            -10 -39 -12 551 callsubr
            return
          </CharString>
          <CharString index="192">
            -124 -102 -148 -126 -89 63 -46 91 -4 hvcurveto
            return
          </CharString>
          <CharString index="193">
            hhcurveto
            -1 callgsubr
            hvcurveto
            return
          </CharString>
          <CharString index="194">
            65 31 65 29 65 rrcurveto
            return
          </CharString>
          <CharString index="195">
            hlineto
            -13 -94 callgsubr
            -80 -123 -76 -87 -6 -13 3 -12 4 -10 7 -46 -2 -27 -38 -10 -47 45 -73 70 -103 85 -80 33 7 22 26 -3 34 -68 69 -47 73 -26 54 4 8 rcurveline
            33 -1 36 8 36 13 rrcurveto
            -16 27 39 -24 21 hhcurveto
            return
          </CharString>
          <CharString index="196">
            44 53 38 43 40 44 10 34 callgsubr
            55 55 26 28 rlinecurve
            37 367 callgsubr
            10 -13 29 439 callgsubr
            -68 52 callgsubr
          </CharString>
          <CharString index="197">
            86 callsubr
            12 -10 -41 -70 -46 -194 -23 callgsubr
            rlinecurve
            57 431 return
          </CharString>
          <CharString index="198">
            35 44 27 36 25 hvcurveto
            38 -7 -36 43 -28 hhcurveto
            -40 -4 -40 -47 -6 -43 rrcurveto
            -30 4 23 -20 26 hhcurveto
            return
          </CharString>
          <CharString index="199">
            rmoveto
            -691 -99 callgsubr
            327 377 callgsubr
            -3 113 callgsubr
            24 -12 65 -31 37 -11 -3 -7 rcurveline
            -176 -29 -102 -132 -88 vvcurveto
            -91 100 -141 132 -38 vhcurveto
            110 13 112 40 65 55 -3 38 -15 19 -28 3 -42 -43 -112 -58 -84 -7 -77 35 -62 90 -13 82 return
          </CharString>
          <CharString index="200">
            -92 callsubr
            304 59 54 58 56 42 34 rlinecurve
            30 23 -19 -36 9 hvcurveto
            8 -28 -1 -35 -8 -42 -5 -11 -4 -13 -3 -13 return
          </CharString>
          <CharString index="201">
            -41 -33 callgsubr
            return
          </CharString>
          <CharString index="202">
            56 230 102 100 vvcurveto
            14 147 callgsubr
            return
          </CharString>
          <CharString index="203">
            328 callsubr
            -10 408 callsubr
            return
          </CharString>
          <CharString index="204">
            304 callgsubr
            123 callgsubr
            return
          </CharString>
          <CharString index="205">
            23 75 callsubr
            return
          </CharString>
          <CharString index="206">
            -8 -27 11 -22 42 -22 94 52 115 82 56 55 callgsubr
            42 12 -93 callsubr
          </CharString>
          <CharString index="207">
            81 callsubr
            -101 16 199 callgsubr
            return
          </CharString>
          <CharString index="208">
            -63 610 621 31 callsubr
            return
          </CharString>
          <CharString index="209">
            91 -50 211 callsubr
            return
          </CharString>
          <CharString index="210">
            43 callsubr
            91 189 callsubr
            -38 -21 callsubr
            return
          </CharString>
          <CharString index="211">
            342 callgsubr
            103 hlineto
            -34 -117 -30 -112 -29 -119 rrcurveto
            -40 16 60 -23 44 hhcurveto
            62 52 94 86 69 64 9 -6 rcurveline
            -24 -43 -65 -281 -3 callsubr
          </CharString>
          <CharString index="212">
            470 callsubr
            -55 -138 -38 -104 7 -29 36 -15 47 1 38 138 return
          </CharString>
          <CharString index="213">
            26 21 16 33 -5 30 -9 303 callsubr
            return
          </CharString>
          <CharString index="214">
            2 100 58 50 287 callsubr
            -39 -2 return
          </CharString>
          <CharString index="215" raw="1">
            86f71f1d 0b  
          </CharString>
          <CharString index="216">
            -90 callgsubr
            30 return
          </CharString>
          <CharString index="217">
            273 callgsubr
            -2 -7 rcurveline
            -58 -48 -90 -39 -76 -36 return
          </CharString>
          <CharString index="218">
            66 422 callsubr
            return
          </CharString>
          <CharString index="219">
            rmoveto
            51 43 28 36 45 vvcurveto
            64 -55 85 -56 -49 -50 -39 -52 -26 vhcurveto
            12 -23 30 -35 19 -15 9 1 14 6 5 10 -15 38 rcurveline
            22 18 21 13 22 hhcurveto
            23 13 -13 -36 8 hvcurveto
            -18 -36 -24 -28 -35 -31 -152 -136 rcurveline
            1 -29 21 -33 20 -12 44 11 rcurveline
            151 -15 22 20 7 45 -9 16 rlinecurve
            -157 -16 -4 4 rlineto
            return
          </CharString>
          <CharString index="220">
            -126 -23 callgsubr
            rlinecurve
            39 return
          </CharString>
          <CharString index="221">
            hlineto
            303 callgsubr
            return
          </CharString>
          <CharString index="222">
            rmoveto
            203 callsubr
            4 -33 26 -31 35 -24 83 -16 rcurveline
            -40 -32 -50 -29 -41 -27 rrcurveto
            0 vlineto
            -59 -43 -53 -12 -55 -7 -19 4 -19 7 -16 262 callgsubr
            201 -54 7 callgsubr
            22 -38 -29 vvcurveto
            -25 -11 -24 -18 -22 vhcurveto
            return
          </CharString>
          <CharString index="223">
            500 callgsubr
            33 -26 24 -32 -33 -25 -24 -33 502 callsubr
            return
          </CharString>
          <CharString index="224">
            8 -5 rcurveline
            -50 -127 return
          </CharString>
          <CharString index="225">
            -5 43 -23 29 -39 7 -33 -14 -55 -19 -41 -5 -11 8 -8 11 -1 12 2 7 3 7 3 7 58 -14 rcurveline
            93 25 117 77 32 83 -10 61 -37 33 -38 -2 return
          </CharString>
          <CharString index="226">
            -99 callgsubr
            443 hlineto
            -9 -7 -7 -8 -5 -7 -5 -23 20 322 callgsubr
            33 31 44 21 35 hhcurveto
            24 22 -32 -25 2 hvcurveto
            -1 return
          </CharString>
          <CharString index="227">
            -246 -2 callsubr
            return
          </CharString>
          <CharString index="228">
            56 230 60 callsubr
            return
          </CharString>
          <CharString index="229">
            -14 -65 26 -33 41 -1 41 -1 29 27 28 return
          </CharString>
          <CharString index="230">
            hlineto
            44 -26 33 -23 16 -28 return
          </CharString>
          <CharString index="231">
            275 callgsubr
            -710 -378 rmoveto
            -30 10 -20 15 -17 26 23 16 26 12 28 9 5 -27 1 -26 -7 -28 rrcurveto
            946 421 -75 callsubr
            return
          </CharString>
          <CharString index="232">
            45 -64 25 15 9 15 10 13 9 21 21 13 29 return
          </CharString>
          <CharString index="233">
            65 -71 115 -123 86 -63 return
          </CharString>
          <CharString index="234">
            317 rmoveto
            -31 -31 -37 39 -35 41 -32 41 rlinecurve
            264 callsubr
            34 -4 25 -42 20 172 callgsubr
            38 -41 34 -32 231 callsubr
            463 462 rmoveto
            -113 35 callgsubr
            return
          </CharString>
          <CharString index="235">
            rmoveto
            10 45 50 55 43 5 34 -19 20 -43 6 -35 -16 -44 -35 -40 -42 -34 -31 26 -26 38 -13 46 rrcurveto
            return
          </CharString>
          <CharString index="236">
            -52 callsubr
            26 -9 return
          </CharString>
          <CharString index="237">
            289 callsubr
            12 14 return
          </CharString>
          <CharString index="238">
            -6 4 rcurveline
            10 16 164 callsubr
            1 -25 46 -30 48 -2 return
          </CharString>
          <CharString index="239">
            57 66 60 68 -38 callgsubr
            return
          </CharString>
          <CharString index="240">
            rmoveto
            -31 -31 -37 38 -35 42 -32 41 rlinecurve
            20 23 23 534 callgsubr
            19 -42 rrcurveto
            -171 -199 rmoveto
            -22 11 -15 215 callgsubr
            -33 -32 -33 -31 rrcurveto
            463 462 rmoveto
            -114 -83 callgsubr
            return
          </CharString>
          <CharString index="241">
            -22 17 -18 13 -16 19 -36 2 -34 -37 -11 -49 rrcurveto
            17 -7 23 -12 -18 vvcurveto
            -4 -41 -57 -63 -61 -15 -41 24 -16 51 -39 callsubr
            232 callgsubr
            -48 -6 -96 0 callgsubr
            35 -12 return
          </CharString>
          <CharString index="242">
            358 callgsubr
            16 52 17 72 15 78 402 callgsubr
            48 30 9 -6 rcurveline
            -102 -434 -71 callgsubr
            43 13 rlinecurve
            48 -33 callsubr
            378 -81 callsubr
          </CharString>
          <CharString index="243">
            8 callsubr
            358 callsubr
            return
          </CharString>
          <CharString index="244">
            -169 rmoveto
            -50 520 callsubr
            15 180 callgsubr
            return
          </CharString>
          <CharString index="245">
            5 -25 47 -30 43 -2 return
          </CharString>
          <CharString index="246">
            239 callgsubr
            -79 362 callsubr
            -2 31 rrcurveto
            -20 27 -24 521 callgsubr
            262 -107 callgsubr
          </CharString>
          <CharString index="247">
            -127 474 callgsubr
            return
          </CharString>
          <CharString index="248">
            -94 callsubr
            107 17 160 85 80 87 return
          </CharString>
          <CharString index="249">
            -24 44 -11 42 130 callgsubr
          </CharString>
          <CharString index="250" raw="1">
            f7330ab5 9819c4f8 430b 
          </CharString>
          <CharString index="251">
            1 20 1 25 -9 return
          </CharString>
          <CharString index="252">
            rmoveto
            -68 -60 -49 -58 -21 hvcurveto
            -64 -20 38 -43 63 hhcurveto
            67 61 50 57 21 hvcurveto
            66 23 -42 41 -62 hhcurveto
            -19 -35 rmoveto
            31 3 -31 -41 -11 hvcurveto
            -6 -25 -9 -22 -12 -16 rrcurveto
            -5 -8 -7 -5 -13 hhcurveto
            -31 -4 32 41 13 hvcurveto
            6 24 11 23 11 16 rrcurveto
            4 9 8 5 9 hhcurveto
            return
          </CharString>
          <CharString index="253">
            140 212 -56 callsubr
            return
          </CharString>
          <CharString index="254">
            -51 callsubr
            5 -17 return
          </CharString>
          <CharString index="255">
            77 callgsubr
            -101 16 return
          </CharString>
          <CharString index="256">
            -5 56 -25 47 -48 25 -19 5 -47 -1 -27 -6 return
          </CharString>
          <CharString index="257">
            51 44 48 252 callgsubr
            return
          </CharString>
          <CharString index="258">
            rmoveto
            -31 14 -15 31 38 vvcurveto
            28 10 28 15 25 vhcurveto
            28 -34 34 -36 27 -27 rrcurveto
            32 31 rmoveto
            -32 32 -30 35 -28 36 16 14 17 10 17 2 31 -6 17 -49 30 -36 rrcurveto
            72 123 484 callgsubr
            -22 -57 -89 -67 -66 -14 rrcurveto
            return
          </CharString>
          <CharString index="259">
            532 callsubr
            -60 -54 -61 495 callsubr
            1 124 64 117 111 46 43 -27 17 -31 23 -43 rrcurveto
            return
          </CharString>
          <CharString index="260">
            238 callsubr
            394 callgsubr
            return
          </CharString>
          <CharString index="261">
            54 49 468 callgsubr
            17 -30 7 468 callsubr
            -16 265 callgsubr
            116 hlineto
            13 -30 callsubr
            endchar
          </CharString>
          <CharString index="262">
            108 callgsubr
            40 rcurveline
            41 -49 49 -52 38 -39 -59 -37 -75 -40 -46 -23 rrcurveto
            return
          </CharString>
          <CharString index="263">
            rmoveto
            -15 12 -18 23 16 vvcurveto
            28 52 48 32 173 callsubr
            return
          </CharString>
          <CharString index="264">
            462 callsubr
            15 -77 52 -61 45 -6 93 -3 101 86 27 97 return
          </CharString>
          <CharString index="265">
            hlineto
            -28 -147 -6 273 callsubr
            -41 -1 rlinecurve
            return
          </CharString>
          <CharString index="266">
            253 callsubr
            -69 -296 -71 callgsubr
            return
          </CharString>
          <CharString index="267">
            32 221 callgsubr
            -32 return
          </CharString>
          <CharString index="268">
            32 4 40 365 callsubr
            45 31 8 -5 rcurveline
            -102 -434 -71 callgsubr
            43 13 rlinecurve
            48 -55 callgsubr
            -44 -32 -47 -31 -49 -29 14 73 13 73 13 74 -15 24 -42 16 -35 -2 return
          </CharString>
          <CharString index="269">
            39 28 2 hvcurveto
            return
          </CharString>
          <CharString index="270">
            -3 -7 rcurveline
            -47 -45 -136 -55 -68 -48 -18 -17 -10 -29 -3 -24 19 -69 91 -73 77 -2 rrcurveto
            68 141 77 54 2 hvcurveto
            2 33 -54 49 -66 2 -55 -39 -53 -34 -60 -45 -15 16 -10 19 -1 17 1 46 189 64 61 63 19 22 7 20 -8 20 return
          </CharString>
          <CharString index="271">
            7 27 -98 callsubr
            return
          </CharString>
          <CharString index="272">
            212 rmoveto
            -28 11 -17 14 -16 23 36 20 34 20 34 370 callgsubr
            return
          </CharString>
          <CharString index="273">
            hlineto
            26 -13 28 -16 16 296 callgsubr
            -24 -13 -22 -56 17 -27 return
          </CharString>
          <CharString index="274">
            258 callsubr
            42 13 rlinecurve
            57 431 539 callsubr
            115 -107 callsubr
            endchar
          </CharString>
          <CharString index="275">
            -2 -38 -53 -64 -54 -78 122 callsubr
            return
          </CharString>
          <CharString index="276">
            352 callgsubr
            -25 return
          </CharString>
          <CharString index="277">
            -71 callgsubr
            43 13 rlinecurve
            57 431 141 callgsubr
            return
          </CharString>
          <CharString index="278">
            18 15 20 5 53 -2 458 callgsubr
            65 43 rrcurveto
            278 150 rmoveto
            return
          </CharString>
          <CharString index="279">
            184 callgsubr
            5 -28 48 -38 49 -7 return
          </CharString>
          <CharString index="280">
            3 vhcurveto
            40 -6 19 -51 -53 vvcurveto
            -15 -3 -16 -5 return
          </CharString>
          <CharString index="281">
            rmoveto
            -32 286 callsubr
            32 return
          </CharString>
          <CharString index="282">
            253 callgsubr
            -32 9 return
          </CharString>
          <CharString index="283">
            -92 callgsubr
            93 hlineto
            161 callgsubr
            21 -22 36 477 callgsubr
            -5 -91 -261 -73 -79 vvcurveto
            -53 100 -78 58 63 121 86 89 77 vhcurveto
            return
          </CharString>
          <CharString index="284">
            rmoveto
            -586 -99 callgsubr
            244 123 callsubr
            -2 -8 rcurveline
            -78 -93 -254 return
          </CharString>
          <CharString index="285">
            31 8 -63 callgsubr
            -44 -32 return
          </CharString>
          <CharString index="286">
            rmoveto
            -329 -70 callsubr
            return
          </CharString>
          <CharString index="287">
            29 -24 43 -11 43 12 rlinecurve
            return
          </CharString>
          <CharString index="288">
            -6 rlinecurve
            -37 -42 37 27 2 hvcurveto
            23 57 220 95 5 127 -2 57 -56 76 347 callsubr
            22 -6 26 -5 28 -5 rrcurveto
            -82 -62 -119 -50 -55 vvcurveto
            -62 93 -71 71 65 103 return
          </CharString>
          <CharString index="289">
            rmoveto
            -30 11 -20 14 -17 27 23 15 26 12 27 9 6 -26 1 -27 -7 -28 rrcurveto
            return
          </CharString>
          <CharString index="290">
            rmoveto
            -5 -75 -87 -83 -108 106 callgsubr
            return
          </CharString>
          <CharString index="291">
            rlineto
            -62 callsubr
            18 180 37 206 35 409 callsubr
            return
          </CharString>
          <CharString index="292">
            -30 1 -37 32 -1 22 12 32 86 38 66 29 8 26 -14 49 -23 9 -96 -6 -106 4 -101 16 -20 -14 3 -54 27 -26 rrcurveto
            79 87 11 9 69 hvcurveto
            2 -7 rlineto
            -68 -35 -130 -40 -49 vvcurveto
            -52 83 -73 71 -3 vhcurveto
            return
          </CharString>
          <CharString index="293">
            rrcurveto
            -38 15 59 -24 45 hhcurveto
            66 132 callsubr
            return
          </CharString>
          <CharString index="294">
            rmoveto
            -581 -89 callgsubr
            return
          </CharString>
          <CharString index="295">
            rlineto
            -62 callsubr
            18 179 38 207 35 328 callgsubr
            -146 hlineto
            return
          </CharString>
          <CharString index="296">
            25 125 79 28 84 -10 61 -37 33 return
          </CharString>
          <CharString index="297">
            rmoveto
            14 9 8 15 4 14 -12 12 rcurveline
            return
          </CharString>
          <CharString index="298">
            18 -23 -2 -6 rcurveline
            -59 -41 -80 -28 -64 -30 rrcurveto
            -46 -31 -31 -34 -43 vvcurveto
            -67 74 -59 101 -20 vhcurveto
            123 6 121 78 109 vvcurveto
            -20 36 -54 33 -48 21 9 6 8 6 8 6 22 17 9 26 -3 26 return
          </CharString>
          <CharString index="299">
            -6 200 callgsubr
            return
          </CharString>
          <CharString index="300">
            -42 rrcurveto
            291 262 -41 callsubr
            return
          </CharString>
          <CharString index="301">
            -52 -51 -52 -51 -51 -50 123 callgsubr
            return
          </CharString>
          <CharString index="302">
            -35 -130 -41 -52 vvcurveto
            -53 return
          </CharString>
          <CharString index="303">
            rmoveto
            -10 -54 -67 -57 -79 -14 -33 11 -23 18 -13 20 -13 17 -6 15 4 17 11 32 68 29 68 36 37 -19 37 -25 19 -26 rrcurveto
            290 695 187 callsubr
            return
          </CharString>
          <CharString index="304">
            -64 callgsubr
            244 50 -101 callgsubr
            return
          </CharString>
          <CharString index="305">
            rmoveto
            25 -52 29 -74 21 -79 28 1 11 6 5 14 -24 59 -15 51 -5 60 13 10 rcurveline
            35 -9 29 -24 24 -30 203 callgsubr
            -53 -9 -21 -24 -21 -37 rrcurveto
            endchar
          </CharString>
          <CharString index="306">
            247 callgsubr
            25 -9 5 -17 -3 return
          </CharString>
          <CharString index="307">
            89 -75 7 vhcurveto
            -55 -1 -57 -40 -35 -42 rrcurveto
            649 hmoveto
            -100 callgsubr
            return
          </CharString>
          <CharString index="308">
            -1 hlineto
            -125 -55 -142 -49 -124 -51 rrcurveto
            -20 -17 -9 -26 478 callgsubr
            6 45 -2 49 -12 45 44 18 44 18 46 19 -5 -14 -5 -15 -3 -15 return
          </CharString>
          <CharString index="309">
            36 -11 27 -19 25 -33 203 callgsubr
            return
          </CharString>
          <CharString index="310">
            -2 -5 -1 -5 -4 vvcurveto
            return
          </CharString>
          <CharString index="311">
            136 callgsubr
            33 256 callsubr
            return
          </CharString>
          <CharString index="312">
            -92 callgsubr
            216 hlineto
            -76 -43 -77 -52 -43 -51 -6 -40 36 -41 41 -16 54 6 39 14 39 12 5 -6 rcurveline
            -62 -47 -75 -47 -45 -67 rrcurveto
            -41 45 -34 54 -15 vhcurveto
            return
          </CharString>
          <CharString index="313">
            -42 rlinecurve
            -8 -27 10 -22 43 -22 93 52 116 24 callgsubr
            115 -107 callsubr
            endchar
          </CharString>
          <CharString index="314">
            364 rmoveto
            -47 -73 -115 -82 -50 -10 -37 1 -36 30 1 22 rrcurveto
            18 45 206 83 102 vvcurveto
            -13 return
          </CharString>
          <CharString index="315">
            29 callsubr
            46 -10 42 return
          </CharString>
          <CharString index="316">
            rmoveto
            -14 12 -19 23 16 vvcurveto
            28 53 48 31 348 callgsubr
            return
          </CharString>
          <CharString index="317">
            403 rmoveto
            0 vlineto
            -56 -92 -127 -96 -57 -9 rrcurveto
            -34 return
          </CharString>
          <CharString index="318">
            48 4 8 rcurveline
            return
          </CharString>
          <CharString index="319">
            rmoveto
            -424 -99 callgsubr
            423 -107 callgsubr
          </CharString>
          <CharString index="320" raw="1">
            f7081da8 f7f11d0b  
          </CharString>
          <CharString index="321">
            26 -86 55 -64 81 -67 33 9 19 26 callgsubr
            -18 335 callsubr
            return
          </CharString>
          <CharString index="322">
            hlineto
            245 50 -101 callgsubr
            return
          </CharString>
          <CharString index="323">
            30 -75 31 vhcurveto
            2 7 81 9 64 15 return
          </CharString>
          <CharString index="324">
            -2 -147 -46 -127 -148 -30 -79 return
          </CharString>
          <CharString index="325">
            hlineto
            14 -98 503 callsubr
            -4 -26 rlinecurve
            return
          </CharString>
          <CharString index="326">
            -52 120 -12 76 -47 rrcurveto
            -7 vlineto
            return
          </CharString>
          <CharString index="327">
            14 rrcurveto
            -15 27 35 -19 return
          </CharString>
          <CharString index="328">
            rmoveto
            -50 -52 -51 -52 120 callgsubr
            return
          </CharString>
          <CharString index="329">
            3 32 -5 18 -38 -1 -40 -30 -43 -21 -53 -17 17 154 16 126 12 129 rrcurveto
            endchar
          </CharString>
          <CharString index="330">
            222 rmoveto
            -28 -59 -40 -42 -64 -10 -47 36 -24 65 -8 73 -36 15 -33 -14 -25 -39 rrcurveto
            -87 24 83 -98 59 hhcurveto
            85 87 60 59 39 hvcurveto
            -11 33 -28 18 -33 -10 rrcurveto
            endchar
          </CharString>
          <CharString index="331">
            204 callgsubr
            -21 10 -14 -49 callsubr
            26 -4 27 -38 20 -43 rrcurveto
            return
          </CharString>
          <CharString index="332">
            -123 -103 -133 -126 -89 62 -57 101 -4 hvcurveto
            return
          </CharString>
          <CharString index="333">
            57 221 100 6 130 -3 539 callgsubr
            return
          </CharString>
          <CharString index="334">
            rrcurveto
            141 10 callsubr
            return
          </CharString>
          <CharString index="335">
            34 -16 31 -82 44 -38 538 callgsubr
            return
          </CharString>
          <CharString index="336">
            -41 -23 -28 -26 hvcurveto
            -3 -40 30 -29 60 -20 return
          </CharString>
          <CharString index="337">
            -18 vhcurveto
            147 7 147 100 return
          </CharString>
          <CharString index="338">
            503 callgsubr
            -33 -32 rrcurveto
            return
          </CharString>
          <CharString index="339">
            54 -88 91 -51 48 return
          </CharString>
          <CharString index="340">
            rmoveto
            300 callsubr
            77 65 128 117 66 63 -30 33 rcurveline
            return
          </CharString>
          <CharString index="341">
            -81 -21 rrcurveto
            317 196 rmoveto
            -11 38 -8 36 4 26 3 13 return
          </CharString>
          <CharString index="342">
            3 339 callgsubr
            return
          </CharString>
          <CharString index="343">
            -312 112 359 11 callgsubr
            return
          </CharString>
          <CharString index="344">
            -101 callgsubr
            -466 hlineto
            -21 42 -41 39 -46 2 return
          </CharString>
          <CharString index="345">
            429 callgsubr
            21 16 250 callgsubr
            return
          </CharString>
          <CharString index="346">
            -220 rmoveto
            -30 11 -19 15 -17 25 25 14 25 15 26 15 7 -28 0 -29 -7 -31 rrcurveto
            return
          </CharString>
          <CharString index="347">
            -62 21 -62 -75 -61 -101 -58 234 callsubr
            7 9 9 262 callsubr
            return
          </CharString>
          <CharString index="348">
            -64 -82 -116 -98 -117 -42 -7 8 rcurveline
            42 55 63 56 60 48 rrcurveto
            47 -30 30 -36 7 vhcurveto
            -44 -14 -37 -12 -44 -7 -6 10 rcurveline
            50 55 88 63 82 47 rrcurveto
            return
          </CharString>
          <CharString index="349">
            8 -29 36 507 callsubr
            -29 45 -45 15 -33 -7 -23 -28 -65 -79 -47 -50 -49 12 -46 39 -12 45 41 71 176 72 67 58 return
          </CharString>
          <CharString index="350">
            175 callgsubr
            176 467 callgsubr
            12 34 -8 537 callsubr
            -30 19 rrcurveto
            241 -107 callgsubr
          </CharString>
          <CharString index="351">
            387 callgsubr
            58 -102 callsubr
          </CharString>
          <CharString index="352">
            101 callsubr
            -77 -93 -254 -54 -119 vvcurveto
            -87 return
          </CharString>
          <CharString index="353">
            83 94 73 121 vvcurveto
            75 -56 57 -103 309 callsubr
          </CharString>
          <CharString index="354">
            rmoveto
            28 31 4 26 -16 9 -150 -16 rcurveline
            -161 5 -21 -28 -4 -20 14 -15 rlinecurve
            return
          </CharString>
          <CharString index="355">
            380 -101 callgsubr
            return
          </CharString>
          <CharString index="356">
            50 6 6 rcurveline
            21 -16 24 -16 25 -11 76 -8 return
          </CharString>
          <CharString index="357">
            68 13 56 14 63 67 130 rcurveline
            169 hlineto
            return
          </CharString>
          <CharString index="358">
            -5 273 callsubr
            -42 -1 rlinecurve
            return
          </CharString>
          <CharString index="359">
            -8 358 callgsubr
            return
          </CharString>
          <CharString index="360">
            49 299 callsubr
            return
          </CharString>
          <CharString index="361">
            rmoveto
            35 93 -21 25 -75 8 -41 -9 rlinecurve
            -56 -107 5 -10 32 -4 14 5 rlinecurve
            39 52 10 -5 -20 -46 -66 -291 24 -15 41 -3 28 4 rlinecurve
            8 101 rlineto
            return
          </CharString>
          <CharString index="362">
            vvcurveto
            -20 36 -53 34 -48 21 8 5 8 6 8 6 21 18 10 26 -3 25 -12 18 -17 16 -20 14 rrcurveto
            250 -107 callgsubr
          </CharString>
          <CharString index="363">
            11 31 8 -6 -27 -8 -26 -10 -23 rrcurveto
            return
          </CharString>
          <CharString index="364">
            vvcurveto
            -84 107 -86 108 -9 vhcurveto
            75 4 return
          </CharString>
          <CharString index="365">
            34 9 18 26 callgsubr
            -17 64 494 callsubr
            119 43 82 159 callsubr
            return
          </CharString>
          <CharString index="366">
            -96 388 335 rmoveto
            -10 -54 -67 -57 -80 -14 -32 10 -23 19 -13 20 -13 17 -6 14 4 18 11 31 68 29 68 37 37 -19 38 -25 18 -26 rrcurveto
            return
          </CharString>
          <CharString index="367">
            rmoveto
            -23 9 -22 14 -17 30 21 9 21 7 21 8 9 -22 4 -27 -6 -24 rrcurveto
            return
          </CharString>
          <CharString index="368">
            167 556 rmoveto
            27 55 433 callsubr
            28 -5 22 -37 -28 vvcurveto
            -26 -12 -24 -20 -22 vhcurveto
            -33 7 -30 8 -21 10 rrcurveto
            -10 10 -11 17 12 vvcurveto
            return
          </CharString>
          <CharString index="369">
            3 19 -8 24 -21 2 -15 -4 -23 -18 -28 -27 -30 rrcurveto
            return
          </CharString>
          <CharString index="370">
            23 -22 19 -25 15 rrcurveto
            return
          </CharString>
          <CharString index="371">
            21 23 22 14 23 2 return
          </CharString>
          <CharString index="372">
            69 callsubr
            43 46 83 callsubr
            return
          </CharString>
          <CharString index="373">
            5 51 473 callsubr
            48 -36 50 -17 78 16 114 61 95 72 6 -23 5 -23 2 -23 -34 -53 return
          </CharString>
          <CharString index="374">
            vvcurveto
            84 -67 52 callgsubr
          </CharString>
          <CharString index="375">
            211 -5 callsubr
            -28 2 -29 -8 -31 rrcurveto
            return
          </CharString>
          <CharString index="376">
            -22 -39 hhcurveto
            -14 -14 3 5 -15 hvcurveto
            63 52 47 57 52 vvcurveto
            51 -69 104 -68 return
          </CharString>
          <CharString index="377">
            -19 rmoveto
            -35 -6 -17 -24 2 -47 126 -36 83 -42 99 -73 21 10 8 11 return
          </CharString>
          <CharString index="378" raw="1">
            871e5b0a 0b  
          </CharString>
          <CharString index="379">
            -20 -3 -22 -7 -20 -6 3 -6 3 -6 2 return
          </CharString>
          <CharString index="380">
            -3 -25 44 -33 44 return
          </CharString>
          <CharString index="381">
            6 2 26 -36 39 -24 75 -20 rlinecurve
            64 30 39 37 22 36 5 24 -25 16 -31 -6 -62 -75 rcurveline
            251 callgsubr
            return
          </CharString>
          <CharString index="382">
            114 callsubr
            -6 -72 callgsubr
            -76 -108 -72 -89 -14 return
          </CharString>
          <CharString index="383">
            528 callgsubr
            34 -9 rrcurveto
            33 31 45 21 34 hhcurveto
            24 23 525 callsubr
            return
          </CharString>
          <CharString index="384">
            161 callgsubr
            21 -22 36 -9 34 27 32 18 35 1 return
          </CharString>
          <CharString index="385">
            -325 rmoveto
            151 callgsubr
            return
          </CharString>
          <CharString index="386">
            216 callsubr
            58 30 rlinecurve
            return
          </CharString>
          <CharString index="387">
            -6 -95 63 428 callsubr
            6 96 return
          </CharString>
          <CharString index="388">
            -39 38 -42 48 -36 47 20 40 rcurveline
            return
          </CharString>
          <CharString index="389">
            319 callsubr
            -27 return
          </CharString>
          <CharString index="390">
            15 -23 -9 -9 rlineto
            89 -78 -93 88 return
          </CharString>
          <CharString index="391">
            61 67 130 rcurveline
            143 hlineto
            return
          </CharString>
          <CharString index="392">
            28 rlinecurve
            36 -4 20 -26 -38 vvcurveto
            return
          </CharString>
          <CharString index="393">
            -25 -25 -31 -31 25 -25 return
          </CharString>
          <CharString index="394">
            52 -3 46 -24 20 return
          </CharString>
          <CharString index="395">
            rmoveto
            -27 10 -19 14 return
          </CharString>
          <CharString index="396">
            2 15 6 13 return
          </CharString>
          <CharString index="397">
            470 callsubr
            -54 257 callgsubr
            39 502 callgsubr
            44 106 264 callgsubr
            -25 -28 return
          </CharString>
          <CharString index="398">
            4 8 callsubr
            return
          </CharString>
          <CharString index="399">
            -44 50 -10 36 -7 74 -26 25 -19 7 -33 -1 -60 -37 441 callsubr
            -25 20 -30 58 5 vhcurveto
            23 77 32 58 48 41 return
          </CharString>
          <CharString index="400">
            166 callgsubr
            -12 12 rcurveline
            -166 hlineto
            27 76 31 return
          </CharString>
          <CharString index="401">
            74 591 374 rmoveto
            -254 -16 -255 4 -22 -28 -4 -29 15 -15 rlinecurve
            504 8 28 32 4 34 -16 10 rlinecurve
            endchar
          </CharString>
          <CharString index="402" raw="1">
            15f81f1d 0b  
          </CharString>
          <CharString index="403">
            -7 -7 -8 419 callsubr
            return
          </CharString>
          <CharString index="404">
            27 331 callsubr
            return
          </CharString>
          <CharString index="405">
            -20 27 -23 521 callgsubr
            return
          </CharString>
          <CharString index="406">
            6 -9 rcurveline
            -26 -33 return
          </CharString>
          <CharString index="407">
            -423 -90 callgsubr
            return
          </CharString>
          <CharString index="408">
            -59 -36 -154 -95 callsubr
          </CharString>
          <CharString index="409">
            371 callsubr
            -57 -30 -55 -29 return
          </CharString>
          <CharString index="410">
            18 -13 14 -17 12 rrcurveto
            return
          </CharString>
          <CharString index="411">
            -25 -25 -32 -30 25 -25 return
          </CharString>
          <CharString index="412">
            -19 15 -18 26 return
          </CharString>
          <CharString index="413">
            227 callgsubr
            5 -28 48 432 callsubr
            471 callsubr
            -3 -17 -4 return
          </CharString>
          <CharString index="414">
            -43 5 -86 26 -26 22 3 8 rcurveline
            38 18 126 24 60 33 25 21 12 32 -4 26 -19 263 callsubr
            return
          </CharString>
          <CharString index="415">
            -72 callsubr
            -118 541 callgsubr
            return
          </CharString>
          <CharString index="416">
            -8 vhcurveto
            194 callsubr
            335 -107 callgsubr
          </CharString>
          <CharString index="417" raw="1">
            1a33cb5f e4f7a30a 0b 
          </CharString>
          <CharString index="418">
            -83 -120 -77 -108 -41 rlinecurve
            -8 -27 11 -22 42 -22 94 52 return
          </CharString>
          <CharString index="419">
            422 callgsubr
            112 62 121 92 79 101 rrcurveto
            return
          </CharString>
          <CharString index="420">
            -83 -84 -120 -75 return
          </CharString>
          <CharString index="421">
            hhcurveto
            -108 -73 -148 382 callgsubr
            return
          </CharString>
          <CharString index="422">
            4 -180 90 -160 226 -39 272 24 120 175 34 183 -19 201 -50 146 -260 38 return
          </CharString>
          <CharString index="423">
            357 rmoveto
            35 44 27 36 24 hvcurveto
            38 -6 -36 44 -28 hhcurveto
            -40 -5 -40 -47 -6 -43 rrcurveto
            -29 4 22 -21 27 hhcurveto
            return
          </CharString>
          <CharString index="424">
            39 callgsubr
            -3 -60 -96 -50 -76 -47 rrcurveto
            0 vlineto
            -1 -1 return
          </CharString>
          <CharString index="425">
            -127 202 callgsubr
          </CharString>
          <CharString index="426">
            hlineto
            -31 -147 -3 -2 rlineto
            40 return
          </CharString>
          <CharString index="427">
            5 36 18 15 20 6 53 -3 return
          </CharString>
          <CharString index="428">
            57 51 56 45 51 9 -8 rcurveline
            return
          </CharString>
          <CharString index="429">
            -15 23 -27 21 return
          </CharString>
          <CharString index="430">
            -1 rlinecurve
            -59 6 -73 89 -42 50 5 8 rcurveline
            127 6 168 113 108 vvcurveto
            21 -13 27 -20 23 vhcurveto
            return
          </CharString>
          <CharString index="431">
            -9 rrcurveto
            30 31 43 25 45 hhcurveto
            25 122 callgsubr
            -18 2 -17 4 -13 8 return
          </CharString>
          <CharString index="432">
            rmoveto
            -50 -52 -51 -52 59 callgsubr
            32 -4 27 -39 19 -42 rrcurveto
            return
          </CharString>
          <CharString index="433">
            -73 21 10 8 329 callsubr
            return
          </CharString>
          <CharString index="434">
            621 -75 callsubr
            return
          </CharString>
          <CharString index="435">
            321 callgsubr
            -40 hhcurveto
            -7 return
          </CharString>
          <CharString index="436">
            11 -2 15 -69 335 callgsubr
            return
          </CharString>
          <CharString index="437">
            13 22 22 18 67 16 67 15 67 47 29 return
          </CharString>
          <CharString index="438">
            30 12 418 callsubr
            return
          </CharString>
          <CharString index="439">
            456 callsubr
            56 44 return
          </CharString>
          <CharString index="440">
            21 -39 -3 -31 -44 -53 -45 -66 -12 return
          </CharString>
          <CharString index="441">
            hlineto
            43 -25 41 -26 18 -28 return
          </CharString>
          <CharString index="442">
            64 235 callsubr
            return
          </CharString>
          <CharString index="443">
            338 callsubr
            38 return
          </CharString>
          <CharString index="444">
            79 89 11 10 69 hvcurveto
            return
          </CharString>
          <CharString index="445">
            21 37 vhcurveto
            29 -38 return
          </CharString>
          <CharString index="446">
            -3 -6 -30 rcurveline
            return
          </CharString>
          <CharString index="447">
            -106 -42 rlinecurve
            -8 -27 11 -22 42 -22 94 52 115 82 56 55 callgsubr
            return
          </CharString>
          <CharString index="448">
            -89 callgsubr
            104 hlineto
            -35 -118 -29 -112 -29 -119 127 callgsubr
            return
          </CharString>
          <CharString index="449">
            -97 callsubr
            -416 -99 callgsubr
            417 hlineto
            return
          </CharString>
          <CharString index="450">
            -74 -90 -69 -6 -27 12 -22 50 -14 58 61 92 66 69 41 -22 -62 -21 -62 -14 -45 7 -29 37 -14 return
          </CharString>
          <CharString index="451">
            169 callsubr
            58 410 callgsubr
            return
          </CharString>
          <CharString index="452">
            -43 callgsubr
            endchar
          </CharString>
          <CharString index="453">
            -18 rcurveline
            -36 -58 -69 -45 -68 -8 -16 2 -15 5 -15 7 return
          </CharString>
          <CharString index="454">
            -65 3 -81 -2 -87 -92 -5 -53 4 -33 25 -31 36 -24 return
          </CharString>
          <CharString index="455">
            hhcurveto
            25 23 -33 -25 return
          </CharString>
          <CharString index="456">
            54 60 57 63 50 return
          </CharString>
          <CharString index="457">
            24 -42 16 -36 -2 return
          </CharString>
          <CharString index="458">
            -78 -46 32 -39 return
          </CharString>
          <CharString index="459">
            -123 85 -61 return
          </CharString>
          <CharString index="460">
            48 55 48 387 callsubr
            return
          </CharString>
          <CharString index="461">
            34 callsubr
            271 248 rmoveto
            return
          </CharString>
          <CharString index="462">
            19 rrcurveto
            285 -107 callgsubr
          </CharString>
          <CharString index="463">
            41 59 65 71 55 45 11 43 -23 34 return
          </CharString>
          <CharString index="464">
            -8 rcurveline
            -78 -93 -254 -54 -119 vvcurveto
            return
          </CharString>
          <CharString index="465">
            -27 15 -15 38 -10 42 return
          </CharString>
          <CharString index="466">
            351 callsubr
            51 -1 return
          </CharString>
          <CharString index="467">
            -30 399 callgsubr
            return
          </CharString>
          <CharString index="468">
            hlineto
            203 callsubr
            3 -32 37 -47 34 415 callgsubr
            return
          </CharString>
          <CharString index="469">
            122 callsubr
            38 27 65 99 callgsubr
            return
          </CharString>
          <CharString index="470">
            249 callsubr
            69 27 42 372 callsubr
            return
          </CharString>
          <CharString index="471">
            rmoveto
            391 callsubr
            return
          </CharString>
          <CharString index="472">
            330 callsubr
            46 29 return
          </CharString>
          <CharString index="473">
            hhcurveto
            -108 -73 -129 359 callsubr
            hvcurveto
            return
          </CharString>
          <CharString index="474">
            rmoveto
            -522 71 callgsubr
            return
          </CharString>
          <CharString index="475">
            118 7 98 69 64 vvcurveto
            27 -20 18 -31 14 vhcurveto
            return
          </CharString>
          <CharString index="476">
            -12 61 -31 22 -11 -3 -7 rcurveline
            return
          </CharString>
          <CharString index="477">
            -2 -24 -24 -38 -31 -38 -27 rrcurveto
            return
          </CharString>
          <CharString index="478">
            519 callgsubr
            -56 -31 return
          </CharString>
          <CharString index="479">
            28 rrcurveto
            39 34 27 38 35 vvcurveto
            return
          </CharString>
          <CharString index="480">
            -51 -52 -51 -51 -50 -8 8 rcurveline
            return
          </CharString>
          <CharString index="481">
            -39 35 -46 43 -22 47 5 return
          </CharString>
          <CharString index="482">
            -14 -7 -26 -1 -28 29 -52 return
          </CharString>
          <CharString index="483">
            17 17 21 11 34 12 48 return
          </CharString>
          <CharString index="484">
            -8 1 -12 -3 -13 -13 -17 return
          </CharString>
          <CharString index="485">
            108 54 5 hvcurveto
            return
          </CharString>
          <CharString index="486">
            -13 -27 callgsubr
            return
          </CharString>
          <CharString index="487">
            rmoveto
            -29 10 -19 15 -18 25 75 476 callsubr
            return
          </CharString>
          <CharString index="488">
            hhcurveto
            -7 -9 408 callsubr
            return
          </CharString>
          <CharString index="489">
            212 -20 callsubr
            return
          </CharString>
          <CharString index="490">
            45 callsubr
            289 callsubr
            return
          </CharString>
          <CharString index="491">
            683 vmoveto
            31 221 callgsubr
            -31 529 callgsubr
          </CharString>
          <CharString index="492">
            151 58 216 45 111 rrcurveto
            -29 45 -46 15 -32 -7 -23 -28 -65 -78 -48 -51 return
          </CharString>
          <CharString index="493">
            28 -63 45 -48 458 callsubr
            459 callgsubr
            -19 8 -34 return
          </CharString>
          <CharString index="494">
            50 45 rlinecurve
            39 -10 17 111 callgsubr
            36 -38 rlineto
            112 83 return
          </CharString>
          <CharString index="495">
            75 693 rmoveto
            25 20 21 23 26 -20 20 -25 -25 -20 -20 -26 -23 20 -21 25 hvcurveto
            return
          </CharString>
          <CharString index="496">
            21 15 33 -5 30 -8 303 callsubr
            return
          </CharString>
          <CharString index="497">
            257 callsubr
            78 27 return
          </CharString>
          <CharString index="498">
            -31 15 -15 35 40 vvcurveto
            98 62 314 callgsubr
            return
          </CharString>
          <CharString index="499">
            218 callsubr
            -57 -32 return
          </CharString>
          <CharString index="500">
            195 callgsubr
            70 -3 vhcurveto
            return
          </CharString>
          <CharString index="501">
            10 27 34 -16 31 -82 44 -38 64 return
          </CharString>
          <CharString index="502">
            -100 -264 -72 -80 vvcurveto
            -56 100 -77 return
          </CharString>
          <CharString index="503">
            11 34 10 45 9 48 return
          </CharString>
          <CharString index="504" raw="1">
            dc94cb9a c5a90b  
          </CharString>
          <CharString index="505">
            1 34 21 24 vvcurveto
            return
          </CharString>
          <CharString index="506">
            12 -97 -6 -107 4 return
          </CharString>
          <CharString index="507">
            -37 -86 -20 -83 -21 return
          </CharString>
          <CharString index="508">
            18 35 1 20 1 return
          </CharString>
          <CharString index="509">
            -28 -59 -40 -41 -64 -11 -47 37 -24 64 -8 74 -36 14 -32 -14 -26 -38 rrcurveto
            -88 return
          </CharString>
          <CharString index="510">
            rmoveto
            -27 13 -24 22 -17 29 36 18 36 15 36 11 -8 -37 -10 -35 -12 -30 rrcurveto
            return
          </CharString>
          <CharString index="511">
            rmoveto
            43 65 83 69 456 callgsubr
            -57 -89 -67 -66 -14 rrcurveto
            return
          </CharString>
          <CharString index="512">
            8 37 15 31 -20 45 -17 27 -8 29 2 30 5 31 9 rrcurveto
            -56 6 96 -72 return
          </CharString>
          <CharString index="513">
            524 callsubr
            36 21 -11 -39 287 callgsubr
            return
          </CharString>
          <CharString index="514">
            hhcurveto
            -15 6 -18 7 -16 9 rrcurveto
            77 46 62 70 62 vvcurveto
            21 -13 27 -22 23 vhcurveto
            return
          </CharString>
          <CharString index="515">
            -43 callsubr
            194 hlineto
            return
          </CharString>
          <CharString index="516">
            180 rrcurveto
            142 10 callsubr
            -146 hlineto
            55 return
          </CharString>
          <CharString index="517">
            2 -36 -35 -49 -23 -51 -8 -81 18 -46 50 -6 50 22 69 84 42 50 3 return
          </CharString>
          <CharString index="518">
            -21 -14 -7 -25 -2 -29 29 -52 53 -25 58 -9 33 5 36 17 21 21 7 return
          </CharString>
          <CharString index="519">
            102 callsubr
            33 -1 36 8 36 220 callsubr
            20 hhcurveto
            return
          </CharString>
          <CharString index="520">
            75 callsubr
            -89 -14 return
          </CharString>
          <CharString index="521">
            3 callsubr
            -40 -59 return
          </CharString>
          <CharString index="522">
            -8 -45 -12 -34 -15 -43 -14 -51 -6 -34 -2 return
          </CharString>
          <CharString index="523" raw="1">
            8d9218f8 210aa5a0 0b 
          </CharString>
          <CharString index="524">
            rrcurveto
            -40 16 59 -23 45 hhcurveto
            return
          </CharString>
          <CharString index="525">
            34 -9 537 callsubr
            return
          </CharString>
          <CharString index="526">
            -5 -23 21 -23 34 -9 rrcurveto
            return
          </CharString>
          <CharString index="527">
            -30 6 468 callsubr
            return
          </CharString>
          <CharString index="528">
            7 -47 -2 -26 -38 -10 -47 return
          </CharString>
          <CharString index="529">
            -73 120 -123 return
          </CharString>
          <CharString index="530">
            vvcurveto
            -89 62 -57 101 -4 vhcurveto
            414 callsubr
            return
          </CharString>
          <CharString index="531">
            -43 -65 -281 -23 callgsubr
            rlinecurve
            57 431 141 callgsubr
            return
          </CharString>
          <CharString index="532">
            507 callgsubr
            50 44 49 68 6 63 return
          </CharString>
          <CharString index="533">
            -99 callgsubr
            179 hlineto
            13 -95 -2 -30 -3 return
          </CharString>
          <CharString index="534">
            -27 -21 -21 -26 -25 21 -21 27 return
          </CharString>
          <CharString index="535">
            -103 79 -7 440 callsubr
            return
          </CharString>
          <CharString index="536">
            540 callsubr
            35 4 return
          </CharString>
          <CharString index="537">
            30 5 17 14 -1 24 return
          </CharString>
          <CharString index="538">
            10 536 callsubr
            return
          </CharString>
          <CharString index="539">
            -38 49 -7 90 39 rcurveline
            return
          </CharString>
          <CharString index="540">
            48 32 3 vhcurveto
            return
          </CharString>
          <CharString index="541">
            10 27 228 callsubr
            49 68 48 14 return
          </CharString>
          <CharString index="542">
            471 callsubr
            -3 302 callsubr
            return
          </CharString>
          <CharString index="543">
            -42 99 326 callsubr
            return
          </CharString>
          <CharString index="544">
            -22 9 -25 47 -24 78 40 111 82 return
          </CharString>
          <CharString index="545">
            219 callgsubr
            rrcurveto
            return
          </CharString>
          <CharString index="546">
            -43 -46 -69 rrcurveto
            -39 45 -40 54 -15 vhcurveto
            return
          </CharString>
          <CharString index="547">
            64 -2 138 87 return
          </CharString>
          <CharString index="548">
            -57 -71 -47 -75 rrcurveto
            return
          </CharString>
          <CharString index="549">
            -24 rcurveline
            -14 4 return
          </CharString>
          <CharString index="550">
            367 callsubr
            266 hlineto
            return
          </CharString>
          <CharString index="551">
            -44 vhcurveto
            -55 -25 -67 -19 -71 -8 -25 -22 11 -34 43 -23 76 14 return
          </CharString>
          <CharString index="552">
            501 callsubr
            22 -32 -2 -8 rcurveline
            -62 400 callsubr
            return
          </CharString>
          <CharString index="553">
            -63 -95 -74 vhcurveto
            35 -38 rlineto
            113 83 94 73 121 vvcurveto
            75 return
          </CharString>
          <CharString index="554">
            21 3 28 -4 35 -64 20 -45 -13 -9 -11 -13 -7 -16 rrcurveto
            return
          </CharString>
          <CharString index="555">
            42 57 7 59 -1 53 -6 rrcurveto
            -7 -10 -4 -9 -10 vvcurveto
            -56 return
          </CharString>
          <CharString index="556">
            3 -5 466 callsubr
            rlinecurve
            -59 6 -73 89 -41 50 return
          </CharString>
          <CharString index="557">
            -32 -52 -32 -41 -22 hvcurveto
            4 -42 37 -19 58 -9 37 56 rcurveline
            return
          </CharString>
          <CharString index="558">
            5 497 callsubr
            return
          </CharString>
          <CharString index="559">
            -19 376 callgsubr
            30 return
          </CharString>
          <CharString index="560">
            -52 373 callsubr
            return
          </CharString>
          <CharString index="561">
            3 rlinecurve
            -1 -3 0 -3 -3 vvcurveto
            -56 return
          </CharString>
          <CharString index="562">
            -3 -2 rlineto
            40 -27 -30 46 -36 hhcurveto
            return
          </CharString>
          <CharString index="563">
            -22 465 callsubr
            return
          </CharString>
          <CharString index="564">
            68 126 69 120 31 return
          </CharString>
          <CharString index="565">
            430 callsubr
            -44 return
          </CharString>
          <CharString index="566">
            rmoveto
            -31 15 -15 36 40 vvcurveto
            return
          </CharString>
          <CharString index="567">
            vvcurveto
            -90 62 -57 101 -4 vhcurveto
            return
          </CharString>
          <CharString index="568">
            14 -18 28 38 22 37 21 return
          </CharString>
          <CharString index="569">
            -19 11 -29 -8 -27 -23 return
          </CharString>
          <CharString index="570">
            -6 -4 -6 -3 -6 -3 return
          </CharString>
          <CharString index="571">
            -1 -55 -40 -34 -42 rrcurveto
            return
          </CharString>
          <CharString index="572">
            -2 -30 39 -29 54 -4 return
          </CharString>
          <CharString index="573">
            -47 -26 -89 -44 -52 -1 return
          </CharString>
          <CharString index="574">
            -10 53 -54 45 -65 -36 return
          </CharString>
          <CharString index="575">
            -34 -7 -22 -12 -19 return
          </CharString>
          <CharString index="576">
            31 37 7 -4 rcurveline
            return
          </CharString>
          <CharString index="577">
            7 -5 rcurveline
            -26 -67 return
          </CharString>
          <CharString index="578">
            5 -8 -17 -28 return
          </CharString>
          <CharString index="579">
            55 callgsubr
            43 12 rlinecurve
            return
          </CharString>
          <CharString index="580">
            17 36 11 5 -6 rcurveline
            -64 -43 -67 -70 -43 -72 -1 -45 return
          </CharString>
          <CharString index="581">
            hlineto
            -39 -170 -62 -93 -112 -84 -59 -7 rlinecurve
            -30 1 return
          </CharString>
          <CharString index="582">
            374 callgsubr
            53 514 callsubr
            return
          </CharString>
          <CharString index="583">
            45 rcurveline
            7 -28 2 -29 -8 -31 rrcurveto
            540 403 rmoveto
            return
          </CharString>
          <CharString index="584">
            50 280 callgsubr
            return
          </CharString>
          <CharString index="585">
            rcurveline
            -64 5 -58 -2 -54 -7 13 77 10 81 8 69 rrcurveto
            return
          </CharString>
          <CharString index="586">
            -60 62 -38 61 return
          </CharString>
          <CharString index="587">
            -76 -108 -72 return
          </CharString>
          <CharString index="588">
            rmoveto
            -119 35 callgsubr
            return
          </CharString>
          <CharString index="589">
            -89 callgsubr
            436 hlineto
            return
          </CharString>
          <CharString index="590">
            674 rmoveto
            14 -11 21 -4 21 3 58 156 rcurveline
            return
          </CharString>
          <CharString index="591">
            71 56 45 10 43 -22 34 -52 18 -41 -10 -49 -15 return
          </CharString>
          <CharString index="592">
            17 61 236 callgsubr
            144 hlineto
            -35 -152 -69 return
          </CharString>
          <CharString index="593">
            -39 callgsubr
            4 -17 return
          </CharString>
          <CharString index="594">
            hhcurveto
            -40 -39 -22 -26 -19 hvcurveto
            -3 -42 30 -24 55 -16 return
          </CharString>
          <CharString index="595">
            rmoveto
            -575 -99 callgsubr
            return
          </CharString>
          <CharString index="596">
            rmoveto
            -330 356 callgsubr
            return
          </CharString>
          <CharString index="597">
            -15 24 -42 16 -35 370 callsubr
            return
          </CharString>
          <CharString index="598">
            -48 vvcurveto
            -50 48 -42 80 55 50 22 46 37 vhcurveto
            23 return
          </CharString>
          <CharString index="599">
            40 65 522 callsubr
            return
          </CharString>
          <CharString index="600">
            -56 100 -77 59 163 callgsubr
            return
          </CharString>
          <CharString index="601">
            130 callsubr
            64 17 return
          </CharString>
          <CharString index="602">
            -57 536 callgsubr
            return
          </CharString>
          <CharString index="603">
            514 callgsubr
            -91 -30 return
          </CharString>
          <CharString index="604">
            rcurveline
            30 65 30 65 29 65 rrcurveto
            return
          </CharString>
          <CharString index="605">
            60 68 63 7 -7 rcurveline
            -22 -43 return
          </CharString>
          <CharString index="606">
            23 -18 23 -22 17 return
          </CharString>
          <CharString index="607">
            4 -11 13 -5 8 return
          </CharString>
          <CharString index="608">
            hlineto
            38 -18 44 -20 return
          </CharString>
          <CharString index="609">
            -31 25 -26 33 hvcurveto
            return
          </CharString>
          <CharString index="610">
            -2 -28 -3 -28 return
          </CharString>
          <CharString index="611">
            -59 6 -23 -32 -6 -41 22 -29 38 -21 39 -12 return
          </CharString>
          <CharString index="612">
            -3 43 -23 333 callsubr
            return
          </CharString>
          <CharString index="613">
            -16 -14 vvcurveto
            164 -211 rlineto
            32 26 46 45 return
          </CharString>
          <CharString index="614">
            -14 47 3 36 151 58 216 45 111 return
          </CharString>
          <CharString index="615">
            526 callgsubr
            rrcurveto
            return
          </CharString>
          <CharString index="616">
            -26 -31 169 callsubr
            59 -9 33 6 37 return
          </CharString>
          <CharString index="617">
            543 callgsubr
            182 return
          </CharString>
          <CharString index="618">
            -3 -64 29 -63 44 -47 430 callsubr
            return
          </CharString>
          <CharString index="619">
            9 9 12 -5 15 -65 61 -106 58 -85 21 rrcurveto
            return
          </CharString>
          <CharString index="620">
            7 14 6 16 4 15 return
          </CharString>
          <CharString index="621">
            5 hvcurveto
            26 -4 19 -43 return
          </CharString>
          <CharString index="622">
            -14 -14 -9 -14 -15 vvcurveto
            return
          </CharString>
          <CharString index="623">
            91 86 84 10 -11 rcurveline
            return
          </CharString>
          <CharString index="624">
            11 -14 29 37 vvcurveto
            46 return
          </CharString>
          <CharString index="625">
            21 21 25 26 -21 21 return
          </CharString>
          <CharString index="626">
            15 -70 78 -118 80 return
          </CharString>
          <CharString index="627">
            -77 rlineto
            -13 6 return
          </CharString>
          <CharString index="628">
            -143 -16 -68 rlineto
            72 2 rmoveto
            29 137 return
          </CharString>
          <CharString index="629">
            43 9 -5 rcurveline
            -102 -434 -71 callgsubr
            return
          </CharString>
          <CharString index="630">
            158 213 rmoveto
            -32 10 -20 18 -17 27 return
          </CharString>
          <CharString index="631">
            rmoveto
            -28 10 -19 461 callsubr
            return
          </CharString>
          <CharString index="632">
            -32 -25 1 hvcurveto
            -1 -79 -98 379 callgsubr
            return
          </CharString>
          <CharString index="633">
            9 38 15 35 -24 35 -19 44 -17 24 2 return
          </CharString>
          <CharString index="634" raw="1">
            706cf73d 0ac683ac 900b 
          </CharString>
          <CharString index="635">
            -74 rmoveto
            -54 -2 -65 23 65 vvcurveto
            38 23 37 return
          </CharString>
          <CharString index="636" raw="1">
            a96fbb7f b598190b  
          </CharString>
          <CharString index="637">
            11 -10 -40 -70 -46 -194 return
          </CharString>
          <CharString index="638">
            11 58 9 60 7 56 rrcurveto
            return
          </CharString>
          <CharString index="639">
            371 252 rmoveto
            -55 -51 return
          </CharString>
          <CharString index="640">
            vhcurveto
            49 61 48 66 32 37 return
          </CharString>
          <CharString index="641">
            rrcurveto
            -19 -16 -10 -26 -31 vvcurveto
            return
          </CharString>
          <CharString index="642">
            -67 -57 -93 -71 -94 -32 rrcurveto
            return
          </CharString>
          <CharString index="643">
            16 10 23 7 18 return
          </CharString>
          <CharString index="644">
            26 322 callsubr
            return
          </CharString>
          <CharString index="645">
            -4 19 -26 -38 vvcurveto
            return
          </CharString>
          <CharString index="646">
            65 -53 callsubr
            return
          </CharString>
          <CharString index="647">
            56 -30 57 -8 return
          </CharString>
          <CharString index="648" raw="1">
            f8250aa5 828f7a89 0b 
          </CharString>
          <CharString index="649">
            hlineto
            -20 24 -31 131 callgsubr
            return
          </CharString>
          <CharString index="650">
            -4 29 -44 17 -46 -25 -17 -22 -16 -14 return
          </CharString>
          <CharString index="651">
            25 53 -7 4 -6 rcurveline
            -8 -75 -52 -53 return
          </CharString>
          <CharString index="652">
            hlineto
            14 -98 -2 -28 -3 -27 -4 -27 rlinecurve
            return
          </CharString>
          <CharString index="653">
            rmoveto
            -98 callgsubr
            return
          </CharString>
          <CharString index="654">
            -8 rcurveline
            -71 195 callsubr
            return
          </CharString>
          <CharString index="655">
            64 71 63 vvcurveto
            21 -13 27 -21 23 vhcurveto
            return
          </CharString>
          <CharString index="656">
            -2 12 11 10 35 -6 15 rlinecurve
            endchar
          </CharString>
          <CharString index="657">
            63 8 -5 rcurveline
            return
          </CharString>
          <CharString index="658">
            -36 -14 -33 rrcurveto
            return
          </CharString>
        <CharString name=".notdef">
          185 176 hmoveto
          399 701 -399 hlineto
          59 -55 rmoveto
          281 -591 -281 hlineto
          endchar
        </CharString>
        <CharString name="A">
          50 250 325 -86 callsubr
          endchar
        </CharString>
        <CharString name="AE">
          237 642 736 rmoveto
          -122 -114 -8 -23 -85 hvcurveto
          -104 -256 -48 -83 rlineto
          -115 hlineto
          -24 -27 -3 -27 18 -23 85 6 rcurveline
          -149 -265 15 -28 52 -9 51 13 rlinecurve
          136 295 155 8 -56 -256 rlineto
          -34 28 19 -19 61 hhcurveto
          80 122 13 16 82 hvcurveto
          13 27 12 55 -40 16 -71 -22 -116 -25 -79 -3 rrcurveto
          65 vlineto
          30 166 95 10 37 0 91 -8 rlinecurve
          23 31 3 42 -18 18 -93 -13 -48 -4 -80 -6 10 196 rcurveline
          29 81 61 7 52 4 54 -9 rlinecurve
          61 -53 50 35 21 64 -32 29 rlinecurve
          2 -39 -54 2 -56 hhcurveto
          -254 -98 rmoveto
          10 3 -5 -274 -131 -5 rlineto
          endchar
        </CharString>
        <CharString name="Aacute">
          50 641 949 33 callsubr
          -221 -463 -86 callsubr
          endchar
        </CharString>
        <CharString name="Abreve">
          50 455 802 rmoveto
          53 callsubr
          -82 20 57 -45 73 hhcurveto
          -205 -477 -86 callsubr
          endchar
        </CharString>
        <CharString name="Acircumflex">
          50 437 913 rmoveto
          0 callsubr
          -157 -145 2 -21 21 -8 20 -1 rlinecurve
          -52 -470 -86 callsubr
          endchar
        </CharString>
        <CharString name="Adieresis">
          50 535 814 26 callsubr
          -97 -489 -86 callsubr
          endchar
        </CharString>
        <CharString name="Agrave">
          50 434 793 183 callgsubr
          -129 -547 -86 callsubr
          endchar
        </CharString>
        <CharString name="Amacron">
          50 579 821 247 callsubr
          -23 -488 -86 callsubr
          endchar
        </CharString>
        <CharString name="Aogonek">
          50 250 325 rmoveto
          135 311 10 2 11 -307 rlineto
          -1 hlineto
          104 -329 rmoveto
          5 1 4 2 5 1 -22 279 rcurveline
          93 5 23 34 1 30 -18 14 rlinecurve
          -105 -20 -16 205 17 171 -38 15 -72 6 -68 -36 rlinecurve
          -100 -256 -69 -131 -107 -4 -23 -28 -2 -26 19 -24 rlinecurve
          74 10 -116 -220 16 -28 52 -9 50 13 rlinecurve
          112 259 47 6 133 8 -9 -250 7 -6 8 -5 9 -5 rlinecurve
          -56 -29 -56 -50 -58 vvcurveto
          -47 68 -42 67 68 50 29 39 37 vhcurveto
          -3 23 -11 9 -17 1 rrcurveto
          -24 -29 -38 -13 -36 hhcurveto
          -36 -27 14 22 -13 hvcurveto
          14 52 48 49 60 14 rrcurveto
          endchar
        </CharString>
        <CharString name="Aring">
          50 445 894 38 callsubr
          -200 -462 -86 callsubr
          endchar
        </CharString>
        <CharString name="Atilde">
          50 250 325 -86 callsubr
          -42 485 rmoveto
          251 callgsubr
          32 callsubr
          rrcurveto
          endchar
        </CharString>
        <CharString name="B">
          54 480 543 rmoveto
          -2 -72 -17 -11 -43 -38 -55 -24 -54 -7 -73 1 46 274 rcurveline
          136 14 64 -64 -2 -73 rrcurveto
          -298 -477 rmoveto
          48 270 115 11 55 -14 54 -43 rlinecurve
          8 -19 3 -18 -18 vvcurveto
          -1 -51 -13 -41 -41 -49 -64 -22 -87 -8 -77 2 rrcurveto
          276 307 rmoveto
          94 48 41 42 1 94 rrcurveto
          92 1 -96 89 -188 hhcurveto
          -61 -68 -6 -13 -56 hvcurveto
          -14 -19 0 -29 29 -20 39 6 rcurveline
          -23 -207 -23 -120 -25 -99 -45 -149 rlinecurve
          5 -43 40 -25 56 -14 117 -5 95 7 113 40 69 70 19 66 1 62 rrcurveto
          26 -6 27 -15 25 vhcurveto
          -27 21 -35 18 -39 9 rrcurveto
          endchar
        </CharString>
        <CharString name="C">
          44 423 675 14 callsubr
        </CharString>
        <CharString name="CR">
          -132 endchar
        </CharString>
        <CharString name="Cacute">
          44 477 990 -43 callgsubr
          -54 -315 14 callsubr
        </CharString>
        <CharString name="Ccaron">
          44 442 801 rmoveto
          136 129 -11 36 -43 2 -33 -10 rlinecurve
          -109 -118 -32 callsubr
          -19 -126 14 callsubr
        </CharString>
        <CharString name="Ccedilla">
          44 423 675 rmoveto
          36 -41 9 -49 5 -60 43 -18 50 14 31 32 -8 76 -46 85 -93 35 -162 -26 -102 -96 -69 -77 rrcurveto
          -47 -83 -25 -72 -74 vvcurveto
          -148 69 -112 173 -52 vhcurveto
          -52 -108 rlineto
          -58 callgsubr
          48 93 81 36 80 53 39 47 rlinecurve
          2 28 -17 30 -38 -7 -40 -42 -71 -49 -76 -31 rrcurveto
          -113 45 -53 68 133 vvcurveto
          141 111 155 143 51 vhcurveto
          endchar
        </CharString>
        <CharString name="D">
          89 215 348 rmoveto
          22 89 26 110 26 110 161 8 77 -114 2 -149 2 -122 -50 -98 -112 -82 -67 -18 -56 -4 -67 -1 rrcurveto
          -17 571 rmoveto
          -2 -159 -30 -159 -31 -100 -51 -153 30 callsubr
        </CharString>
        <CharString name="Dcaron">
          89 524 930 rmoveto
          -11 36 -43 2 -33 -10 -109 -118 rcurveline
          -32 callsubr
          -173 -453 rmoveto
          22 89 26 110 26 110 161 8 77 -114 2 -149 2 -122 -50 -98 -112 -82 -67 -18 -56 -4 -67 -1 rrcurveto
          -17 571 rmoveto
          -2 -159 -30 -159 -31 -100 -51 -153 30 callsubr
        </CharString>
        <CharString name="Dcroat">
          36 callsubr
        </CharString>
        <CharString name="E">
          -21 460 652 -10 callgsubr
        </CharString>
        <CharString name="Eacute">
          -21 460 990 -43 callgsubr
          -338 vmoveto
          -85 callgsubr
          endchar
        </CharString>
        <CharString name="Ecaron">
          -21 425 801 rmoveto
          136 129 -11 36 -43 2 -33 -10 rlinecurve
          -109 -118 -32 callsubr
          35 -149 -10 callgsubr
        </CharString>
        <CharString name="Ecircumflex">
          -21 198 825 rmoveto
          2 -21 21 -8 20 -1 135 118 rcurveline
          0 callsubr
          105 -318 -10 callgsubr
        </CharString>
        <CharString name="Edieresis">
          -21 285 814 -20 callgsubr
          -13 -162 -10 callgsubr
        </CharString>
        <CharString name="Edotaccent">
          -21 460 652 rmoveto
          -85 callgsubr
          -71 164 116 callsubr
          endchar
        </CharString>
        <CharString name="Egrave">
          -21 460 652 rmoveto
          -85 callgsubr
          -117 348 74 callsubr
          endchar
        </CharString>
        <CharString name="Emacron">
          -21 460 652 rmoveto
          -85 callgsubr
          73 235 rmoveto
          -150 -16 47 callgsubr
          endchar
        </CharString>
        <CharString name="Eogonek">
          -26 167 492 rmoveto
          -30 -157 -37 -114 -53 -141 2 -40 34 -25 59 -15 189 17 rcurveline
          -56 -34 -46 -47 -48 vvcurveto
          -58 66 -43 79 64 51 29 39 33 vhcurveto
          -1 22 -9 11 -21 -1 rrcurveto
          -25 -31 -38 -16 -37 hhcurveto
          -39 -29 14 21 -15 hvcurveto
          8 59 86 67 61 21 23 33 11 55 -39 13 -86 -19 -100 -18 -102 -13 62 252 rcurveline
          75 2 73 -5 73 -6 21 33 5 41 -18 21 -62 -7 -75 -6 -82 -9 28 157 rcurveline
          30 102 70 9 52 -6 44 -5 rlinecurve
          70 -52 48 32 20 64 -30 35 rlinecurve
          -187 5 -110 -4 -141 -13 -13 -12 0 -23 10 -23 20 -2 19 -4 13 -7 rrcurveto
          endchar
        </CharString>
        <CharString name="Eth">
          36 callsubr
        </CharString>
        <CharString name="Euro">
          122 460 264 rmoveto
          25 31 3 28 -19 9 -227 -31 rcurveline
          -1 8 0 8 9 vvcurveto
          21 2 21 5 21 vhcurveto
          226 15 25 32 3 28 -20 10 rlinecurve
          -218 -30 35 90 71 84 91 55 rlinecurve
          16 2 35 -42 12 -22 14 -53 rlinecurve
          48 -17 42 15 23 33 -22 76 -52 54 -86 30 -116 -33 -104 -79 -71 -83 -20 -42 -16 -39 -11 -37 -91 4 rcurveline
          -20 -26 -4 -24 16 -14 85 6 rcurveline
          -3 -21 -2 -20 -20 vvcurveto
          -9 0 -9 1 -8 vhcurveto
          -87 5 -22 -27 -3 -24 16 -15 rlinecurve
          103 7 24 -117 82 -86 164 -38 rlinecurve
          91 35 101 62 45 54 2 28 -18 30 -38 -7 -51 -50 -70 -49 -66 -23 -88 35 -53 50 -18 84 rrcurveto
          endchar
        </CharString>
        <CharString name="F">
          -25 294 655 rmoveto
          70 8 52 -5 44 -5 70 -53 rcurveline
          48 32 20 66 -30 34 -187 5 -110 -4 -141 -13 -13 -12 0 -23 10 -23 20 -2 19 -4 13 -7 -4 -136 rcurveline
          -29 -163 -25 -129 -55 -187 25 -32 72 -10 32 17 10 123 10 87 12 92 76 3 73 -4 72 -7 24 35 1 42 -14 18 -62 -8 -77 -4 -81 -10 25 177 rcurveline
          endchar
        </CharString>
        <CharString name="G">
          82 534 239 -25 callsubr
          endchar
        </CharString>
        <CharString name="Gbreve">
          82 534 239 -25 callsubr
          -201 687 rmoveto
          -82 20 57 -45 73 hhcurveto
          53 callsubr
          endchar
        </CharString>
        <CharString name="H">
          143 604 430 rmoveto
          75 298 rlineto
          7 -15 -15 4 -18 hhcurveto
          -26 -29 -9 -20 -35 hvcurveto
          -11 -203 -5 -32 -5 -30 -6 -28 rlinecurve
          -141 -22 -142 -3 2 21 79 315 rlineto
          7 -15 -16 4 -17 hhcurveto
          -27 -28 -9 -20 -35 hvcurveto
          -11 -203 -7 -43 -7 -38 -7 -36 rlinecurve
          -67 -1 -24 -28 -3 -28 18 -24 rlinecurve
          61 8 -19 -91 -21 -81 -29 -109 rlinecurve
          19 -34 65 -10 46 15 12 117 14 112 10 93 10 1 rcurveline
          268 20 -21 -104 -23 -88 -32 -122 rlinecurve
          18 -34 66 -10 46 15 12 129 16 123 11 98 79 6 rcurveline
          25 35 2 31 -20 13 rrcurveto
          endchar
        </CharString>
        <CharString name="I">
          -35 callgsubr
          endchar
        </CharString>
        <CharString name="Iacute">
          -35 callgsubr
          156 280 345 callsubr
        </CharString>
        <CharString name="Icircumflex">
          -35 callgsubr
          -106 115 rmoveto
          2 -21 21 -8 20 -1 135 118 rcurveline
          0 callsubr
          endchar
        </CharString>
        <CharString name="Idieresis">
          -35 callgsubr
          -19 104 -20 callgsubr
          endchar
        </CharString>
        <CharString name="Idotaccent">
          -35 callgsubr
          84 106 116 callsubr
          endchar
        </CharString>
        <CharString name="Igrave">
          -35 callgsubr
          38 290 74 callsubr
          endchar
        </CharString>
        <CharString name="Imacron">
          -35 callgsubr
          229 177 rmoveto
          -150 -16 47 callgsubr
          endchar
        </CharString>
        <CharString name="Iogonek">
          -313 145 5 rmoveto
          5 2 16 155 19 146 10 105 rlinecurve
          79 315 rlineto
          7 -16 -15 4 -17 hhcurveto
          -26 -30 -9 -20 -34 hvcurveto
          -12 -203 -30 -189 -26 -104 -48 -178 rlinecurve
          7 -12 12 -9 15 -6 rrcurveto
          -57 -31 -37 -48 -47 vvcurveto
          -51 49 -45 86 61 53 28 40 35 vhcurveto
          -1 22 -11 9 -21 1 rrcurveto
          -26 -28 -40 -14 -37 hhcurveto
          -28 -28 8 19 -19 hvcurveto
          2 61 62 48 50 20 rrcurveto
          endchar
        </CharString>
        <CharString name="J">
          11 323 660 rmoveto
          -6 -148 -27 -170 -27 -109 -34 -153 rlinecurve
          -16 -8 -42 44 -28 49 -8 67 rlinecurve
          -36 20 -43 -18 -31 -44 17 -67 56 -75 83 -46 72 -6 62 23 29 50 11 131 13 97 9 103 63 262 rcurveline
          185 -17 31 35 2 30 -16 15 rlinecurve
          -204 10 -119 -4 -191 -12 -15 -24 -1 -22 28 -31 rrcurveto
          endchar
        </CharString>
        <CharString name="K">
          56 339 489 82 callsubr
        </CharString>
        <CharString name="L">
          -81 141 710 22 callsubr
        </CharString>
        <CharString name="Lacute">
          -81 278 990 -43 callgsubr
          -137 -280 22 callsubr
        </CharString>
        <CharString name="Lcaron">
          -81 394 637 rmoveto
          57 48 54 76 7 71 -17 45 -54 31 -53 -42 21 -124 rcurveline
          -55 -85 rlineto
          -14 7 16 -6 17 hhcurveto
          -253 73 22 callsubr
        </CharString>
        <CharString name="Lslash">
          -21 251 361 rmoveto
          156 14 26 28 -15 33 -25 9 rlinecurve
          -129 -26 75 309 -41 21 -43 -8 -54 -31 rlinecurve
          -10 -204 -7 -37 -7 -35 -8 -34 rlinecurve
          -112 7 -21 -16 3 -34 32 -22 rlinecurve
          87 13 -22 -92 -25 -87 -34 -92 rlinecurve
          5 -38 36 -24 53 -15 315 34 rcurveline
          20 28 11 52 -38 15 -83 -19 -98 -19 -103 -14 rrcurveto
          endchar
        </CharString>
        <CharString name="M">
          175 532 495 rmoveto
          -148 -223 -52 79 -35 104 -24 152 -8 111 rlinecurve
          14 -16 -21 6 -22 hhcurveto
          -26 -25 -6 -14 -25 hvcurveto
          -13 -212 -31 -187 -25 -103 -48 -180 rlinecurve
          18 -34 66 -10 45 15 15 156 21 146 10 104 27 121 rcurveline
          16 -97 27 -103 54 -108 35 -28 28 -7 48 14 197 331 rcurveline
          -3 -52 -31 -183 -23 -94 -46 -171 rlinecurve
          20 -34 64 -10 47 15 14 153 20 144 10 108 78 312 rcurveline
          11 -14 -19 4 -19 hhcurveto
          -27 -25 -9 -7 -19 hvcurveto
          endchar
        </CharString>
        <CharString name="N">
          101 550 505 -66 callsubr
        </CharString>
        <CharString name="NULL">
          endchar
        </CharString>
        <CharString name="Nacute">
          101 625 949 33 callsubr
          95 -283 -66 callsubr
        </CharString>
        <CharString name="Ncaron">
          101 607 930 rmoveto
          -11 36 -43 2 -33 -10 -109 -118 rcurveline
          -32 callsubr
          79 -296 -66 callsubr
        </CharString>
        <CharString name="Ntilde">
          101 384 869 205 callgsubr
          222 -289 -66 callsubr
        </CharString>
        <CharString name="O">
          112 callgsubr
          endchar
        </CharString>
        <CharString name="OE">
          343 530 667 rmoveto
          37 -35 -44 38 -43 hhcurveto
          -173 -185 -220 -219 2 hvcurveto
          -126 117 520 callgsubr
          42 53 28 41 44 vhcurveto
          22 -39 27 -17 45 -13 302 28 rcurveline
          23 33 11 55 -41 13 -95 -19 -98 -18 -91 -8 59 247 rcurveline
          83 1 70 -5 65 -5 20 33 5 41 -18 21 -59 -6 -71 -5 -89 -10 -10 198 rcurveline
          33 49 70 18 60 -3 45 -5 rlinecurve
          71 -52 46 32 21 64 -31 35 rlinecurve
          -192 3 -95 -8 -88 -60 rrcurveto
          -370 -348 rmoveto
          146 100 141 141 73 vhcurveto
          91 -90 18 -73 7 -133 -21 -129 -71 -119 -131 -71 -92 51 -43 105 1 99 rrcurveto
          endchar
        </CharString>
        <CharString name="Oacute">
          69 503 992 -43 callgsubr
          -453 -689 -76 callsubr
          endchar
        </CharString>
        <CharString name="Ocircumflex">
          69 241 827 rmoveto
          2 -21 21 -8 20 -1 135 118 rcurveline
          0 callsubr
          -348 -669 -76 callsubr
          endchar
        </CharString>
        <CharString name="Odieresis">
          69 328 816 -20 callgsubr
          -466 -513 -76 callsubr
          endchar
        </CharString>
        <CharString name="Ograve">
          112 callgsubr
          -133 639 74 callsubr
          endchar
        </CharString>
        <CharString name="Ohungarumlaut">
          69 306 802 105 callgsubr
          -481 -659 -76 callsubr
          endchar
        </CharString>
        <CharString name="Omacron">
          69 577 889 rmoveto
          -150 -16 47 callgsubr
          -527 -586 -76 callsubr
          endchar
        </CharString>
        <CharString name="Oslash">
          155 533 464 rmoveto
          7 -32 5 -34 4 -35 -41 -125 -65 -99 -125 -75 -47 28 -34 45 -22 50 rrcurveto
          -18 58 rmoveto
          -6 24 -3 25 25 vvcurveto
          146 100 141 141 73 vhcurveto
          43 -46 28 -53 18 -61 rrcurveto
          243 143 rmoveto
          -3 41 -36 26 -54 8 -79 -130 rcurveline
          79 -42 -58 56 -52 hhcurveto
          -174 -185 -220 -219 2 hvcurveto
          -41 13 -45 20 -44 vhcurveto
          -109 -93 1 -47 30 -20 53 -13 rlinecurve
          66 105 rlineto
          -60 44 60 -45 61 hhcurveto
          129 204 229 147 -2 hvcurveto
          -1 55 -11 56 -19 52 rrcurveto
          endchar
        </CharString>
        <CharString name="Otilde">
          112 callgsubr
          -117 575 rmoveto
          32 callsubr
          -62 -75 rcurveline
          -4 1 -24 32 -39 26 -70 24 rlinecurve
          endchar
        </CharString>
        <CharString name="P">
          9 288 669 rmoveto
          133 5 61 -62 2 -82 rrcurveto
          -66 -33 -62 -51 -35 vhcurveto
          -48 -25 -58 -14 -69 -12 3 34 3 33 2 35 rrcurveto
          -59 241 rmoveto
          -17 -189 -25 -141 -23 -132 -47 -166 rlinecurve
          24 -30 74 -9 32 17 10 87 10 82 8 82 70 6 77 16 68 23 rrcurveto
          104 55 49 81 94 vvcurveto
          107 -1 -99 99 -184 hhcurveto
          -71 -57 -7 -14 -49 hvcurveto
          -17 -10 -2 -29 18 -24 rrcurveto
          endchar
        </CharString>
        <CharString name="Q">
          87 159 319 rmoveto
          146 98 141 142 73 vhcurveto
          77 -82 28 -107 15 -127 -41 -125 -65 -99 -126 -75 rrcurveto
          -84 51 -44 105 99 vvcurveto
          231 -355 rmoveto
          -31 54 122 56 141 180 -2 122 rlinecurve
          176 -3 -115 190 -96 hhcurveto
          -174 -184 -220 -219 2 hvcurveto
          -126 1 116 520 callgsubr
          hhcurveto
          9 hlineto
          98 -166 60 -2 44 24 -1 52 rlinecurve
          endchar
        </CharString>
        <CharString name="R">
          42 289 671 -56 callgsubr
        </CharString>
        <CharString name="Racute">
          42 536 949 33 callsubr
          -77 -117 -56 callgsubr
        </CharString>
        <CharString name="Rcaron">
          42 518 930 rmoveto
          -11 36 -43 2 -33 -10 -109 -118 rcurveline
          -32 callsubr
          -93 -130 -56 callgsubr
        </CharString>
        <CharString name="S">
          32 561 239 rmoveto
          -38 callsubr
          21 -72 106 -90 109 -30 183 29 103 90 19 120 rrcurveto
          endchar
        </CharString>
        <CharString name="Sacute">
          32 472 990 -43 callgsubr
          89 -751 rmoveto
          -38 callsubr
          21 -72 106 -90 109 -30 183 29 103 90 19 120 rrcurveto
          endchar
        </CharString>
        <CharString name="Scaron">
          32 437 801 rmoveto
          136 129 -11 36 -43 2 -33 -10 rlinecurve
          -109 -118 -32 callsubr
          124 -562 rmoveto
          -38 callsubr
          21 -72 106 -90 109 -30 183 29 103 90 19 120 rrcurveto
          endchar
        </CharString>
        <CharString name="T">
          11 296 657 50 callsubr
        </CharString>
        <CharString name="Tcaron">
          11 558 930 rmoveto
          -11 36 -43 2 -33 -10 -109 -118 rcurveline
          -32 callsubr
          -126 -144 50 callsubr
        </CharString>
        <CharString name="Thorn">
          5 397 283 rmoveto
          -64 -21 -50 -5 -69 12 9 85 11 88 10 79 35 16 47 15 41 -3 65 -19 40 -47 3 -65 1 -53 -31 -38 -48 -44 rrcurveto
          -86 528 rmoveto
          -40 20 -41 -9 -54 -32 -6 -250 rcurveline
          -43 -207 -26 -144 -47 -157 21 -30 77 -11 33 19 7 58 8 73 9 80 65 -18 71 -1 90 18 100 67 46 54 -2 82 -1 94 -78 72 -112 26 -41 -1 -51 -12 -42 -18 rrcurveto
          endchar
        </CharString>
        <CharString name="U">
          -1 callsubr
          endchar
        </CharString>
        <CharString name="Uacute">
          39 459 990 -43 callgsubr
          -115 -921 -87 callsubr
          endchar
        </CharString>
        <CharString name="Ucircumflex">
          39 197 825 rmoveto
          2 -21 21 -8 20 -1 135 118 rcurveline
          0 callsubr
          -10 -901 -87 callsubr
          endchar
        </CharString>
        <CharString name="Udieresis">
          39 285 814 -20 callgsubr
          -129 -745 -87 callsubr
          endchar
        </CharString>
        <CharString name="Ugrave">
          -1 callsubr
          -2 931 74 callsubr
          endchar
        </CharString>
        <CharString name="Uhungarumlaut">
          -1 callsubr
          -81 731 105 callgsubr
          endchar
        </CharString>
        <CharString name="Umacron">
          -1 callsubr
          189 818 rmoveto
          -150 -16 47 callgsubr
          endchar
        </CharString>
        <CharString name="Uogonek">
          39 318 3 rmoveto
          -3 18 -10 13 -24 1 rrcurveto
          -100 -29 -55 -63 -56 vvcurveto
          -54 49 -46 94 58 53 28 40 35 vhcurveto
          22 -3 -10 10 -19 hhcurveto
          -26 -30 -39 -15 -35 hhcurveto
          -32 -28 11 23 -21 hvcurveto
          10 57 47 45 63 21 rrcurveto
          26 66 -87 callsubr
          endchar
        </CharString>
        <CharString name="Uring">
          39 456 1001 145 callsubr
          -93 -897 -87 callsubr
          endchar
        </CharString>
        <CharString name="V">
          19 508 533 rmoveto
          -231 -454 -29 194 -14 446 -27 22 -67 -10 -36 -33 rlinecurve
          83 -665 33 -33 57 -8 46 13 rlinecurve
          57 152 71 129 66 104 71 127 rlinecurve
          28 55 22 65 -6 71 -31 26 -56 8 -59 -36 rrcurveto
          endchar
        </CharString>
        <CharString name="W">
          293 789 535 rmoveto
          -192 -456 -36 221 -7 366 -45 20 -44 -14 -34 -32 rlinecurve
          31 -210 -180 -339 -30 182 -18 450 -28 21 -65 -7 -36 -34 rlinecurve
          90 -670 33 -33 56 -8 46 13 rlinecurve
          56 150 92 175 32 -298 31 -32 59 -8 45 13 rlinecurve
          46 155 179 360 29 59 19 64 -5 70 rlinecurve
          -33 24 -54 9 -59 -35 rrcurveto
          endchar
        </CharString>
        <CharString name="X">
          75 354 416 rmoveto
          -27 122 -64 130 -79 71 -63 -8 -33 -42 6 -53 76 -52 87 -96 60 -120 -88 -91 -118 -122 -95 -72 -3 -40 19 -34 72 -9 226 316 rcurveline
          26 -105 73 -145 60 -66 70 13 32 43 -8 44 -76 55 -88 135 -47 81 116 120 99 98 87 75 -8 51 -24 29 -54 -4 rrcurveto
          endchar
        </CharString>
        <CharString name="Y">
          15 callsubr
          endchar
        </CharString>
        <CharString name="Yacute">
          15 callsubr
          359 292 345 callsubr
        </CharString>
        <CharString name="Ydieresis">
          15 callsubr
          184 116 -20 callgsubr
          endchar
        </CharString>
        <CharString name="Z">
          48 122 49 -57 callsubr
          endchar
        </CharString>
        <CharString name="Zacute">
          48 467 990 -43 callgsubr
          -345 -941 -57 callsubr
          endchar
        </CharString>
        <CharString name="Zcaron">
          48 432 801 rmoveto
          136 129 -11 36 -43 2 -33 -10 rlinecurve
          -109 -118 -32 callsubr
          -310 -752 -57 callsubr
          endchar
        </CharString>
        <CharString name="Zdotaccent">
          48 122 49 -57 callsubr
          279 771 116 callsubr
          endchar
        </CharString>
        <CharString name="a">
          -6 371 252 -91 callsubr
          endchar
        </CharString>
        <CharString name="aacute">
          -6 579 750 33 callsubr
          -38 -337 -91 callsubr
          endchar
        </CharString>
        <CharString name="abreve">
          -6 393 603 rmoveto
          53 callsubr
          -82 20 57 -45 73 hhcurveto
          -22 -351 -91 callsubr
          endchar
        </CharString>
        <CharString name="acircumflex">
          -6 376 714 rmoveto
          0 callsubr
          -157 -145 2 -21 21 -8 20 -1 rlinecurve
          130 -344 -91 callsubr
          endchar
        </CharString>
        <CharString name="acute">
          -366 173 791 345 callsubr
        </CharString>
        <CharString name="adieresis">
          -6 473 615 26 callsubr
          86 -363 -91 callsubr
          endchar
        </CharString>
        <CharString name="ae">
          290 582 72 rmoveto
          -70 28 -29 46 -8 63 506 callgsubr
          -123 28 -67 -14 -60 -43 -38 -46 33 78 rcurveline
          -14 23 -37 3 -38 -7 -10 -22 -6 -30 -1 -51 -25 42 -33 40 -37 19 -158 -2 -135 -190 2 -165 1 -99 59 -72 123 -4 44 51 47 51 42 47 10 -10 rcurveline
          -43 -118 19 -28 31 -14 46 11 rlinecurve
          16 109 24 -48 48 -41 70 -23 rlinecurve
          72 11 114 55 40 44 rrcurveto
          38 5 -10 14 -32 hhcurveto
          -41 -39 -69 -30 -67 -21 rrcurveto
          56 414 rmoveto
          53 -32 14 -42 -4 -67 -70 -34 -74 -26 -84 -22 2 83 65 89 82 47 rrcurveto
          -305 -5 rmoveto
          42 -28 22 -27 20 -42 -11 -30 -17 -56 -3 -45 -55 -50 -58 -53 -60 -56 536 callgsubr
          124 62 113 110 47 vhcurveto
          endchar
        </CharString>
        <CharString name="agrave">
          -6 373 594 183 callgsubr
          53 -421 -91 callsubr
          endchar
        </CharString>
        <CharString name="amacron">
          -6 517 622 247 callsubr
          160 -362 -91 callsubr
          endchar
        </CharString>
        <CharString name="ampersand">
          68 580 186 rmoveto
          13 46 -26 38 -51 -11 -45 -52 -65 -41 -89 -30 -55 17 -47 36 -14 49 58 79 80 26 107 14 11 37 -2 27 -32 15 -22 -8 -24 -7 -36 -6 -55 17 -35 20 -24 42 rrcurveto
          48 57 60 50 103 5 62 -85 rcurveline
          66 14 18 22 -7 36 rrcurveto
          38 -31 -50 35 -68 hhcurveto
          -127 -120 -62 -111 -72 hvcurveto
          11 -52 66 -48 87 -14 -88 -24 -55 -40 -43 -89 23 -65 72 -65 127 -25 122 25 74 36 75 54 rrcurveto
          -135 535 rmoveto
          43 166 -32 26 -28 -3 -52 -28 rlinecurve
          1 -154 15 -14 21 -1 32 8 rlinecurve
          -160 -714 rmoveto
          -44 -166 33 -25 29 2 50 28 rlinecurve
          -1 154 -14 14 -22 1 -31 -8 rlinecurve
          endchar
        </CharString>
        <CharString name="aogonek">
          -10 532 callsubr
          -59 -54 -62 495 callsubr
          124 62 113 110 47 vhcurveto
          42 -28 22 -27 21 -43 rrcurveto
          42 -375 rmoveto
          4 1 4 1 4 1 6 398 callgsubr
          13 102 80 153 rcurveline
          -19 33 -35 9 -69 -6 -10 -21 -6 -33 -1 -49 -1 -2 rcurveline
          -24 43 -35 40 -38 20 -158 -2 -135 -190 2 -165 1 -99 58 -72 124 -4 44 50 51 53 42 47 12 -11 rcurveline
          -45 -117 7 -7 9 -6 9 -5 rlinecurve
          -66 -34 -42 -56 491 callsubr
          -3 -10 9 -21 hhcurveto
          -44 -42 -73 -7 -49 30 13 68 52 45 72 20 rrcurveto
          endchar
        </CharString>
        <CharString name="aring">
          -6 384 695 38 callsubr
          -18 -336 -91 callsubr
          endchar
        </CharString>
        <CharString name="asciicircum">
          -79 54 418 rmoveto
          3 -18 19 -11 23 2 199 323 rcurveline
          90 -312 19 -12 46 -8 33 29 rlinecurve
          -111 348 -23 16 -35 4 -41 -8 rlinecurve
          endchar
        </CharString>
        <CharString name="asciitilde">
          83 198 420 rmoveto
          -62 -24 -48 -42 -32 -39 -2 -22 37 -17 40 3 69 74 rcurveline
          7 3 54 -43 60 -23 112 -16 rlinecurve
          72 27 46 30 36 48 -1 24 -31 16 -40 -7 -80 -72 rcurveline
          -7 1 -69 43 -38 21 -123 15 rlinecurve
          endchar
        </CharString>
        <CharString name="asterisk">
          -198 306 793 rmoveto
          100 70 -6 18 -12 14 -17 8 rlinecurve
          -80 -90 29 112 -19 5 -19 0 -20 -5 rlinecurve
          2 -112 -59 90 -20 -8 -14 -13 -11 -18 rlinecurve
          85 -71 -113 16 -10 -19 -2 -20 5 -18 rlinecurve
          114 15 -98 -69 8 -19 12 -13 16 -9 rlinecurve
          80 91 -29 -113 20 -6 19 0 18 6 rlinecurve
          -2 113 60 -91 21 8 14 12 10 20 rlinecurve
          -82 70 110 -15 9 18 3 19 -5 20 rlinecurve
          endchar
        </CharString>
        <CharString name="at">
          415 634 379 rmoveto
          -30 -129 -54 -51 -58 -53 -61 -56 rlinecurve
          -40 24 -12 33 46 vvcurveto
          124 62 113 111 47 vhcurveto
          41 -27 21 -27 21 -41 rrcurveto
          159 129 rmoveto
          -22 34 -28 9 -73 -7 -11 -22 -5 -31 -1 -49 rrcurveto
          0 vlineto
          -24 41 -35 39 -37 20 -158 -2 -135 -190 2 -165 1 -99 59 -72 123 -4 45 51 53 55 42 46 11 -7 rcurveline
          -18 -52 10 -40 58 -39 rrcurveto
          163 55 152 144 150 vvcurveto
          200 -161 184 -205 -280 -294 -237 -282 -228 185 -155 231 -40 vhcurveto
          87 23 87 35 51 49 1 37 -11 20 -48 1 -37 -38 -65 -42 -70 -26 rrcurveto
          -171 43 -140 116 199 vvcurveto
          228 215 218 272 24 vhcurveto
          192 -63 79 -93 17 -194 -30 -114 -86 -88 -113 -65 12 89 14 91 15 89 rrcurveto
          endchar
        </CharString>
        <CharString name="atilde">
          -6 371 252 -91 callsubr
          76 210 rmoveto
          251 callgsubr
          32 callsubr
          rrcurveto
          endchar
        </CharString>
        <CharString name="b">
          -24 146 70 rmoveto
          17 81 12 76 12 85 51 62 48 47 43 38 58 -25 25 -37 11 -69 -21 -116 -96 -108 -160 -34 rrcurveto
          25 328 rmoveto
          33 60 21 115 58 238 -40 19 -36 -6 -58 -32 rlinecurve
          -11 -252 -28 -155 -34 -156 -36 -138 rlinecurve
          7 -42 35 -32 69 -17 189 37 141 111 45 177 -23 117 -39 67 -137 36 -48 -47 -49 -53 -46 -60 rrcurveto
          endchar
        </CharString>
        <CharString name="backslash">
          -90 65 842 rmoveto
          281 -958 30 -11 27 -2 21 27 rlinecurve
          -166 466 -118 509 -32 14 -31 -13 -12 -32 rlinecurve
          endchar
        </CharString>
        <CharString name="bar">
          -315 117 524 rmoveto
          -29 -193 -55 -307 -48 -179 18 -34 63 -10 46 14 17 161 51 348 10 99 127 551 rcurveline
          7 -15 -15 4 -18 hhcurveto
          -26 -27 -9 -21 -34 hvcurveto
          endchar
        </CharString>
        <CharString name="braceleft">
          85 533 751 rmoveto
          27 10 15 19 1 27 rrcurveto
          37 -47 -57 33 -58 hhcurveto
          -49 -57 -28 -40 -33 hvcurveto
          -163 100 -101 -169 -117 hhcurveto
          -25 -84 54 -24 48 -63 -2 -73 rlinecurve
          -3 -84 -40 -73 -77 -51 20 -65 50 -46 61 -17 64 4 55 16 46 16 5 20 -12 24 -17 12 -136 -27 rcurveline
          -27 36 69 61 53 77 2 87 rlinecurve
          1 77 -38 60 -73 46 3 15 rcurveline
          85 3 67 57 23 84 19 63 -8 83 -40 85 39 23 rcurveline
          endchar
        </CharString>
        <CharString name="braceright">
          85 443 548 rmoveto
          3 83 40 73 78 51 -21 66 -54 59 -66 3 -54 -2 -59 -15 -43 -19 -4 -21 11 -23 17 -12 136 27 rcurveline
          28 -36 -70 -60 -53 -78 -1 -87 rlinecurve
          -2 -77 38 -59 74 -47 -4 -15 rcurveline
          -84 -3 -67 -57 -24 -84 -19 -63 8 -83 40 -85 -39 -23 rcurveline
          -110 67 -27 -8 -15 -20 -1 -27 rlinecurve
          50 -34 51 -26 61 -14 58 5 50 24 31 43 rrcurveto
          163 -100 102 169 116 hhcurveto
          25 84 -54 24 -48 63 2 74 rlinecurve
          endchar
        </CharString>
        <CharString name="bracketleft">
          -24 459 804 rmoveto
          100 -6 19 30 5 15 -5 24 rlinecurve
          -300 -6 -67 -443 -107 -436 5 -20 17 -20 28 -15 rlinecurve
          246 41 20 22 4 21 -9 14 rlinecurve
          -185 -26 40 260 71 373 48 168 rlineto
          endchar
        </CharString>
        <CharString name="bracketright">
          -2 373 236 rmoveto
          132 544 -3 32 -10 22 -20 19 rlinecurve
          -291 13 -13 -16 6 -23 19 -28 rlinecurve
          190 5 -72 -386 -72 -410 -211 -4 -15 -30 3 -25 16 -25 rlinecurve
          325 45 rlineto
          endchar
        </CharString>
        <CharString name="breve">
          -248 95 730 rmoveto
          -82 20 57 -45 73 hhcurveto
          53 callsubr
          endchar
        </CharString>
        <CharString name="brokenbar">
          -307 166 751 rmoveto
          -15 -88 -19 -58 -29 -112 24 -19 61 -9 44 15 6 82 12 99 4 47 74 261 rcurveline
          10 -15 -19 6 -22 hhcurveto
          -24 -25 -5 -12 -31 hvcurveto
          -150 -876 rmoveto
          -16 -89 -19 -62 -29 -110 23 -23 63 -18 44 25 6 83 12 104 3 46 70 254 rcurveline
          10 -14 -18 6 -20 hhcurveto
          -24 -27 -3 -12 -28 hvcurveto
          endchar
        </CharString>
        <CharString name="bullet">
          -180 163 253 rmoveto
          63 80 47 67 45 hvcurveto
          70 -12 -66 78 -51 hhcurveto
          -72 -9 -74 -85 -11 -77 rrcurveto
          -55 8 41 -36 49 hhcurveto
          endchar
        </CharString>
        <CharString name="c">
          -51 330 547 23 callsubr
        </CharString>
        <CharString name="cacute">
          -51 415 791 -43 callgsubr
          -85 -244 23 callsubr
        </CharString>
        <CharString name="caron">
          -227 272 602 rmoveto
          136 129 -11 36 -43 2 -33 -10 rlinecurve
          -109 -118 -32 callsubr
          endchar
        </CharString>
        <CharString name="ccaron">
          -51 380 602 rmoveto
          136 129 -11 36 -43 2 -33 -10 rlinecurve
          -109 -118 -32 callsubr
          -50 -55 23 callsubr
        </CharString>
        <CharString name="ccedilla">
          -51 315 482 rmoveto
          33 -32 16 -28 1 -61 43 -13 46 11 25 32 -11 75 -48 66 -90 15 -113 -24 -89 -84 -55 -76 -20 -37 -14 -38 -1 -45 -5 -106 52 -102 146 -34 -48 -100 rcurveline
          -58 callgsubr
          51 98 60 23 61 36 31 32 rlinecurve
          5 33 -9 19 -33 -1 -40 -37 -74 -36 -59 -18 -87 42 -21 62 5 89 3 69 55 94 87 51 rrcurveto
          endchar
        </CharString>
        <CharString name="cedilla">
          -232 89 22 rmoveto
          -58 -121 rlineto
          -58 callgsubr
          52 100 rlineto
          endchar
        </CharString>
        <CharString name="cent">
          -49 217 91 rmoveto
          -58 41 -14 56 4 76 3 66 51 90 82 52 rrcurveto
          106 165 rmoveto
          -14 30 -24 11 -34 -11 -23 -129 rcurveline
          -97 -32 -77 -75 -49 -68 -20 -37 -14 -38 -2 -45 -4 -95 42 -93 116 -42 -42 -105 rcurveline
          16 -31 27 -15 32 9 22 131 rcurveline
          79 14 97 51 41 44 6 33 -9 19 -34 -1 -38 -36 -69 -34 -60 -19 68 398 rcurveline
          26 -25 16 -29 4 -56 40 -12 45 11 25 34 -12 67 -45 60 -74 21 rrcurveto
          endchar
        </CharString>
        <CharString name="circumflex">
          -208 74 626 rmoveto
          2 -21 21 -8 20 -1 135 118 rcurveline
          0 callsubr
          endchar
        </CharString>
        <CharString name="colon">
          -306 71 hmoveto
          35 44 27 36 24 hvcurveto
          38 -6 -36 43 -28 hhcurveto
          -41 -4 -39 -47 -7 -43 rrcurveto
          -30 5 22 -20 27 hhcurveto
          55 316 callsubr
          endchar
        </CharString>
        <CharString name="comma">
          -336 155 47 rmoveto
          467 callsubr
          -1 -142 rcurveline
          248 callgsubr
          rrcurveto
          endchar
        </CharString>
        <CharString name="copyright">
          224 42 374 rmoveto
          315 callsubr
          546 callgsubr
          rrcurveto
          686 2 rmoveto
          -29 -155 -92 -158 -240 -25 324 callgsubr
          rrcurveto
          -136 101 rmoveto
          -9 64 -41 57 -77 13 -97 -20 -75 -73 -46 -66 -18 -31 -11 -33 -2 -38 -4 -90 44 -90 130 -27 66 9 89 46 37 39 rrcurveto
          29 4 -7 16 -29 hhcurveto
          -34 -33 -62 -31 -51 -16 -75 37 -18 53 4 76 3 59 47 82 75 43 18 3 rcurveline
          28 -26 14 -24 1 -54 36 -10 39 9 21 27 rrcurveto
          endchar
        </CharString>
        <CharString name="currency">
          123 239 340 rmoveto
          17 91 49 81 103 58 55 -51 38 -71 8 -69 -21 -99 -54 -65 -109 -49 -55 45 -28 53 -3 76 rrcurveto
          272 240 rmoveto
          31 -29 -33 21 -29 hhcurveto
          -56 -60 -34 -48 -50 hvcurveto
          -96 123 -66 -2 -17 -33 13 -37 rlinecurve
          128 -93 rlineto
          -46 -57 -30 -67 -55 vvcurveto
          -49 18 -45 26 -37 vhcurveto
          -125 -79 -15 -37 14 -33 66 -6 rlinecurve
          100 111 rlineto
          -28 31 36 -17 30 hhcurveto
          46 52 23 36 47 hvcurveto
          102 -114 67 5 15 34 -16 37 rlinecurve
          -123 78 rlineto
          54 54 39 69 59 vvcurveto
          -1 41 -22 53 -31 47 120 75 rcurveline
          15 38 -15 33 -66 5 rrcurveto
          endchar
        </CharString>
        <CharString name="d">
          -43 152 callsubr
          37 161 rmoveto
          56 callsubr
          61 229 rcurveline
          -38 20 -37 -7 -62 -32 rrcurveto
          endchar
        </CharString>
        <CharString name="dagger">
          -110 326 584 rmoveto
          64 217 -34 24 -52 -5 -51 -26 rlinecurve
          -22 -218 -129 18 -24 -30 -4 -31 18 -20 rlinecurve
          133 10 -3 -32 -121 -775 21 -13 17 0 15 10 rlinecurve
          156 814 144 -6 27 34 4 35 -18 14 rlinecurve
          endchar
        </CharString>
        <CharString name="daggerdbl">
          -105 316 533 rmoveto
          143 -6 27 33 4 36 -17 13 rlinecurve
          -143 -21 62 220 -33 24 -50 -4 -50 -27 rlinecurve
          -20 -220 -132 18 -23 -29 -4 -32 17 -20 rlinecurve
          136 11 -33 -273 -59 -263 -145 6 -28 -34 -3 -35 17 -14 rlinecurve
          145 21 -64 -220 33 -24 50 5 49 27 rlinecurve
          21 219 131 -19 24 31 4 30 -17 21 rlinecurve
          -137 -10 33 270 rlineto
          endchar
        </CharString>
        <CharString name="danda">
          -184 247 446 255 callgsubr
        </CharString>
        <CharString name="dcaron">
          61 152 callsubr
          37 161 rmoveto
          56 callsubr
          61 229 rcurveline
          -38 20 -37 -7 -62 -32 rrcurveto
          214 -18 rmoveto
          455 callgsubr
          58 48 53 76 494 callgsubr
          rrcurveto
          endchar
        </CharString>
        <CharString name="dcroat">
          -43 152 callsubr
          139 297 rmoveto
          36 135 -38 20 -37 -7 -62 -32 rlinecurve
          -118 vlineto
          -97 3 -21 -28 -4 -20 14 -15 rlinecurve
          107 3 rlineto
          -77 vlineto
          56 callsubr
          10 37 rcurveline
          112 3 28 31 4 26 -16 9 rlinecurve
          endchar
        </CharString>
        <CharString name="degree">
          -126 309 762 rmoveto
          -96 -110 -111 -85 1 hvcurveto
          -72 80 -64 54 91 121 102 77 -2 vhcurveto
          57 -2 -78 96 -59 hhcurveto
          -13 -43 rmoveto
          30 -32 21 -43 5 -42 -12 -61 -29 -40 -62 -31 -28 29 -16 32 -3 46 9 56 28 50 57 36 rrcurveto
          endchar
        </CharString>
        <CharString name="dieresis">
          -239 141 615 -20 callgsubr
          endchar
        </CharString>
        <CharString name="divide">
          148 683 381 rmoveto
          -310 -16 -307 4 -21 -28 -4 -28 14 -16 rlinecurve
          612 8 28 32 4 34 -16 10 rlinecurve
          -366 -285 rmoveto
          32 40 25 32 22 hvcurveto
          35 -5 -34 39 -26 hhcurveto
          -36 -5 -37 -42 -4 -39 rrcurveto
          -27 3 21 -18 24 hhcurveto
          58 349 rmoveto
          32 41 25 33 21 hvcurveto
          34 -5 -34 39 -26 hhcurveto
          -36 -4 -37 -42 -4 -39 rrcurveto
          -28 3 21 -18 24 hhcurveto
          endchar
        </CharString>
        <CharString name="dollar">
          32 333 320 rmoveto
          63 -34 51 -29 -31 vvcurveto
          -67 -66 -59 -90 -29 vhcurveto
          21 372 rmoveto
          -64 37 -51 34 -2 35 -1 42 86 64 75 24 rrcurveto
          31 -46 rmoveto
          12 32 28 -27 24 -35 21 -64 rlinecurve
          61 -9 34 22 8 40 -32 62 -52 49 -67 30 38 101 rcurveline
          -14 30 -24 11 -34 -11 -22 -118 rcurveline
          -114 -15 -122 -77 -46 -108 14 -91 102 -63 92 -50 -40 -220 rcurveline
          -13 -40 -59 46 -24 38 -23 77 rlinecurve
          -57 18 -28 -22 -29 -47 18 -63 85 -78 94 -38 -35 -105 rcurveline
          15 -31 27 -15 33 9 23 133 rcurveline
          168 33 95 87 18 115 -31 76 -95 57 -85 49 rrcurveto
          endchar
        </CharString>
        <CharString name="dotaccent">
          -422 144 617 116 callsubr
          endchar
        </CharString>
        <CharString name="dotlessi">
          236 callsubr
          endchar
        </CharString>
        <CharString name="dottedcircle">
          94 139 517 rmoveto
          -26 18 -19 26 26 18 19 26 25 -18 19 -26 -26 -18 -19 -25 vhcurveto
          -82 -110 rmoveto
          -25 20 -19 26 24 20 19 25 25 -20 19 -24 -26 -20 -19 -25 vhcurveto
          -13 -126 rmoveto
          -25 19 -18 25 26 18 18 549 callgsubr
          52 -116 rmoveto
          -26 18 -18 26 25 19 18 26 25 -19 19 -25 -26 -18 -19 -25 vhcurveto
          101 -75 rmoveto
          -26 19 -20 26 25 19 20 26 24 -19 20 -25 -26 -19 -20 -24 vhcurveto
          127 -16 rmoveto
          -26 18 -18 26 26 19 18 26 26 -19 18 -26 -26 -18 -18 -26 vhcurveto
          121 53 rmoveto
          -26 19 -18 25 25 20 18 26 25 -20 19 -25 -25 -19 -19 -25 vhcurveto
          73 98 rmoveto
          -25 19 -19 26 24 19 19 25 26 -19 19 -24 -26 -19 -19 -26 vhcurveto
          10 134 rmoveto
          -26 18 -18 26 25 19 18 26 26 -19 18 -25 -26 -18 -18 -26 vhcurveto
          -50 118 rmoveto
          -25 19 -19 25 26 18 19 549 callgsubr
          -95 68 rmoveto
          -24 19 -20 26 25 18 20 24 26 -18 19 -25 -26 -19 -19 -26 vhcurveto
          -126 15 rmoveto
          -26 18 -18 26 26 18 18 26 26 -18 18 -26 -26 -18 -18 -26 vhcurveto
          endchar
        </CharString>
        <CharString name="doubledanda">
          33 464 446 rmoveto
          -25 -133 -26 -116 -44 -166 22 -29 48 -9 42 13 15 148 17 134 17 134 69 290 rcurveline
          -25 27 -35 -7 -53 -25 rrcurveto
          -239 -261 255 callgsubr
        </CharString>
        <CharString name="dvA">
          152 168 callgsubr
          715 531 rmoveto
          -113 -74 callsubr
          115 -107 callsubr
          endchar
        </CharString>
        <CharString name="dvAA">
          384 168 callgsubr
          947 531 rmoveto
          -110 hlineto
          -82 callsubr
          rrcurveto
          endchar
        </CharString>
        <CharString name="dvAI">
          -59 338 857 238 callsubr
          390 callgsubr
          360 -197 -27 callsubr
        </CharString>
        <CharString name="dvAU">
          384 783 870 rmoveto
          435 callgsubr
          -25 -18 -18 -28 5 -34 28 -19 49 -7 31 36 rcurveline
          38 -11 20 -17 28 -27 26 1 17 11 3 17 rrcurveto
          95 -34 -93 445 callgsubr
          rrcurveto
          -592 -738 40 callgsubr
          947 531 rmoveto
          -110 hlineto
          -82 callsubr
          rrcurveto
          endchar
        </CharString>
        <CharString name="dvAcandra">
          152 168 callgsubr
          602 531 rmoveto
          -80 callsubr
          -7 -30 rcurveline
          -104 -89 callgsubr
          106 hlineto
          -28 -123 -74 -41 -77 -40 -74 -37 rlinecurve
          -27 16 -34 13 -41 5 -2 5 rcurveline
          95 33 68 56 20 92 -11 47 -29 36 -59 13 -78 3 -73 -25 -68 -55 -9 -26 26 -32 39 -11 51 49 61 25 54 -8 4 -5 rcurveline
          -11 -73 -49 -45 -77 -33 -18 -4 -18 -4 -19 -4 -16 -29 11 -42 33 -20 15 2 14 1 14 1 14 -2 13 -3 12 -4 7 -3 6 -3 5 -3 rrcurveto
          -163 -73 -127 -48 -51 vvcurveto
          -37 68 -52 66 -5 vhcurveto
          101 -1 197 103 112 vvcurveto
          17 -8 19 -15 18 vhcurveto
          62 32 64 35 60 33 7 -10 rcurveline
          -35 -42 -72 -311 170 callsubr
          115 10 callsubr
          -17 223 callsubr
        </CharString>
        <CharString name="dvAnusvara">
          384 callsubr
        </CharString>
        <CharString name="dvAnusvara.amI">
          384 callsubr
        </CharString>
        <CharString name="dvB">
          -320 256 254 rmoveto
          231 callsubr
          -22 11 -14 25 41 vvcurveto
          46 14 47 336 callsubr
          -42 33 -32 rrcurveto
          107 128 rmoveto
          -24 52 -35 71 -61 4 rrcurveto
          85 callsubr
          59 66 67 73 53 61 -31 21 rcurveline
          -31 -31 -37 39 -35 41 -32 41 rlinecurve
          264 callsubr
          34 -4 26 -41 20 -44 rrcurveto
          121 264 212 callsubr
        </CharString>
        <CharString name="dvBA">
          -88 319 127 callsubr
          -360 -99 callgsubr
          362 hlineto
          -31 -149 284 callgsubr
          85 callsubr
          244 callsubr
        </CharString>
        <CharString name="dvBH">
          -197 172 212 rmoveto
          -29 11 -16 13 -15 23 34 18 34 19 33 19 -10 -33 -11 -33 -11 -31 rrcurveto
          95 395 -32 callgsubr
          220 -79 rmoveto
          -50 -33 -55 -34 -56 -32 15 75 14 76 13 76 18 callgsubr
          90 39 rcurveline
          471 callsubr
          -4 -18 -4 -20 -5 -19 rlinecurve
          -56 -31 -57 -29 -53 -25 409 callgsubr
          65 15 65 14 65 70 42 67 42 65 41 rrcurveto
          72 120 rmoveto
          -139 -89 callgsubr
          140 -81 callsubr
        </CharString>
        <CharString name="dvBHA">
          22 172 212 416 callgsubr
          34 20 -11 466 callgsubr
          95 395 -32 callgsubr
          -15 -141 rmoveto
          435 callsubr
          409 callgsubr
          67 16 67 15 67 47 29 46 29 46 95 callgsubr
          -45 -46 -95 -68 -52 -28 184 callgsubr
          5 -28 48 -38 49 -7 rrcurveto
          532 185 rmoveto
          -246 -89 callgsubr
          247 -81 callsubr
        </CharString>
        <CharString name="dvBH_LA">
          497 181 210 442 callgsubr
          -17 28 32 22 38 12 39 373 callgsubr
          86 396 -32 callgsubr
          934 5 -75 callsubr
          -534 -99 callgsubr
          536 hlineto
          -27 -117 -64 -75 -77 -73 -60 -41 rlinecurve
          -5 4 10 16 10 23 7 18 rlinecurve
          149 callsubr
          -40 -18 -46 -43 -31 -44 -46 9 -52 6 -53 219 callgsubr
          -14 350 callsubr
          -45 -46 -95 -68 -52 -28 rrcurveto
          172 callsubr
          90 39 rcurveline
          471 callsubr
          -2 -15 -6 -30 -8 -35 rlinecurve
          -61 -6 -57 -14 -43 -25 -20 -14 -10 -26 -1 -30 27 -52 55 226 callgsubr
          12 53 rrcurveto
          48 47 -5 -6 43 hvcurveto
          -10 -21 -6 -20 -17 417 callgsubr
          425 callgsubr
          33 452 callgsubr
          -16 -22 -2 -30 39 -29 55 52 callsubr
        </CharString>
        <CharString name="dvBH_NA">
          393 551 268 callsubr
          -385 -24 rmoveto
          -33 13 -23 21 -17 28 35 22 39 13 42 7 -10 -40 -11 -37 -9 -20 rrcurveto
          88 412 -32 callgsubr
          -15 -141 rmoveto
          471 callsubr
          -1 -19 -6 -35 -8 -37 rlinecurve
          -64 -7 -61 -17 -42 -25 -21 -15 -9 -25 -2 -30 28 -53 55 -40 64 -11 33 333 callgsubr
          13 53 rrcurveto
          46 46 -5 -5 41 hvcurveto
          -13 -17 -6 -22 -26 169 callsubr
          59 -8 357 callgsubr
          -19 51 64 39 65 40 65 43 9 -63 callgsubr
          -106 -75 -136 -76 -115 -62 -49 18 -60 9 -62 1 27 116 25 131 9 66 18 callgsubr
          rrcurveto
          934 185 rmoveto
          -674 -92 callgsubr
          675 -81 callsubr
        </CharString>
        <CharString name="dvBH_R">
          -196 174 219 rmoveto
          -30 11 -14 12 -15 21 34 18 33 18 33 19 -9 -32 -11 -31 -11 -31 rrcurveto
          92 389 -32 callgsubr
          220 -79 rmoveto
          -50 -33 -54 -34 -56 -32 15 74 13 76 13 77 18 callgsubr
          90 39 rcurveline
          471 callsubr
          -3 -18 -4 -18 -5 -19 rlinecurve
          -55 -30 -56 -27 -51 -25 408 callgsubr
          63 14 63 14 64 69 41 68 42 64 41 rrcurveto
          -94 -249 rmoveto
          -78 -85 -128 -90 -118 312 callsubr
          endchar
        </CharString>
        <CharString name="dvBH_RA">
          22 174 219 rmoveto
          -30 11 -14 13 -16 21 35 20 34 19 33 19 -9 -33 -11 -33 -12 -32 rrcurveto
          92 389 -32 callgsubr
          -15 -141 rmoveto
          471 callsubr
          -3 -16 -4 -17 -3 -17 rlinecurve
          -56 -30 -55 -29 -53 -28 408 callgsubr
          65 15 65 14 65 48 29 533 callgsubr
          -54 -231 -83 311 callsubr
          115 82 55 63 9 -5 rcurveline
          -50 -127 323 callgsubr
          42 449 callgsubr
          -44 -32 -47 -31 -50 -29 14 72 13 73 13 75 18 callgsubr
          rrcurveto
          532 185 rmoveto
          -246 -89 callgsubr
          247 -81 callsubr
        </CharString>
        <CharString name="dvBH_R_YA">
          393 817 73 callsubr
          -680 -344 rmoveto
          -30 11 -13 16 -15 23 31 15 31 10 32 7 -8 -25 -8 -25 -10 -26 rrcurveto
          90 380 -32 callgsubr
          829 5 -101 callgsubr
          -469 71 callgsubr
          94 -26 callgsubr
          -3 -67 -119 -54 -79 -53 -49 9 -48 5 -47 2 22 98 17 98 18 106 rrcurveto
          18 callgsubr
          90 39 rcurveline
          471 callsubr
          -5 -27 -6 -26 -6 -26 rlinecurve
          -60 -6 -53 -15 -40 -24 -23 375 callsubr
          52 -30 59 -8 33 5 39 13 20 21 11 41 10 41 9 40 35 1 36 -3 38 -4 rrcurveto
          515 callsubr
          -12 5 -14 8 -13 vhcurveto
          -79 -78 -116 -79 -108 -39 -8 -27 11 -22 42 -22 102 57 110 81 78 91 rrcurveto
          -32 34 47 -24 33 hhcurveto
          62 117 82 88 77 hvcurveto
          -16 callgsubr
        </CharString>
        <CharString name="dvBH_VA">
          328 735 317 -5 callgsubr
          -564 -148 442 callgsubr
          -17 28 32 22 38 12 39 373 callgsubr
          86 396 -32 callgsubr
          765 5 rmoveto
          -113 35 callgsubr
          -364 -92 callgsubr
          368 158 callsubr
          -90 -80 -71 -88 -36 hvcurveto
          -42 8 -49 527 callgsubr
          134 callgsubr
          47 47 -5 -6 42 hvcurveto
          -4 -20 -3 -20 -20 vvcurveto
          -89 62 -57 101 -4 vhcurveto
          42 50 48 55 45 51 10 -10 rcurveline
          -40 301 callsubr
        </CharString>
        <CharString name="dvBH_YA">
          393 817 73 callsubr
          -675 -361 442 callgsubr
          -17 28 32 22 38 12 39 373 callgsubr
          86 396 -32 callgsubr
          829 5 -101 callgsubr
          -440 -92 callgsubr
          65 -26 callgsubr
          -3 -67 -118 -54 -79 -52 -44 8 -50 6 -51 438 callsubr
          134 callgsubr
          37 37 -3 -5 35 hvcurveto
          515 callsubr
          -56 100 234 callgsubr
        </CharString>
        <CharString name="dvB_BA">
          158 565 317 rmoveto
          -31 -31 -37 39 -35 41 -32 41 rlinecurve
          21 23 22 534 callgsubr
          20 172 callgsubr
          38 -41 33 -32 -32 -32 503 callgsubr
          rrcurveto
          -246 hmoveto
          14 callgsubr
          93 287 rmoveto
          24 -3 20 -21 17 -28 -18 -28 -13 -31 -9 -31 -31 33 -29 36 -27 34 264 callsubr
          rrcurveto
          616 175 rmoveto
          -113 35 callgsubr
          -606 -99 callgsubr
          608 hlineto
          -31 -149 284 callgsubr
          -57 -53 -32 -46 -41 hvcurveto
          -22 39 -30 36 -43 3 rrcurveto
          85 callsubr
          30 34 33 36 31 35 15 -67 58 -35 79 -3 51 57 51 56 45 51 9 -8 rcurveline
          -40 -66 -37 -154 -95 callsubr
        </CharString>
        <CharString name="dvB_BHA">
          265 430 212 416 callgsubr
          33 370 callgsubr
          -263 -26 78 callgsubr
          223 315 -32 callgsubr
          -104 5 rmoveto
          -398 -99 callgsubr
          350 306 callsubr
          -17 -4 -18 rlinecurve
          -46 -25 -46 -25 -46 -24 -13 78 -32 102 -72 347 callgsubr
          34 33 36 36 34 34 30 -52 55 -30 56 -8 33 4 39 330 callsubr
          47 29 45 95 callgsubr
          -25 -26 -42 -33 -40 -29 rrcurveto
          525 6 rmoveto
          -246 -89 callgsubr
          247 -81 callsubr
        </CharString>
        <CharString name="dvB_BH_RA">
          238 421 219 rmoveto
          -30 11 -14 13 -15 21 34 20 34 19 33 19 -9 -33 -11 -33 -12 -32 rrcurveto
          -255 -32 78 callgsubr
          212 315 -32 callgsubr
          -93 5 rmoveto
          -398 -99 callgsubr
          339 306 callsubr
          -16 -4 -17 rlinecurve
          -43 -24 -43 -22 -42 -23 -14 78 -32 95 -70 347 callgsubr
          33 32 35 34 33 34 30 -49 51 -23 56 -8 34 4 39 13 20 21 17 65 15 65 14 66 48 28 533 callgsubr
          -54 -231 -83 311 callsubr
          115 82 56 55 callgsubr
          42 449 callgsubr
          -43 -32 -48 -31 -50 -29 15 72 13 73 13 75 -15 350 callsubr
          -24 -25 -38 -30 -39 -28 rrcurveto
          519 1 rmoveto
          -246 -89 callgsubr
          247 -81 callsubr
        </CharString>
        <CharString name="dvB_DA">
          190 175 159 rmoveto
          -32 16 -16 36 41 vvcurveto
          31 10 32 16 27 vhcurveto
          29 -36 38 -41 31 -30 rrcurveto
          -11 178 rmoveto
          33 -4 30 -47 23 -47 -18 -14 -16 -15 -10 -17 -35 36 -34 39 -30 39 18 17 20 11 19 2 rrcurveto
          622 208 rmoveto
          -835 -99 callgsubr
          493 123 callsubr
          -3 -8 rcurveline
          -46 -56 -110 -42 -81 -50 -27 57 -40 77 -60 4 rrcurveto
          -115 -95 -124 -102 -93 64 -57 101 -4 hvcurveto
          82 93 20 -74 92 -64 106 -15 rlinecurve
          16 callsubr
        </CharString>
        <CharString name="dvB_DHA">
          307 174 216 151 callsubr
          601 141 -75 callsubr
          -64 -92 callgsubr
          66 hlineto
          -41 -178 -62 -81 -150 -108 32 callgsubr
          89 24 138 516 callsubr
          -36 -45 -48 -206 -95 callsubr
        </CharString>
        <CharString name="dvB_DH_VA">
          581 988 317 -5 callgsubr
          -824 -142 151 callsubr
          875 141 -41 callsubr
          -340 -92 callgsubr
          344 471 callgsubr
          -6 -3 -24 44 -33 44 -42 -1 rlinecurve
          -74 -67 -49 -66 -42 hvcurveto
          -1 1 -62 -81 -151 -109 32 callgsubr
          78 21 118 74 86 75 rrcurveto
          -1 -6 0 -5 -5 92 callgsubr
        </CharString>
        <CharString name="dvB_JA">
          353 157 159 -28 callgsubr
        </CharString>
        <CharString name="dvB_JHA">
          399 833 445 rmoveto
          -74 -57 -122 -62 -86 -35 -40 6 -76 22 -30 21 4 12 rcurveline
          68 21 100 26 55 28 24 21 13 40 -5 26 -18 263 callsubr
          263 hlineto
          -705 -412 rmoveto
          14 callgsubr
          131 127 rmoveto
          -37 39 -35 41 -32 41 264 callsubr
          30 -4 24 -32 19 -38 -8 -20 -3 -21 3 -18 rrcurveto
          791 308 -101 callgsubr
          -846 -99 callgsubr
          473 436 callgsubr
          -5 -3 -5 -4 -4 -4 -24 45 -32 49 -50 3 rrcurveto
          85 callsubr
          57 64 65 70 52 60 80 -44 125 -5 32 -40 2 -8 rcurveline
          -29 -39 -56 -33 -72 -1 -32 15 -25 19 -22 24 -42 12 -44 -46 -20 -47 64 -71 73 -100 44 -83 rrcurveto
          43 398 callsubr
          -49 72 -61 75 -48 363 callsubr
          26 -16 21 -33 16 vhcurveto
          60 25 80 41 71 46 8 -10 rcurveline
          -36 -43 -68 -293 -96 callsubr
        </CharString>
        <CharString name="dvB_J_YA">
          721 1145 -77 callsubr
          -1027 -412 rmoveto
          14 callgsubr
          131 127 rmoveto
          -37 39 -35 41 -32 41 264 callsubr
          31 -4 24 -34 19 -39 -16 -27 -11 -27 -4 -24 rrcurveto
          1136 330 -101 callgsubr
          -1169 -99 callgsubr
          792 57 callgsubr
          -2 -62 -102 -51 -77 -48 -52 -25 -55 -7 -44 16 -18 11 -21 13 -14 18 rrcurveto
          -36 350 callgsubr
          rrcurveto
          16 156 callgsubr
          -4 33 -25 19 -37 -3 -17 -10 -14 -13 -13 -14 -24 48 -33 53 -52 3 rrcurveto
          85 callsubr
          40 45 44 48 40 45 14 -78 54 -70 65 -6 440 callsubr
          7 88 callgsubr
          30 -14 19 -4 22 0 23 454 callsubr
          100 -77 58 61 callgsubr
          12 -10 -41 -70 -46 -194 -71 callgsubr
          43 13 rlinecurve
          56 -97 callgsubr
        </CharString>
        <CharString name="dvB_JxA">
          353 367 67 -35 callsubr
          -210 92 -28 callgsubr
        </CharString>
        <CharString name="dvB_LA">
          333 157 159 rmoveto
          14 callgsubr
          93 287 rmoveto
          30 -4 23 -31 19 -38 -19 -23 -17 -26 -11 -24 -32 35 -31 36 -28 36 264 callsubr
          rrcurveto
          790 175 3 callgsubr
          -780 -99 callgsubr
          782 hlineto
          -27 -117 -64 -75 -77 -73 -60 -41 rlinecurve
          -5 4 10 16 10 23 7 18 rlinecurve
          149 callsubr
          -22 -10 -23 -17 -22 -20 -23 47 -33 54 -53 3 rrcurveto
          85 callsubr
          32 35 33 38 33 36 18 -68 53 -81 85 -56 425 callgsubr
          32 -11 18 420 callsubr
          -16 -22 rrcurveto
          -2 -30 39 -29 55 -4 56 44 70 65 52 49 9 -9 rcurveline
          -28 -48 -61 -262 -80 callgsubr
        </CharString>
        <CharString name="dvB_L_YA">
          653 1077 -77 callsubr
          -959 -412 rmoveto
          14 callgsubr
          93 287 rmoveto
          33 -4 25 -38 20 -42 -19 -24 -15 -25 -7 -25 -37 38 -35 41 -31 40 264 callsubr
          rrcurveto
          1111 175 -101 callgsubr
          -1101 -99 callgsubr
          724 hlineto
          -58 callsubr
          -3 -79 -164 -61 -70 -61 -30 -19 -31 -16 -27 -14 -6 5 rcurveline
          12 21 5 23 4 15 -24 callsubr
          -29 -7 -24 -12 -27 -19 -23 -24 -24 50 -34 60 -56 4 rrcurveto
          85 callsubr
          36 41 40 43 37 42 14 -75 57 -89 87 -60 45 8 27 34 -1 30 -85 52 -37 64 -5 61 1 58 37 57 52 24 30 -10 17 -22 4 -24 rrcurveto
          -25 -13 -29 -19 -26 vhcurveto
          -27 2 46 -30 47 hhcurveto
          22 14 24 499 callgsubr
          48 hhcurveto
          62 118 82 88 77 hvcurveto
          11 -10 -40 -70 -47 -194 30 -28 48 -100 callsubr
        </CharString>
        <CharString name="dvB_NA">
          266 424 34 callsubr
          -258 -26 78 callgsubr
          394 168 rmoveto
          224 callgsubr
          -108 -76 -138 -76 -115 -63 -14 77 -32 94 -70 347 callgsubr
          32 32 35 34 33 33 32 -50 56 -25 57 -8 34 5 36 171 callsubr
          -947 -99 callgsubr
          946 -107 callgsubr
        </CharString>
        <CharString name="dvB_R">
          -322 155 211 rmoveto
          -24 17 -10 24 27 vvcurveto
          30 12 33 18 29 vhcurveto
          26 -33 34 -36 29 -29 -31 -23 -30 -22 -24 -17 rrcurveto
          206 168 rmoveto
          -25 52 -36 72 -58 6 rrcurveto
          -121 -3 -98 -132 -106 vvcurveto
          -63 35 -54 81 -14 vhcurveto
          59 52 59 43 46 38 12 -14 rcurveline
          -76 -90 -138 -88 -119 -44 -8 -27 11 -22 42 -22 167 100 129 105 32 103 -16 29 rcurveline
          0 vlineto
          -16 35 -47 -35 -33 35 -31 38 -29 37 rlinecurve
          20 19 23 12 22 3 33 -5 27 -42 19 -42 rrcurveto
          124 266 212 callsubr
        </CharString>
        <CharString name="dvB_RA">
          -93 318 331 rmoveto
          -40 -30 -37 37 -27 32 -31 39 rlinecurve
          20 447 callgsubr
          30 10 32 16 28 vhcurveto
          27 -33 32 -34 29 -28 -28 -21 -28 -21 -28 -20 rrcurveto
          -19 14 -11 22 31 vvcurveto
          489 343 rmoveto
          -113 -70 callsubr
          -13 -9 -9 -79 callsubr
          14 -13 rcurveline
          358 hlineto
          -31 -149 -3 -1 rlineto
          41 -23 -33 46 -40 hhcurveto
          -115 -104 -133 -109 -64 42 -51 74 -14 hvcurveto
          65 52 56 47 61 48 11 -9 rcurveline
          -79 -99 -142 -93 -129 -49 -8 -27 11 -22 42 -22 94 -17 callsubr
        </CharString>
        <CharString name="dvB_SA">
          404 835 439 rmoveto
          -68 -61 -141 -55 -40 381 callsubr
          -693 -394 459 callsubr
          34 11 35 17 30 vhcurveto
          31 -38 39 -43 32 -31 rrcurveto
          34 32 rmoveto
          -39 37 -35 43 -32 41 19 20 21 13 447 callsubr
          813 328 -101 callgsubr
          -851 -99 callgsubr
          405 hlineto
          -9 -7 -8 296 callsubr
          30 32 43 25 44 348 callsubr
          3 hvcurveto
          -3 480 callsubr
          -88 -14 -15 2 -15 3 -12 5 -25 57 -49 113 380 callgsubr
          68 -74 108 -110 78 -56 31 8 24 33 -7 30 -69 54 -88 412 callsubr
          48 119 45 54 75 hvcurveto
          9 -11 -34 -46 -63 -268 -71 callgsubr
          43 13 rlinecurve
          56 -97 callgsubr
        </CharString>
        <CharString name="dvB_SHA">
          363 173 177 459 callsubr
          35 11 35 17 30 vhcurveto
          31 -38 39 -43 32 -31 rrcurveto
          34 31 rmoveto
          -37 38 -37 42 -32 42 19 20 21 12 447 callsubr
          207 211 rmoveto
          -15 12 -18 23 16 vvcurveto
          28 52 48 31 3 vhcurveto
          41 -6 18 -51 -53 vvcurveto
          -15 -3 -15 -5 -15 vhcurveto
          -579 142 rmoveto
          -90 callsubr
          380 361 callsubr
          -15 2 -13 4 -13 5 -26 57 -48 112 380 callgsubr
          67 -73 104 -109 79 -58 340 callgsubr
          -59 200 callsubr
          -81 -92 callgsubr
          84 313 callgsubr
          -96 callsubr
        </CharString>
        <CharString name="dvB_TA">
          231 175 175 rmoveto
          -32 16 -16 36 41 vvcurveto
          35 12 36 17 30 vhcurveto
          32 -39 40 -45 33 -31 -28 -26 -30 -27 -28 -26 rrcurveto
          120 110 rmoveto
          -39 39 -37 43 -32 43 20 21 22 13 20 2 30 -4 37 -69 21 -45 -13 -9 -11 -12 -9 -14 rrcurveto
          635 328 -75 callsubr
          -678 -99 callgsubr
          680 hlineto
          -32 -137 -86 -47 -105 -34 -90 -14 rlinecurve
          -25 53 -45 113 -67 4 rrcurveto
          -117 -104 -132 -111 -93 64 -57 101 -4 hvcurveto
          89 95 26 -82 55 -62 77 -65 rlinecurve
          167 callsubr
        </CharString>
        <CharString name="dvB_VA">
          163 569 37 callgsubr
          -422 -200 rmoveto
          14 callgsubr
          93 287 rmoveto
          24 -3 20 -22 17 -28 -17 -28 -13 -31 -7 -32 -32 34 -30 36 -28 35 264 callsubr
          rrcurveto
          620 175 -41 callsubr
          -611 -99 callgsubr
          614 471 callgsubr
          174 callgsubr
          -60 -54 -31 -47 -41 hvcurveto
          -23 40 -30 36 -43 3 rrcurveto
          85 callsubr
          33 37 35 38 34 38 16 -66 57 -41 85 -3 43 50 48 55 44 51 10 -10 rcurveline
          -39 -59 -36 -154 -96 callsubr
        </CharString>
        <CharString name="dvB_YA">
          256 680 -77 callsubr
          -546 -407 rmoveto
          -31 15 -15 381 callgsubr
          80 283 rmoveto
          32 543 callsubr
          -17 -31 33 -30 36 -26 34 20 22 24 15 26 4 rrcurveto
          711 174 -101 callgsubr
          -704 -99 callgsubr
          327 57 callgsubr
          -2 -56 -84 -47 -74 -45 -20 68 -42 63 -54 7 rrcurveto
          -126 -3 -98 -131 -125 460 callsubr
          25 31 34 42 33 42 rrcurveto
          -42 33 61 -38 41 86 callsubr
          12 -10 -41 -70 -46 -194 -71 callgsubr
          43 13 rlinecurve
          56 -97 callgsubr
        </CharString>
        <CharString name="dvC">
          -145 597 173 callgsubr
          -588 -89 callgsubr
          41 -192 rmoveto
          337 callsubr
          3 -8 rlineto
          369 callgsubr
          101 11 126 116 77 106 -37 36 rcurveline
          -61 -94 -114 -86 -60 -7 148 callsubr
          -20 -15 3 -55 27 -26 rrcurveto
          endchar
        </CharString>
        <CharString name="dvCA">
          87 795 46 callgsubr
          -539 -89 callgsubr
          542 hlineto
          -39 -169 -61 -93 -113 -85 -60 -7 rlinecurve
          -30 1 -38 33 -2 23 100 callsubr
          70 -3 vhcurveto
          80 9 96 74 74 84 13 -11 rcurveline
          -39 -71 -44 -188 -96 callsubr
        </CharString>
        <CharString name="dvCH">
          75 477 420 rmoveto
          84 callgsubr
          -11 38 -8 36 4 26 rrcurveto
          261 201 80 callgsubr
          2 45 -65 52 -47 17 85 callgsubr
          -11 9 rcurveline
          356 callsubr
          -51 18 -42 -10 -48 -15 -38 -4 -8 14 rcurveline
          50 52 96 82 96 49 rrcurveto
          356 -107 callgsubr
        </CharString>
        <CharString name="dvCHA">
          75 164 133 -18 callgsubr
        </CharString>
        <CharString name="dvCH_NA">
          635 793 211 72 callsubr
          -123 424 callgsubr
          14 20 6 508 callsubr
          -588 -51 rmoveto
          84 callgsubr
          -11 38 -8 36 4 26 rrcurveto
          866 201 rmoveto
          -1311 -68 callgsubr
          2 45 -65 52 -47 17 85 callgsubr
          -11 9 rcurveline
          356 callsubr
          -51 18 -42 -10 -48 -15 -38 -4 -8 14 rcurveline
          50 52 96 82 96 49 rrcurveto
          961 -107 callgsubr
        </CharString>
        <CharString name="dvCH_RA">
          75 196 -44 rmoveto
          -3 -64 28 -63 45 -47 458 callsubr
          50 -11 36 -6 74 -26 25 -19 7 -34 -1 -59 -37 -58 -71 -46 -75 rrcurveto
          -26 19 -29 59 5 vhcurveto
          22 77 33 58 48 41 rrcurveto
          -26 174 -18 callgsubr
        </CharString>
        <CharString name="dvCH_R_YA">
          618 198 -40 rmoveto
          -3 -64 29 -63 44 -48 458 callsubr
          51 -10 35 -7 75 -26 24 -19 8 -33 -1 -60 -37 281 callgsubr
          32 58 48 42 rrcurveto
          850 438 rmoveto
          -57 -91 -126 -95 -57 396 callgsubr
          1 21 callgsubr
          -604 -151 rmoveto
          84 callgsubr
          -11 38 -8 36 4 26 rrcurveto
          849 201 -75 callsubr
          -1060 -68 callgsubr
          2 45 -65 52 -47 17 85 callgsubr
          -11 9 rcurveline
          356 callsubr
          -51 18 -42 -10 -48 -15 -38 -4 -8 14 rcurveline
          50 52 96 82 96 49 rrcurveto
          335 247 callgsubr
          26 -9 4 -17 rrcurveto
          -4 -100 -264 -72 -80 vvcurveto
          -56 99 -77 59 61 callgsubr
          -73 callgsubr
        </CharString>
        <CharString name="dvCH_VA">
          91 157 487 callgsubr
          -44 14 -39 191 callgsubr
          8 3 18 -8 22 -19 1 -15 -5 -23 -19 -31 -28 -33 rrcurveto
          -71 -401 rmoveto
          -46 -42 -51 -41 -43 -39 -22 12 -7 25 2 30 10 511 callgsubr
          -21 rcurveline
          336 642 rmoveto
          -706 -92 callgsubr
          219 hlineto
          -78 -47 -71 -60 -47 -47 -11 -38 32 -43 41 -20 213 callgsubr
          -33 hhcurveto
          -102 -99 -106 -99 -10 hvcurveto
          -8 -73 48 -46 85 -2 35 35 37 33 35 34 -17 -45 -18 -42 -17 -33 1 -26 29 -14 38 3 42 110 63 179 19 124 -5 48 -10 48 -10 45 63 61 45 63 4 46 rrcurveto
          2 37 -40 42 -40 22 rrcurveto
          201 -107 callgsubr
        </CharString>
        <CharString name="dvCH_YA">
          663 1087 43 callgsubr
          -649 -151 rmoveto
          84 callgsubr
          -11 38 -8 36 4 26 rrcurveto
          894 201 -75 callsubr
          -1105 -68 callgsubr
          2 45 -65 52 -47 17 85 callgsubr
          -11 9 rcurveline
          356 callsubr
          -51 18 -42 -10 -48 -15 -38 -4 -8 14 rcurveline
          50 52 96 82 96 49 rrcurveto
          380 hlineto
          277 callsubr
          20 1 26 -9 4 -17 rrcurveto
          -4 -100 -264 -72 -80 vvcurveto
          -56 99 -77 59 61 callgsubr
          -73 callgsubr
        </CharString>
        <CharString name="dvC_CA">
          549 1257 46 callgsubr
          -1001 -89 callgsubr
          1003 474 callsubr
          -38 33 -2 23 14 31 88 40 65 28 9 28 -15 48 -25 12 -96 -6 -107 4 -102 16 -17 -13 1 -44 18 -28 -65 -84 -90 -83 -65 -6 -35 399 callgsubr
          rrcurveto
          100 callsubr
          75 -3 vhcurveto
          114 8 119 136 72 101 67 3 70 9 56 8 2 -8 rcurveline
          -71 393 callsubr
          80 9 95 74 75 83 13 -10 rcurveline
          -39 -71 -44 -188 -96 callsubr
        </CharString>
        <CharString name="dvC_CHA">
          518 608 133 rmoveto
          40 59 65 484 callsubr
          -38 -4 -7 14 rcurveline
          49 52 96 82 96 49 rrcurveto
          295 callgsubr
          -42 -37 -18 -24 -14 -65 21 240 callsubr
          247 301 rmoveto
          -1159 -89 callgsubr
          676 hlineto
          -81 -48 -79 -63 -45 -50 -3 -14 2 -15 7 -14 -64 -79 -92 -65 -52 -6 63 callsubr
          3 -8 rlineto
          369 callgsubr
          87 10 107 88 77 92 9 -9 11 -7 11 -6 48 266 callsubr
          -72 -37 -64 -33 -10 437 callsubr
          5 66 rrcurveto
          3 33 -12 45 -15 47 60 54 434 callgsubr
          127 -107 callsubr
          endchar
        </CharString>
        <CharString name="dvC_CH_VA">
          535 601 487 callgsubr
          -43 14 -40 191 callgsubr
          9 3 17 -8 22 -19 1 -15 -5 -22 -19 -31 -28 -34 rrcurveto
          -71 -401 rmoveto
          -46 -42 -50 -41 -44 -39 -22 12 -7 25 3 30 9 511 callgsubr
          -22 rcurveline
          336 643 rmoveto
          -1159 -89 callgsubr
          672 hlineto
          -78 -47 -71 -60 -47 -47 -4 -15 2 -16 7 -14 -64 -81 -95 -68 -53 -6 63 callsubr
          3 -8 rlineto
          369 callgsubr
          90 10 109 92 77 95 8 -6 8 -6 9 -4 213 callgsubr
          -32 hhcurveto
          -103 -99 -106 -99 -10 hvcurveto
          -7 -73 47 -46 85 -2 36 35 36 34 36 33 -18 -45 -17 -42 -17 -33 rrcurveto
          -26 29 -14 38 3 vhcurveto
          42 110 63 179 19 124 -4 48 -10 48 -10 45 62 62 45 62 4 46 3 37 -41 42 -40 22 rrcurveto
          202 -81 callsubr
        </CharString>
        <CharString name="dvC_MA">
          395 540 382 callsubr
          552 402 rmoveto
          -1079 -89 callgsubr
          586 392 callsubr
          -56 -30 -54 -29 -4 -2 -4 -3 -3 -3 -50 -38 -54 -32 -40 -5 63 callsubr
          3 -8 rlineto
          369 callgsubr
          58 8 58 35 50 39 32 -43 50 -25 51 -7 36 callgsubr
        </CharString>
        <CharString name="dvC_NA">
          383 541 268 callsubr
          -260 174 rmoveto
          369 callgsubr
          58 8 58 35 50 39 33 -43 52 -22 54 -7 357 callgsubr
          -19 51 64 39 65 40 65 43 9 -5 rcurveline
          308 callsubr
          -123 -66 -4 -3 -4 -5 -4 -4 -50 -38 -54 -31 -39 -5 63 callsubr
          803 221 rmoveto
          -1067 -89 callgsubr
          1068 -81 callsubr
        </CharString>
        <CharString name="dvC_R">
          -145 519 415 rmoveto
          -62 -94 -118 -90 -61 -8 185 callsubr
          75 9 88 65 73 75 15 -14 rcurveline
          -59 -103 -143 -86 -131 -54 -8 -27 11 -22 42 -22 133 81 131 88 74 127 -23 80 rcurveline
          10 12 9 11 9 12 rrcurveto
          71 247 rmoveto
          -599 -89 callgsubr
          600 -81 callsubr
        </CharString>
        <CharString name="dvC_RA">
          87 795 46 callgsubr
          -539 -89 callgsubr
          541 hlineto
          -38 -163 -60 -91 -115 -87 -59 -7 rlinecurve
          185 callsubr
          81 10 99 76 76 85 13 -11 rcurveline
          -46 -105 -170 -109 -135 -54 -8 -27 11 -22 42 -22 94 52 115 24 callgsubr
          115 -107 callsubr
          endchar
        </CharString>
        <CharString name="dvC_YA">
          427 851 -77 callsubr
          245 175 callsubr
          -61 -3 -7 -30 rcurveline
          -879 -89 callgsubr
          503 hlineto
          -58 callsubr
          -3 -85 -190 -64 -58 -67 -55 -44 -66 -41 -44 -3 360 callsubr
          rrcurveto
          100 callsubr
          70 -3 vhcurveto
          66 7 66 43 59 48 rrcurveto
          -48 28 73 -49 46 hhcurveto
          62 118 82 88 77 hvcurveto
          530 callsubr
          29 -28 48 -100 callsubr
        </CharString>
        <CharString name="dvCandrabindu">
          24 789 rmoveto
          29 24 24 28 30 -24 24 -29 -30 -24 -24 -30 -28 24 -24 30 hvcurveto
          107 51 rmoveto
          -31 -59 -44 -36 -65 -9 -47 36 -34 65 -3 73 -36 15 -32 -14 -26 -39 rrcurveto
          -91 21 91 -94 64 hhcurveto
          74 94 48 62 41 hvcurveto
          -10 33 -24 18 -33 -8 rrcurveto
          endchar
        </CharString>
        <CharString name="dvD">
          -63 41 270 callsubr
          -1 15 -70 335 callgsubr
          569 640 47 callsubr
        </CharString>
        <CharString name="dvDA">
          -63 610 621 47 callsubr
        </CharString>
        <CharString name="dvDA_mU">
          101 callsubr
          -69 -82 -262 -59 -130 vvcurveto
          -84 109 -84 113 -11 vhcurveto
          46 61 49 66 34 37 7 -5 rcurveline
          -25 -60 -31 -75 -30 -79 -37 -3 -52 -20 -37 -24 -2 -30 25 -27 37 -11 34 25 18 12 34 5 rrcurveto
          7 7 -5 -7 5 hvcurveto
          -5 -51 -64 -38 -57 -13 -91 34 -31 48 -25 72 -37 6 -31 -15 -24 -43 38 -71 99 -75 97 -4 rrcurveto
          85 4 144 73 70 vvcurveto
          19 -22 22 -27 17 vhcurveto
          28 96 21 70 42 102 196 callgsubr
        </CharString>
        <CharString name="dvDA_mUU">
          101 callsubr
          -69 -82 -262 -59 -130 vvcurveto
          -84 109 -84 113 -11 vhcurveto
          46 61 49 66 34 37 7 -5 rcurveline
          -26 -62 -32 -77 -31 -83 rrcurveto
          5 -16 -15 3 -13 hhcurveto
          -54 -60 -60 -38 -32 44 -51 60 -28 hvcurveto
          44 15 17 20 -3 33 -34 14 -28 18 -17 25 5 13 6 7 9 5 102 -32 57 -54 65 -90 48 13 25 26 -3 34 -32 35 -59 46 -59 34 28 101 19 72 46 112 rrcurveto
          196 callgsubr
        </CharString>
        <CharString name="dvDA_mvR">
          245 callsubr
          103 -82 123 -15 533 callsubr
          6 -5 rcurveline
          -20 -61 -24 -59 -35 -88 -79 -36 -83 -71 -1 -50 rrcurveto
          -35 -1 49 -49 45 hhcurveto
          75 82 15 54 62 hvcurveto
          7 26 -19 21 -40 8 -39 -35 -56 -38 -76 7 -16 24 rcurveline
          32 52 49 30 78 30 40 124 18 60 41 98 182 callgsubr
          175 72 67 58 27 30 12 34 -9 26 rrcurveto
          25 callsubr
        </CharString>
        <CharString name="dvDD">
          -106 171 -19 rmoveto
          366 callgsubr
          20 10 9 329 callsubr
          431 640 -84 callgsubr
        </CharString>
        <CharString name="dvDDA">
          -106 602 621 -84 callgsubr
        </CharString>
        <CharString name="dvDDH">
          -28 207 270 callsubr
          -1 15 -70 335 callgsubr
          151 245 -62 callgsubr
        </CharString>
        <CharString name="dvDDHA">
          -28 358 226 -62 callgsubr
        </CharString>
        <CharString name="dvDDH_DDHA">
          -103 319 304 rmoveto
          24 -9 11 -8 8 -16 -22 -32 -56 -36 -56 -11 -14 5 -13 6 -12 7 47 35 48 34 35 25 rrcurveto
          -67 -399 rmoveto
          23 -9 12 -8 7 -16 -21 -32 -57 -36 -56 -11 -14 4 -13 7 -12 7 48 35 47 34 36 25 rrcurveto
          350 716 488 callsubr
          246 hlineto
          30 -19 18 -13 15 -25 -3 -7 rcurveline
          -48 -45 -136 -55 -67 -48 -18 -17 -10 -29 -3 -24 19 -69 91 -73 77 -2 rrcurveto
          5 hlineto
          9 -9 8 -9 8 -12 163 callsubr
          -9 12 -10 10 -12 9 67 25 74 51 1 39 rrcurveto
          2 33 -54 49 -66 2 -55 -39 -52 -34 -61 -45 -15 17 -10 18 -1 17 1 46 189 64 60 63 20 22 6 20 -7 20 -10 16 -16 14 -18 12 rrcurveto
          239 -107 callgsubr
        </CharString>
        <CharString name="dvDDH_R">
          -28 96 -172 rmoveto
          -31 -7 -13 -25 6 -41 110 -21 73 -29 90 -53 17 512 callsubr
          154 145 rmoveto
          -2 -47 15 -41 35 -45 rrcurveto
          32 5 17 11 18 vvcurveto
          -34 48 -2 21 -3 55 -24 21 -21 7 -35 -1 -55 -32 -46 -46 -44 -57 -1 -22 19 -25 59 3 24 61 26 37 35 31 rrcurveto
          113 264 rmoveto
          18 -6 18 -15 5 -14 -22 -46 -54 -37 -68 -13 -16 6 -16 8 -14 9 62 46 48 38 39 24 rrcurveto
          308 382 rmoveto
          -624 -89 callgsubr
          236 hlineto
          45 -29 29 -18 19 -32 -4 -10 rcurveline
          -56 -54 -158 -68 -76 -56 rrcurveto
          -22 -22 -10 -30 -29 vvcurveto
          28 -81 100 -85 94 -2 rrcurveto
          80 161 90 64 37 -63 58 -74 2 hvcurveto
          -75 -57 -40 -33 -71 -54 rrcurveto
          -21 22 -14 25 24 vvcurveto
          56 212 73 70 76 vhcurveto
          20 26 7 22 -8 22 -15 24 -28 20 -31 19 rrcurveto
          289 -107 callgsubr
        </CharString>
        <CharString name="dvDDH_RA">
          -28 248 -84 rmoveto
          -3 -63 386 callsubr
          -2 -59 -36 426 callgsubr
          116 306 -62 callgsubr
        </CharString>
        <CharString name="dvDDH_YA">
          493 902 207 callsubr
          33 -31 20 -53 14 -105 -8 -99 -17 -99 -36 -1 6 -1 5 -2 6 -15 24 -31 22 -34 20 rrcurveto
          592 hlineto
          -545 -384 rmoveto
          -24 -49 -58 -38 -74 -13 -17 6 -18 8 -15 10 55 40 63 48 41 27 21 -8 20 -15 6 -16 rrcurveto
          790 434 rmoveto
          -114 98 callgsubr
          -919 -89 callgsubr
          231 hlineto
          47 -29 34 -20 20 -35 -3 -10 rcurveline
          -58 -56 -166 -71 -81 -59 rrcurveto
          -21 -21 -12 -33 -29 vvcurveto
          28 -83 105 -89 96 -2 rrcurveto
          89 1 161 93 65 vvcurveto
          40 -64 56 -74 4 vhcurveto
          -71 -53 -62 -51 -64 -49 rrcurveto
          -24 25 -16 28 27 vvcurveto
          53 193 82 100 71 vhcurveto
          127 47 131 19 83 -9 rrcurveto
          5 -100 -253 216 callgsubr
          -40 -69 -41 -171 -3 callsubr
        </CharString>
        <CharString name="dvDDHxA">
          -28 210 -22 45 callgsubr
          148 248 -62 callgsubr
        </CharString>
        <CharString name="dvDD_DDA">
          -106 602 621 164 callgsubr
          49 4 57 7 54 12 26 -11 25 -13 15 -17 -1 -5 rcurveline
          -61 -28 -80 -14 -79 -16 -37 -18 -13 -42 10 -33 69 -41 113 -7 70 -36 -1 -6 rcurveline
          -81 -43 -124 -12 -95 -3 -24 -18 10 -34 34 -23 113 8 153 31 67 40 23 26 13 50 -23 23 -66 32 -107 11 -61 30 2 5 rcurveline
          62 20 93 13 62 31 26 19 12 36 -7 18 -17 19 -22 14 -24 12 40 11 34 13 23 14 206 callgsubr
        </CharString>
        <CharString name="dvDD_DDHA">
          -103 252 -95 rmoveto
          23 -9 12 -8 7 -16 -21 -32 -57 -36 -56 -11 -14 4 -13 7 -12 7 48 35 47 34 36 25 rrcurveto
          350 716 164 callgsubr
          44 3 51 7 49 9 22 -14 14 -12 12 -21 163 callsubr
          -12 19 -18 15 -21 13 49 13 44 15 28 17 rrcurveto
          206 callgsubr
        </CharString>
        <CharString name="dvDD_NA">
          -103 84 -126 260 callsubr
          514 743 488 callgsubr
          251 hlineto
          36 -13 40 -17 21 -25 -2 -5 rcurveline
          -61 -30 -83 -15 -81 -17 -38 -19 -14 -44 10 -36 71 -44 117 -7 72 -38 -2 -6 rcurveline
          -83 -46 -127 -13 -98 -3 -24 -19 10 -37 35 -24 69 5 84 14 71 20 -19 -81 544 callgsubr
          -13 -24 -25 vvcurveto
          23 246 callgsubr
          310 53 125 7 3 6 3 6 4 rlinecurve
          24 27 14 54 -24 23 -68 35 -110 12 -62 32 1 5 rcurveline
          64 21 95 14 65 33 26 22 13 36 -7 20 -14 16 -18 13 -18 11 rrcurveto
          206 -107 callgsubr
        </CharString>
        <CharString name="dvDD_R">
          -106 37 31 callgsubr
          23 61 27 37 35 31 rrcurveto
          415 646 488 callsubr
          222 hlineto
          37 -16 43 -18 22 -28 -3 -6 rcurveline
          -60 -32 -85 -18 -83 -20 -40 -21 -14 -48 11 -39 76 -49 120 -8 77 -43 -1 -5 rcurveline
          -77 -53 -135 -20 -103 -4 -23 -21 10 -37 36 -28 118 9 165 41 66 47 24 30 11 59 -23 24 -71 40 -115 14 -67 35 2 8 rcurveline
          66 24 96 16 65 37 27 22 11 40 -6 22 -16 18 -20 15 -21 13 rrcurveto
          232 -107 callgsubr
        </CharString>
        <CharString name="dvDD_RA">
          -106 187 -84 rmoveto
          -2 -63 28 -63 45 -48 29 5 18 14 -2 24 -43 459 callgsubr
          -20 8 -33 -2 -60 -36 281 callgsubr
          33 58 48 42 rrcurveto
          420 701 -84 callgsubr
        </CharString>
        <CharString name="dvDD_VA">
          -103 245 -25 rmoveto
          -40 -42 -43 -39 -39 -39 -23 12 -10 486 callgsubr
          -28 16 -33 rrcurveto
          355 619 488 callgsubr
          261 hlineto
          33 -12 35 -16 18 -22 -1 -5 rcurveline
          -59 -28 -79 -15 -77 -16 -37 -17 -14 -42 11 -34 68 -42 110 -6 69 -37 -1 -6 rcurveline
          -79 -43 -122 -12 -93 -4 -23 -17 9 -35 34 -23 67 5 81 13 69 19 -21 -119 rcurveline
          -6 -4 -21 36 -28 36 -35 -1 rlinecurve
          -103 -85 -106 -99 1 hvcurveto
          1 -72 54 -46 85 -3 524 callgsubr
          -25 -98 420 callgsubr
          37 312 55 146 6 3 6 3 5 3 rlinecurve
          22 25 13 51 -23 22 -65 34 -105 11 -59 31 1 4 rcurveline
          62 20 90 13 61 31 26 20 13 36 -8 18 -12 14 -15 12 -17 10 rrcurveto
          204 -107 callgsubr
        </CharString>
        <CharString name="dvDD_YA">
          429 844 207 callsubr
          32 -31 21 -50 14 -103 -8 -85 -18 -91 -32 1 9 0 9 -2 7 -18 23 -21 17 -24 15 rrcurveto
          545 hlineto
          244 50 3 callgsubr
          -876 58 callgsubr
          -18 44 -20 23 -32 -3 -8 rcurveline
          -61 400 callsubr
          -40 -22 -14 -49 11 -41 75 219 callsubr
          -80 -58 -135 -21 -103 -5 -22 -22 8 -36 36 -30 118 11 165 44 66 50 24 32 11 60 -22 27 -70 43 -115 16 -67 39 2 9 rcurveline
          77 29 82 33 84 26 104 32 106 24 97 -5 rrcurveto
          5 -100 -253 216 callgsubr
          -41 -69 -40 -171 -80 callgsubr
        </CharString>
        <CharString name="dvDDxA">
          -106 161 -22 rmoveto
          -32 -25 -24 522 callgsubr
          24 -31 hvcurveto
          441 643 -84 callgsubr
        </CharString>
        <CharString name="dvDH">
          -175 134 475 12 callsubr
          -9 -302 rmoveto
          103 callsubr
          111 30 192 138 64 94 -44 37 rcurveline
          497 callgsubr
          rrcurveto
          442 452 rmoveto
          -139 -92 callgsubr
          139 -107 callgsubr
        </CharString>
        <CharString name="dvDHA">
          57 134 475 12 callsubr
          600 141 -101 callgsubr
          -65 -92 callgsubr
          67 365 callgsubr
          -8 9 43 349 callsubr
          rlinecurve
          44 callgsubr
          91 189 callsubr
          -38 -21 callsubr
          88 24 139 516 callsubr
          -37 -45 -47 -206 -96 callsubr
        </CharString>
        <CharString name="dvDH_MA">
          348 562 473 rmoveto
          503 callsubr
          -4 -26 -57 -32 -56 -30 -54 -29 -2 -1 -2 -2 -2 -1 rrcurveto
          0 vlineto
          -57 -45 -72 -51 -87 -31 -8 9 rcurveline
          43 callsubr
          76 21 99 58 47 67 rrcurveto
          155 hlineto
          -55 -359 -20 callsubr
          -369 256 12 callsubr
          890 141 rmoveto
          -641 hlineto
          -12 56 -36 30 -36 -21 callsubr
          69 21 78 50 63 49 31 -42 50 -24 50 -7 135 callsubr
        </CharString>
        <CharString name="dvDH_NA">
          336 134 475 12 callsubr
          329 -269 380 callsubr
          -630 hlineto
          -12 56 -36 30 -36 -21 callsubr
          69 21 79 50 62 50 33 -42 51 -22 53 -7 34 320 callsubr
          458 callgsubr
          66 43 9 -5 rcurveline
          308 callsubr
          -123 -66 -3 -2 -3 -3 -2 -3 -57 -45 -72 -50 -86 -31 -8 9 rcurveline
          43 callsubr
          76 21 99 58 47 67 rrcurveto
          637 -107 callgsubr
        </CharString>
        <CharString name="dvDH_N_YA">
          724 1148 -77 callsubr
          -1031 -393 rmoveto
          43 callsubr
          76 21 99 58 47 67 rrcurveto
          416 hlineto
          -58 callsubr
          -3 465 callgsubr
          -124 27 -192 -19 -86 -56 -3 -2 -3 -3 -2 -3 rrcurveto
          -57 -39 -64 -41 -76 -28 rrcurveto
          313 24 rmoveto
          -30 10 305 callsubr
          24 16 25 12 28 8 5 -26 1 -26 -6 -28 rrcurveto
          -353 275 12 callsubr
          1267 141 -101 callgsubr
          -785 hlineto
          -12 56 -36 30 -36 -21 callsubr
          63 19 68 42 60 43 33 -43 52 -22 54 -7 33 5 37 18 15 21 4 41 -1 44 -10 448 callsubr
          100 -77 58 61 callgsubr
          12 -10 -40 -70 -47 -194 30 -28 47 -12 43 -103 callsubr
        </CharString>
        <CharString name="dvDH_R">
          -175 136 478 rmoveto
          45 64 80 67 456 callgsubr
          -55 -88 -65 -62 -14 rrcurveto
          312 -79 rmoveto
          -63 -81 -150 -110 -103 -34 -8 9 rcurveline
          43 54 60 57 62 49 118 callsubr
          -147 -46 -127 -148 -30 -79 -3 -44 40 -38 45 -24 53 7 44 15 34 15 4 -5 rcurveline
          -64 -50 -72 439 callsubr
          83 24 130 84 81 81 11 -15 rcurveline
          -63 -109 -141 -83 -128 -50 -8 -27 10 -22 43 -22 128 79 134 87 73 128 -28 69 rcurveline
          14 17 12 17 7 15 rrcurveto
          81 246 rmoveto
          -132 -92 callgsubr
          132 -107 callgsubr
        </CharString>
        <CharString name="dvDH_RA">
          58 136 478 rmoveto
          45 64 243 callgsubr
          -5 -13 14 -13 rcurveline
          67 hlineto
          -39 -167 -63 -81 -149 -109 -103 -34 rlinecurve
          -8 9 43 54 60 57 62 49 rlinecurve
          118 callsubr
          -147 -46 -127 -148 -30 -79 -3 -44 40 -38 45 -24 53 7 44 15 34 15 4 -5 rcurveline
          -64 -50 -72 439 callsubr
          88 24 140 94 85 86 9 -8 rcurveline
          -37 -63 -84 -83 -121 -77 -107 -41 rlinecurve
          -8 -27 10 -22 43 -22 93 -17 callsubr
        </CharString>
        <CharString name="dvDH_VA">
          332 738 37 callgsubr
          -614 116 12 callsubr
          874 141 -41 callsubr
          -340 -92 callgsubr
          344 471 callgsubr
          174 callgsubr
          -74 -67 -48 -66 -42 hvcurveto
          0 vlineto
          497 callgsubr
          -8 9 rcurveline
          103 callsubr
          78 21 117 74 86 75 rrcurveto
          -1 -6 0 -5 -5 -37 callgsubr
          116 hlineto
          13 -30 callsubr
          endchar
        </CharString>
        <CharString name="dvDH_YA">
          378 802 142 callgsubr
          -685 -393 rmoveto
          43 callsubr
          76 21 99 58 47 67 rrcurveto
          70 13 callsubr
          -3 -75 -149 -59 -75 -58 rrcurveto
          0 vlineto
          535 callsubr
          -30 306 12 callsubr
          920 141 3 callgsubr
          -438 hlineto
          -12 56 -36 30 -36 -21 callsubr
          75 22 86 55 72 57 rrcurveto
          -47 29 70 -46 46 hhcurveto
          62 117 82 88 77 hvcurveto
          -16 callgsubr
        </CharString>
        <CharString name="dvD_BA">
          41 callsubr
          50 63 rrcurveto
          0 vlineto
          46 54 41 60 29 34 -18 callsubr
        </CharString>
        <CharString name="dvD_BHA">
          -40 398 199 rmoveto
          -11 -31 -22 -62 -24 -69 -45 -23 -48 -21 -50 -19 12 34 11 34 12 36 17 -4 17 -4 17 -2 46 58 31 40 29 37 rrcurveto
          -332 -391 rmoveto
          -18 11 -15 14 -12 23 29 10 29 10 29 11 -10 -24 -10 -24 -14 -27 rrcurveto
          105 281 rmoveto
          -7 -24 -8 -23 -7 -22 -72 -10 rcurveline
          -10 7 -7 9 -3 9 37 22 38 16 34 20 rrcurveto
          504 520 rmoveto
          -645 -92 callgsubr
          268 hlineto
          44 -26 33 -22 16 -28 -2 -8 rcurveline
          -75 -93 -253 -25 -121 vvcurveto
          -43 28 -39 43 -31 vhcurveto
          -34 -19 -33 -17 -30 -12 -11 -6 -13 -23 -2 -14 rrcurveto
          -26 36 -38 41 -10 vhcurveto
          71 23 4 -7 -15 -21 -7 -19 -48 -17 -48 -15 -44 -14 rlinecurve
          -25 -13 -11 -23 -1 -23 15 -40 44 -36 45 -17 31 -2 28 6 22 21 19 52 17 48 16 47 48 19 47 19 45 21 -24 -70 -25 -71 -15 -50 7 -28 37 -15 47 3 rrcurveto
          38 155 61 216 43 108 -29 46 -45 14 -33 -7 -22 -26 -49 -57 -45 -46 -53 15 -47 30 -25 47 53 80 161 39 67 58 26 30 11 33 -9 26 -15 23 -26 20 -29 19 rrcurveto
          276 -107 callgsubr
        </CharString>
</ttFont>
